<?xml version="1.0" encoding="UTF-8" standalone="no"?>
<svg
   xmlns:dc="http://purl.org/dc/elements/1.1/"
   xmlns:cc="http://creativecommons.org/ns#"
   xmlns:rdf="http://www.w3.org/1999/02/22-rdf-syntax-ns#"
   xmlns:svg="http://www.w3.org/2000/svg"
   xmlns="http://www.w3.org/2000/svg"
   xmlns:sodipodi="http://sodipodi.sourceforge.net/DTD/sodipodi-0.dtd"
   xmlns:inkscape="http://www.inkscape.org/namespaces/inkscape"
   id="Layer_5"
   enable-background="new 0 0 64 64"
   height="50"
   viewBox="0 0 6.25 6.25"
   width="50"
   version="1.1"
   sodipodi:docname="agileandscrum.svg"
   inkscape:version="0.92.4 (5da689c313, 2019-01-14)">
  <metadata
     id="metadata33">
    <rdf:RDF>
      <cc:Work
         rdf:about="">
        <dc:format>image/svg+xml</dc:format>
        <dc:type
           rdf:resource="http://purl.org/dc/dcmitype/StillImage" />
        <dc:title></dc:title>
      </cc:Work>
    </rdf:RDF>
  </metadata>
  <defs
     id="defs31" />
  <sodipodi:namedview
     pagecolor="#ffffff"
     bordercolor="#666666"
     borderopacity="1"
     objecttolerance="10"
     gridtolerance="10"
     guidetolerance="10"
     inkscape:pageopacity="0"
     inkscape:pageshadow="2"
     inkscape:window-width="1920"
     inkscape:window-height="1017"
     id="namedview29"
     showgrid="false"
     inkscape:zoom="2.6074563"
     inkscape:cx="94.465606"
     inkscape:cy="-12.053788"
     inkscape:window-x="-8"
     inkscape:window-y="-8"
     inkscape:window-maximized="1"
     inkscape:current-layer="Layer_5" />
  <path
     d="m 5.2483018,4.2380433 c -0.2663997,0 -0.4990596,0.1455139 -0.6240951,0.3608529 H 4.0748983 C 4.9220005,4.2448995 5.5189415,3.4078109 5.5189415,2.4337787 c 0,-1.2932969 -1.0522471,-2.34554405 -2.345544,-2.34554405 -1.2630755,0 -2.29619745,1.00362225 -2.34383005,2.25533075 H 0.54503495 L 1.1887064,3.1159711 1.8323778,2.3435654 H 1.5519951 c 0.047001,-0.8535976 0.7562575,-1.53362494 1.6214024,-1.53362494 0.8953663,0 1.6238381,0.72847194 1.6238381,1.62383824 0,0.8953663 -0.7284718,1.6238381 -1.6238381,1.6238381 H 2.1810519 V 5.1401756 H 4.550322 c 0.08047,0.3107846 0.3623866,0.5412794 0.6979798,0.5412794 0.3979306,0 0.7217058,-0.3237753 0.7217058,-0.7217059 0,-0.3979305 -0.3237752,-0.7217058 -0.7217058,-0.7217058 z m -2.0749043,0 c 0.9948715,0 1.8042646,-0.8093931 1.8042646,-1.8042646 0,-0.9948715 -0.8093931,-1.80426464 -1.8042646,-1.80426464 -0.9948715,0 -1.8042647,0.80939314 -1.8042647,1.80426464 v 0.090213 h 0.078035 L 1.1887064,2.834145 0.93024545,2.5239919 h 0.0780339 v -0.090213 c 0,-1.1937917 0.9713259,-2.16511759 2.1651176,-2.16511759 1.1937917,0 2.1651175,0.97132589 2.1651175,2.16511759 0,1.1937917 -0.9713258,2.1651175 -2.1651175,2.1651175 H 2.3614784 V 4.2380433 Z M 2.3614784,4.9597491 V 4.7793227 H 4.550322 C 4.535347,4.8371497 4.526596,4.8973216 4.526596,4.9597491 Z m 2.8868234,0.5412794 c -0.2985156,0 -0.5412794,-0.2427638 -0.5412794,-0.5412794 0,-0.2985155 0.2427638,-0.5412793 0.5412794,-0.5412793 0.2985156,0 0.5412794,0.2427638 0.5412794,0.5412793 0,0.2985156 -0.2427638,0.5412794 -0.5412794,0.5412794 z"
     id="path2"
     inkscape:connector-curvature="0"
     style="stroke-width:0.09021323" />
  <path
     d="M 5.545374,4.7155419 5.1580886,5.1028273 5.0414428,4.9861816 4.9138813,5.1137431 5.1580886,5.3579504 5.6729355,4.8431034 Z"
     id="path4"
     inkscape:connector-curvature="0"
     style="stroke-width:0.09021323" />
  <path
     d="M 1.7299858,3.335911 H 0.64742695 c -0.1492127,0 -0.2706397,0.121427 -0.2706397,0.2706397 v 1.8042646 c 0,0.1492127 0.121427,0.2706397 0.2706397,0.2706397 H 1.7299858 c 0.1492127,0 0.2706397,-0.121427 0.2706397,-0.2706397 V 3.6065507 c 0,-0.1492127 -0.121427,-0.2706397 -0.2706397,-0.2706397 z m 0.090213,2.0749043 c 0,0.049798 -0.040506,0.090213 -0.090213,0.090213 H 0.64742695 c -0.049708,0 -0.090213,-0.040415 -0.090213,-0.090213 V 3.6065507 c 0,-0.049798 0.040506,-0.090213 0.090213,-0.090213 H 1.7299858 c 0.049708,0 0.090213,0.040416 0.090213,0.090213 z"
     id="path6"
     inkscape:connector-curvature="0"
     style="stroke-width:0.09021323" />
  <path
     d="m 3.2636107,3.0652713 c 0.3482231,0 0.6314926,-0.2832696 0.6314926,-0.6314926 0,-0.3482231 -0.2832695,-0.6314926 -0.6314926,-0.6314926 -0.3482231,0 -0.6314926,0.2832695 -0.6314926,0.6314926 0,0.348223 0.2832695,0.6314926 0.6314926,0.6314926 z m 0,-1.0825588 c 0.2487179,0 0.4510662,0.2023483 0.4510662,0.4510662 0,0.2487179 -0.2023483,0.4510661 -0.4510662,0.4510661 -0.2487179,0 -0.4510662,-0.2023482 -0.4510662,-0.4510661 0,-0.2487179 0.2023483,-0.4510662 0.4510662,-0.4510662 z"
     id="path8"
     inkscape:connector-curvature="0"
     style="stroke-width:0.09021323" />
  <path
     d="m 2.0908387,2.7748749 0.2179552,0.054399 -0.1155632,0.1926052 0.4823702,0.48228 0.192515,-0.1155632 0.054399,0.2179552 h 0.682192 L 3.6591055,3.3885955 3.8516205,3.5041587 4.3339907,3.0218787 4.2184275,2.8292735 4.4363827,2.7748749 V 2.0926824 L 4.2184275,2.0382839 4.3339907,1.8457688 3.8516205,1.3633987 3.6591055,1.4789618 3.6047069,1.2610067 H 2.9225145 L 2.8681159,1.4789618 2.6756009,1.3633987 2.1932307,1.8457688 2.3087939,2.0382839 2.0908387,2.0926824 Z M 2.2712652,2.2335955 2.4919267,2.1784752 2.5372138,2.0682347 2.4202974,1.8735545 2.7033865,1.5904654 2.8980667,1.7073817 3.0083073,1.6620947 3.0634275,1.4414331 h 0.4003664 l 0.05512,0.2206616 0.1102406,0.045287 0.1946802,-0.1169163 0.2830891,0.2830891 -0.1169164,0.1946802 0.045287,0.1102405 0.2206615,0.05512 V 2.6339618 L 4.0801307,2.6778957 4.0319568,2.6964796 3.9899174,2.7991423 4.1068338,2.9940028 3.8237447,3.2771822 3.6290645,3.1602658 3.5190044,3.2050116 3.4637939,3.4261242 H 3.0634275 L 3.0194937,3.2502986 3.0011804,3.2020346 2.8981569,3.1601756 2.7034767,3.277092 2.4203876,2.9939126 2.537304,2.799052 2.4919267,2.6889919 2.2712652,2.6339618 Z"
     id="path10"
     inkscape:connector-curvature="0"
     style="stroke-width:0.09021323" />
  <path
     d="m 3.2636107,2.7044184 c 0.1492127,0 0.2706397,-0.121427 0.2706397,-0.2706397 0,-0.1492127 -0.121427,-0.2706397 -0.2706397,-0.2706397 -0.1492127,0 -0.2706397,0.121427 -0.2706397,0.2706397 0,0.1492127 0.121427,0.2706397 0.2706397,0.2706397 z m 0,-0.360853 c 0.049708,0 0.090213,0.040506 0.090213,0.090213 0,0.049708 -0.040506,0.090213 -0.090213,0.090213 -0.049707,0 -0.090213,-0.040506 -0.090213,-0.090213 0,-0.049707 0.040506,-0.090213 0.090213,-0.090213 z"
     id="path12"
     inkscape:connector-curvature="0"
     style="stroke-width:0.09021323" />
  <path
     d="M 0.73764015,3.6967639 H 1.6397725 V 3.8771904 H 0.73764015 Z"
     id="path14"
     inkscape:connector-curvature="0"
     style="stroke-width:0.09021323" />
  <path
     d="M 0.73764015,4.0576168 H 1.6397725 V 4.2380433 H 0.73764015 Z"
     id="path16"
     inkscape:connector-curvature="0"
     style="stroke-width:0.09021323" />
  <path
     d="M 0.73764015,4.4184698 H 1.6397725 V 4.5988962 H 0.73764015 Z"
     id="path18"
     inkscape:connector-curvature="0"
     style="stroke-width:0.09021323" />
  <path
     d="M 0.73764015,4.7793227 H 1.6397725 V 4.9597491 H 0.73764015 Z"
     id="path20"
     inkscape:connector-curvature="0"
     style="stroke-width:0.09021323" />
  <path
     d="M 1.4593461,5.1401756 H 1.6397725 V 5.3206021 H 1.4593461 Z"
     id="path22"
     inkscape:connector-curvature="0"
     style="stroke-width:0.09021323" />
  <path
     d="M 1.0984932,5.1401756 H 1.2789196 V 5.3206021 H 1.0984932 Z"
     id="path24"
     inkscape:connector-curvature="0"
     style="stroke-width:0.09021323" />
  <path
     d="m 0.73764015,5.1401756 h 0.1804265 v 0.1804265 h -0.1804265 z"
     id="path26"
     inkscape:connector-curvature="0"
     style="stroke-width:0.09021323" />
</svg>
