<?xml version="1.0" encoding="UTF-8" standalone="no"?>
<svg
   xmlns:dc="http://purl.org/dc/elements/1.1/"
   xmlns:cc="http://creativecommons.org/ns#"
   xmlns:rdf="http://www.w3.org/1999/02/22-rdf-syntax-ns#"
   xmlns:svg="http://www.w3.org/2000/svg"
   xmlns="http://www.w3.org/2000/svg"
   xmlns:sodipodi="http://sodipodi.sourceforge.net/DTD/sodipodi-0.dtd"
   xmlns:inkscape="http://www.inkscape.org/namespaces/inkscape"
   height="50pt"
   viewBox="0 0 50 50"
   width="50pt"
   version="1.1"
   id="svg16"
   sodipodi:docname="algorithm.svg"
   inkscape:version="0.92.4 (5da689c313, 2019-01-14)">
  <metadata
     id="metadata22">
    <rdf:RDF>
      <cc:Work
         rdf:about="">
        <dc:format>image/svg+xml</dc:format>
        <dc:type
           rdf:resource="http://purl.org/dc/dcmitype/StillImage" />
        <dc:title></dc:title>
      </cc:Work>
    </rdf:RDF>
  </metadata>
  <defs
     id="defs20" />
  <sodipodi:namedview
     pagecolor="#ffffff"
     bordercolor="#666666"
     borderopacity="1"
     objecttolerance="10"
     gridtolerance="10"
     guidetolerance="10"
     inkscape:pageopacity="0"
     inkscape:pageshadow="2"
     inkscape:window-width="1920"
     inkscape:window-height="1017"
     id="namedview18"
     showgrid="false"
     inkscape:zoom="8.0747032"
     inkscape:cx="74.939185"
     inkscape:cy="18.866932"
     inkscape:window-x="-8"
     inkscape:window-y="-8"
     inkscape:window-maximized="1"
     inkscape:current-layer="svg16" />
  <path
     d="m 26.450579,29.513126 c -2.129233,0 -3.861734,1.732501 -3.861734,3.861734 0,2.129234 1.732501,3.861734 3.861734,3.861734 2.129234,0 3.861733,-1.7325 3.861733,-3.861734 0,-2.129233 -1.732499,-3.861734 -3.861733,-3.861734 z m 0,6.178775 c -1.277314,0 -2.31704,-1.039727 -2.31704,-2.317041 0,-1.277313 1.039726,-2.31704 2.31704,-2.31704 1.277314,0 2.31704,1.039727 2.31704,2.31704 0,1.277314 -1.039726,2.317041 -2.31704,2.317041 z m 0,0"
     id="path2"
     inkscape:connector-curvature="0"
     style="stroke-width:0.09654333" />
  <path
     d="m 25.678232,3.2533397 h 6.178774 v 1.5446936 h -6.178774 z m 0,0"
     id="path4"
     inkscape:connector-curvature="0"
     style="stroke-width:0.09654333" />
  <path
     d="m 25.678232,6.3427258 h 6.178774 v 1.5446936 h -6.178774 z m 0,0"
     id="path6"
     inkscape:connector-curvature="0"
     style="stroke-width:0.09654333" />
  <path
     d="M 21.044153,9.4321128 H 31.857006 V 10.976807 H 21.044153 Z m 0,0"
     id="path8"
     inkscape:connector-curvature="0"
     style="stroke-width:0.09654333" />
  <path
     d="m 21.044153,12.5215 h 10.812853 v 1.544693 H 21.044153 Z m 0,0"
     id="path10"
     inkscape:connector-curvature="0"
     style="stroke-width:0.09654333" />
  <path
     d="M 21.044153,15.610886 H 31.857006 V 17.15558 H 21.044153 Z m 0,0"
     id="path12"
     inkscape:connector-curvature="0"
     style="stroke-width:0.09654333" />
  <path
     d="M 50.393327,24.879047 V 18.700274 H 39.580473 v 6.178773 h 4.634079 v 7.723467 h -9.268159 v -1.329357 l -1.896172,-0.632434 0.893781,-1.787183 -2.972102,-2.972102 -1.787938,0.894534 -0.63168,-1.896925 h -1.329356 v -4.63408 h 7.723467 v -9.26816 h 9.268159 v 4.31428 l -1.770966,-1.770967 -1.092146,1.092146 3.635459,3.63546 3.63546,-3.63546 -1.092146,-1.092146 -1.770967,1.770967 V 9.4321128 H 34.946393 V 0.16395294 h -11.905 L 17.954766,5.2505795 V 9.4321128 H 7.1419123 V 15.291087 L 5.3709455,13.52012 4.278799,14.612266 l 3.63546,3.63546 3.63546,-3.63546 -1.092147,-1.092146 -1.7709663,1.770967 v -4.31428 h 9.2681603 v 9.26816 h 7.723466 v 4.63408 h -1.329356 l -0.63168,1.896925 -1.787937,-0.894534 -2.972102,2.972102 0.89378,1.787183 -1.896171,0.632434 v 1.329357 H 8.6866057 V 24.879047 H 13.320685 V 18.700274 H 2.5078322 v 6.178773 h 4.6340801 v 12.46729 c -1.3293565,0.345067 -2.3170401,1.544694 -2.3170401,2.979643 0,1.70384 1.3855477,3.089388 3.0893868,3.089388 1.703839,0 3.089387,-1.385548 3.089387,-3.089388 0,-1.434949 -0.987684,-2.634576 -2.3170403,-2.979643 v -3.19913 h 4.6340793 v 9.410337 c -0.896796,0.319799 -1.544693,1.169455 -1.544693,2.174864 0,1.277313 1.039726,2.317039 2.31704,2.317039 1.277313,0 2.31704,-1.039726 2.31704,-2.317039 0,-1.005409 -0.647896,-1.855065 -1.544694,-2.174864 v -9.410337 h 3.089388 v 1.329357 l 1.896171,0.632434 -0.89378,1.787183 2.972102,2.972102 1.787937,-0.894534 0.63168,1.896925 h 4.202652 l 0.631681,-1.896925 1.787937,0.894534 2.9721,-2.972102 -0.89378,-1.787183 1.896927,-0.632434 v -1.329357 h 3.089386 v 9.410337 c -0.896797,0.319799 -1.544694,1.169455 -1.544694,2.174864 0,1.277313 1.039727,2.317039 2.317041,2.317039 1.277313,0 2.31704,-1.039726 2.31704,-2.317039 0,-1.005409 -0.647897,-1.855065 -1.544693,-2.174864 v -9.410337 h 4.634079 v 3.19913 c -1.329356,0.345067 -2.317039,1.544694 -2.317039,2.979643 0,1.70384 1.385547,3.089388 3.089386,3.089388 1.703839,0 3.089387,-1.385548 3.089387,-3.089388 0,-1.434949 -0.987684,-2.634576 -2.31704,-2.979643 V 24.879047 Z M 22.588845,2.8007924 v 1.9972409 h -1.997239 z m -3.089386,3.5419334 h 4.63408 V 1.7086463 h 9.26816 V 18.700274 H 19.499459 Z M 4.0525256,20.244967 h 7.7234664 v 3.089386 H 4.0525256 Z M 9.4589523,40.32598 c 0,0.85192 -0.6927738,1.544694 -1.5446933,1.544694 -0.8519196,0 -1.5446934,-0.692774 -1.5446934,-1.544694 0,-0.851919 0.6927738,-1.544693 1.5446934,-1.544693 0.8519195,0 1.5446933,0.692774 1.5446933,1.544693 z m 4.6340797,6.178774 c -0.426148,0 -0.772347,-0.346953 -0.772347,-0.772346 0,-0.425394 0.346199,-0.772347 0.772347,-0.772347 0.426148,0 0.772346,0.346953 0.772346,0.772347 0,0.425393 -0.346198,0.772346 -0.772346,0.772346 z m 19.308667,-12.14221 -1.771721,0.590951 -0.130484,0.340542 c -0.03885,0.0988 -0.07731,0.197234 -0.119925,0.292647 l -0.149718,0.334507 0.834949,1.669898 -1.397238,1.397238 -1.669899,-0.834949 -0.33413,0.149718 c -0.09503,0.04262 -0.191578,0.08108 -0.289631,0.118416 l -0.343934,0.129732 -0.591705,1.774736 h -1.976122 l -0.591705,-1.774736 -0.343935,-0.129732 c -0.09805,-0.03733 -0.194596,-0.0758 -0.289631,-0.118416 l -0.334131,-0.149718 -1.669897,0.834949 -1.397239,-1.397238 0.83495,-1.669898 -0.149718,-0.334507 c -0.04337,-0.09655 -0.08108,-0.193842 -0.119926,-0.292647 l -0.130484,-0.340542 -1.770966,-0.590951 v -1.976122 l 1.77172,-0.590951 0.130485,-0.340541 c 0.03885,-0.0988 0.07731,-0.197235 0.119924,-0.293025 l 0.149718,-0.334129 -0.834948,-1.669899 1.397238,-1.397238 1.669898,0.834948 0.33413,-0.149717 c 0.09503,-0.04262 0.191579,-0.08108 0.28963,-0.118416 l 0.343936,-0.12973 0.591705,-1.773984 h 1.976121 l 0.591706,1.774738 0.343936,0.12973 c 0.09805,0.03733 0.194594,0.0758 0.289629,0.118416 l 0.33413,0.149718 1.669899,-0.834948 1.397238,1.397237 -0.834948,1.669899 0.149717,0.334506 c 0.04337,0.09655 0.08108,0.193843 0.119925,0.292648 l 0.130484,0.340542 1.770967,0.59095 z m 5.406427,12.14221 c -0.426149,0 -0.772347,-0.346953 -0.772347,-0.772346 0,-0.425394 0.346198,-0.772347 0.772347,-0.772347 0.426148,0 0.772347,0.346953 0.772347,0.772347 0,0.425393 -0.346199,0.772346 -0.772347,0.772346 z m 7.723467,-6.178774 c 0,0.85192 -0.692774,1.544694 -1.544694,1.544694 -0.85192,0 -1.544694,-0.692774 -1.544694,-1.544694 0,-0.851919 0.692774,-1.544693 1.544694,-1.544693 0.85192,0 1.544694,0.692774 1.544694,1.544693 z M 41.125166,20.244967 h 7.723467 v 3.089386 h -7.723467 z m 0,0"
     id="path14"
     inkscape:connector-curvature="0"
     style="stroke-width:0.09654333" />
</svg>
