<?xml version="1.0" encoding="UTF-8" standalone="no"?>
<svg
   xmlns:dc="http://purl.org/dc/elements/1.1/"
   xmlns:cc="http://creativecommons.org/ns#"
   xmlns:rdf="http://www.w3.org/1999/02/22-rdf-syntax-ns#"
   xmlns:svg="http://www.w3.org/2000/svg"
   xmlns="http://www.w3.org/2000/svg"
   xmlns:sodipodi="http://sodipodi.sourceforge.net/DTD/sodipodi-0.dtd"
   xmlns:inkscape="http://www.inkscape.org/namespaces/inkscape"
   id="Capa_1"
   enable-background="new 0 0 511.996 511.996"
   height="50"
   viewBox="0 0 49.999609 49.999609"
   width="50"
   version="1.1"
   sodipodi:docname="blog-selected.svg"
   inkscape:version="0.92.4 (5da689c313, 2019-01-14)">
  <metadata
     id="metadata39">
    <rdf:RDF>
      <cc:Work
         rdf:about="">
        <dc:format>image/svg+xml</dc:format>
        <dc:type
           rdf:resource="http://purl.org/dc/dcmitype/StillImage" />
        <dc:title></dc:title>
      </cc:Work>
    </rdf:RDF>
  </metadata>
  <defs
     id="defs37" />
  <sodipodi:namedview
     pagecolor="#ffffff"
     bordercolor="#666666"
     borderopacity="1"
     objecttolerance="10"
     gridtolerance="10"
     guidetolerance="10"
     inkscape:pageopacity="0"
     inkscape:pageshadow="2"
     inkscape:window-width="1920"
     inkscape:window-height="1017"
     id="namedview35"
     showgrid="false"
     inkscape:zoom="1.3037281"
     inkscape:cx="21.066902"
     inkscape:cy="-140.78662"
     inkscape:window-x="1912"
     inkscape:window-y="-8"
     inkscape:window-maximized="1"
     inkscape:current-layer="Capa_1" />
  <g
     id="g32"
     transform="matrix(0.08600583,0,0,0.08600583,3.3388175,2.1698257)">
    <g
       id="g16">
      <path
         d="m 21.03,369.078 c 2.358,21.51 19.781,38.315 41.372,39.826 1.786,0.126 3.56,0.252 5.334,0.366 13.165,0.893 23.399,11.826 23.399,25.024 v 49.889 c 0,16.782 19.209,26.307 32.557,16.141 24.36,-18.557 56.769,-46.157 76.653,-74.776 4.705,-6.777 12.478,-10.727 20.732,-10.681 61.222,0.309 122.444,-1.66 183.666,-5.964 17.068,-1.191 31.561,-11.917 38.018,-27.005 1.717,-3.961 2.862,-8.242 3.354,-12.718 9.067,-82.824 9.067,-165.659 0,-248.494 C 443.757,99.199 426.322,82.474 404.766,80.963 313.563,74.564 222.371,73.282 131.179,77.116 108.261,78.066 85.331,79.348 62.413,80.963 40.846,82.475 23.4,99.2 21.042,120.687 11.975,203.488 11.975,286.278 21.03,369.078 Z"
         id="path2"
         inkscape:connector-curvature="0"
         style="fill:#f4dd45" />
      <path
         d="m 60.318,120.685 c -9.065,82.804 -9.065,165.59 0,248.393 2.363,21.509 19.773,38.31 41.374,39.824 1.773,0.129 3.563,0.24 5.336,0.369 13.163,0.886 23.392,11.816 23.392,25.017 v 49.885 c 0,3.415 0.794,6.517 2.178,9.231 -3.065,2.418 -6.037,4.726 -8.917,6.923 -13.348,10.154 -32.549,0.628 -32.549,-16.155 v -49.885 c 0,-13.201 -10.247,-24.13 -23.41,-25.017 -1.772,-0.129 -3.545,-0.24 -5.336,-0.369 -21.583,-1.514 -39.011,-18.315 -41.356,-39.824 -9.065,-82.804 -9.065,-165.589 0,-248.393 2.363,-21.49 19.81,-38.217 41.374,-39.731 22.912,-1.606 45.842,-2.899 68.773,-3.84 40.839,-1.717 81.696,-2.419 122.535,-2.068 -27.749,0.203 -55.498,0.905 -83.247,2.068 -22.912,0.941 -45.842,2.234 -68.772,3.84 -21.564,1.515 -39.011,18.242 -41.375,39.732 z"
         id="path4"
         inkscape:connector-curvature="0"
         style="fill:#eab14d" />
      <g
         id="g14">
        <path
           d="m 466.003,65.18 14.244,-26.371 c 3.6,-6.665 1.111,-15.001 -5.554,-18.602 L 454.24,9.159 c -6.675,-3.605 -15.001,-1.111 -18.602,5.554 l -14.244,26.371"
           id="path6"
           inkscape:connector-curvature="0"
           style="fill:#dfeaef" />
        <path
           d="m 471.01,18.218 c -6.674,-3.605 -15.001,-1.111 -18.602,5.554 l -14.244,26.371 -16.771,-9.059 14.244,-26.371 c 3.6,-6.665 11.927,-9.159 18.602,-5.554 z"
           id="path8"
           inkscape:connector-curvature="0"
           style="fill:#b4d0d5" />
        <path
           d="m 415.828,200.856 c -48.696,90.153 -106.172,153.527 -128.374,141.534 -22.202,-11.992 -0.716,-94.805 47.98,-184.959 24.691,-45.712 51.645,-84.544 75.101,-110.145 6.376,-6.959 16.675,-8.664 24.979,-4.179 l 21.051,11.371 c 8.304,4.485 12.525,14.034 10.201,23.181 -8.549,33.654 -26.246,77.486 -50.938,123.197 z"
           id="path10"
           inkscape:connector-curvature="0"
           style="fill:#6bbef6" />
        <path
           d="m 287.454,342.391 c -22.202,-11.992 -0.716,-94.805 47.98,-184.959 24.691,-45.712 51.642,-84.541 75.099,-110.15 6.376,-6.953 16.679,-8.657 24.98,-4.173 l 7.628,4.12 c -2.281,-1.232 -7.312,3.32 -12.211,11.071 -18.063,28.523 -41.658,69.164 -66.349,114.877 -48.695,90.152 -83.231,165.916 -77.127,169.214 z"
           id="path12"
           inkscape:connector-curvature="0"
           style="fill:#528ecb" />
      </g>
    </g>
    <g
       id="g30">
      <path
         d="m 75.938,168.454 h 174.356 c 4.143,0 7.5,-3.358 7.5,-7.5 0,-4.142 -3.357,-7.5 -7.5,-7.5 H 75.938 c -4.143,0 -7.5,3.358 -7.5,7.5 0,4.142 3.358,7.5 7.5,7.5 z"
         id="path18"
         inkscape:connector-curvature="0" />
      <path
         d="m 75.938,206.118 h 174.356 c 4.143,0 7.5,-3.358 7.5,-7.5 0,-4.142 -3.357,-7.5 -7.5,-7.5 H 75.938 c -4.143,0 -7.5,3.358 -7.5,7.5 0,4.142 3.358,7.5 7.5,7.5 z"
         id="path20"
         inkscape:connector-curvature="0" />
      <path
         d="m 75.938,243.781 h 174.356 c 4.143,0 7.5,-3.358 7.5,-7.5 0,-4.142 -3.357,-7.5 -7.5,-7.5 H 75.938 c -4.143,0 -7.5,3.358 -7.5,7.5 0,4.142 3.358,7.5 7.5,7.5 z"
         id="path22"
         inkscape:connector-curvature="0" />
      <path
         d="m 75.938,281.445 h 174.356 c 4.143,0 7.5,-3.358 7.5,-7.5 0,-4.142 -3.357,-7.5 -7.5,-7.5 H 75.938 c -4.143,0 -7.5,3.358 -7.5,7.5 0,4.142 3.358,7.5 7.5,7.5 z"
         id="path24"
         inkscape:connector-curvature="0" />
      <path
         d="M 75.938,319.108 H 144.3 c 4.143,0 7.5,-3.358 7.5,-7.5 0,-4.142 -3.357,-7.5 -7.5,-7.5 H 75.938 c -4.143,0 -7.5,3.358 -7.5,7.5 0,4.142 3.358,7.5 7.5,7.5 z"
         id="path26"
         inkscape:connector-curvature="0" />
      <path
         d="m 480.27,54.548 6.577,-12.175 c 5.562,-10.298 1.708,-23.202 -8.59,-28.764 L 457.804,2.56 c -4.991,-2.695 -10.731,-3.285 -16.166,-1.661 -5.432,1.623 -9.906,5.264 -12.599,10.25 l -12.748,23.6 c -4.212,1.496 -8.108,4.001 -11.29,7.473 -7.873,8.596 -16.072,18.589 -24.368,29.672 -82.963,-4.983 -166.972,-5.753 -249.762,-2.27 -23,0.954 -46.211,2.253 -68.98,3.862 -25.236,1.755 -45.556,21.262 -48.314,46.386 -9.074,82.934 -9.078,167.057 -0.01,250.034 2.762,25.169 23.08,44.719 48.289,46.481 1.808,0.132 3.614,0.254 5.371,0.363 4.897,0.331 9.467,2.714 12.534,6.539 1.481,1.848 3.658,2.809 5.855,2.809 1.646,0 3.303,-0.54 4.688,-1.649 3.231,-2.591 3.75,-7.312 1.158,-10.543 -5.686,-7.09 -14.15,-11.508 -23.266,-12.124 -1.744,-0.108 -3.496,-0.227 -5.271,-0.356 C 44.935,400.168 30.447,386.224 28.478,368.273 19.528,286.381 19.532,203.356 28.487,121.507 30.454,103.603 44.94,89.7 62.94,88.449 c 22.634,-1.599 45.698,-2.891 68.558,-3.838 79.125,-3.329 159.363,-2.753 238.722,1.7 -5.014,7.18 -10.03,14.7 -14.998,22.513 -2.223,3.495 -1.19,8.13 2.305,10.353 3.495,2.221 8.13,1.191 10.354,-2.304 16.213,-25.496 32.874,-47.806 48.18,-64.517 4.053,-4.421 10.585,-5.51 15.887,-2.648 l 21.05,11.37 c 5.306,2.866 7.977,8.923 6.495,14.735 -8.792,34.614 -26.641,77.757 -50.259,121.482 -9.618,17.804 -19.693,34.771 -29.889,50.414 l -63.077,-34.071 c 7.493,-17.107 16.145,-34.833 25.764,-52.644 2.989,-5.533 5.966,-10.888 8.848,-15.915 2.06,-3.593 0.816,-8.176 -2.776,-10.237 -3.594,-2.06 -8.177,-0.817 -10.237,2.777 -2.944,5.136 -5.982,10.602 -9.032,16.246 -23.829,44.125 -42.024,87.976 -51.234,123.475 -8.617,33.212 -8.543,55.499 0.172,66.484 l -2.007,3.269 c -2.167,3.53 -1.063,8.148 2.468,10.316 1.224,0.751 2.578,1.109 3.917,1.109 2.521,0 4.982,-1.271 6.398,-3.577 l 2.296,-3.739 c 0.888,0.111 1.795,0.171 2.723,0.171 13.731,-10e-4 31.73,-12.189 53.694,-36.404 24.641,-27.166 51.337,-66.425 75.171,-110.545 7.263,-13.447 13.986,-26.852 20.1,-40.002 0.51,7.173 0.93,14.355 1.303,21.541 -0.604,0.904 -1.207,1.805 -1.807,2.702 -25.357,37.918 -40.82,61.879 -39.273,76.062 0.419,3.841 3.669,6.687 7.447,6.687 0.271,0 0.546,-0.015 0.822,-0.045 4.117,-0.449 7.092,-4.151 6.643,-8.269 -0.843,-7.723 12.947,-30.006 27.211,-51.643 1.54,52.35 -0.519,104.869 -6.208,156.889 -0.416,3.712 -1.353,7.267 -2.802,10.602 -5.519,12.89 -17.645,21.503 -31.65,22.48 -60.533,4.251 -122.129,6.257 -183.099,5.941 -10.786,-0.066 -20.854,5.15 -26.924,13.909 -19.433,27.952 -51.537,55.172 -75.046,73.085 -3.944,3.004 -8.953,3.482 -13.396,1.281 -4.452,-2.206 -7.11,-6.491 -7.11,-11.465 v -33.24 c 0,-4.142 -3.357,-7.5 -7.5,-7.5 -4.143,0 -7.5,3.358 -7.5,7.5 v 33.24 c 0,10.641 5.921,20.185 15.452,24.906 3.94,1.952 8.162,2.913 12.356,2.913 5.942,0 11.831,-1.929 16.787,-5.704 24.366,-18.566 57.726,-46.901 78.278,-76.463 3.242,-4.678 8.635,-7.463 14.439,-7.463 h 0.088 c 61.319,0.303 123.316,-1.701 184.22,-5.978 19.64,-1.369 36.65,-13.455 44.377,-31.503 2.029,-4.671 3.354,-9.675 3.937,-14.894 6.521,-59.634 8.346,-119.904 5.495,-179.84 21.179,-31.747 41.838,-63.765 45.397,-85.847 3.51,-21.807 -5.257,-39.547 -24.2,-49.758 z M 336.149,304.89 c -26.566,29.289 -40.869,33.202 -45.133,30.898 -4.264,-2.302 -8.828,-16.41 1.102,-54.684 4.223,-16.278 10.444,-34.43 18.274,-53.594 l 60.572,32.718 c -11.738,17.062 -23.513,32.201 -34.815,44.662 z M 439.074,36.507 c -1.771,-0.956 -3.61,-1.681 -5.479,-2.229 l 8.644,-16 c 0.789,-1.462 2.102,-2.53 3.695,-3.006 1.592,-0.477 3.277,-0.304 4.742,0.487 l 20.453,11.049 c 3.021,1.632 4.151,5.417 2.521,8.438 l -8.643,16 c -1.487,-1.265 -3.105,-2.407 -4.879,-3.366 z m 50.586,65.413 c -2.48,15.384 -16.438,39.144 -32.052,63.207 -0.688,-9.904 -1.504,-19.794 -2.45,-29.667 8.128,-20.001 14.553,-38.953 18.871,-55.951 0.938,-3.682 1.084,-7.405 0.558,-10.989 12.417,7.209 17.486,18.412 15.073,33.4 z"
         id="path28"
         inkscape:connector-curvature="0" />
    </g>
  </g>
</svg>
