<?xml version="1.0" encoding="UTF-8" standalone="no"?>
<svg
   xmlns:dc="http://purl.org/dc/elements/1.1/"
   xmlns:cc="http://creativecommons.org/ns#"
   xmlns:rdf="http://www.w3.org/1999/02/22-rdf-syntax-ns#"
   xmlns:svg="http://www.w3.org/2000/svg"
   xmlns="http://www.w3.org/2000/svg"
   xmlns:sodipodi="http://sodipodi.sourceforge.net/DTD/sodipodi-0.dtd"
   xmlns:inkscape="http://www.inkscape.org/namespaces/inkscape"
   id="Capa_1"
   enable-background="new 0 0 511.996 511.996"
   height="50"
   viewBox="0 0 49.999609 49.999609"
   width="50"
   version="1.1"
   sodipodi:docname="blog.svg"
   inkscape:version="0.92.4 (5da689c313, 2019-01-14)">
  <metadata
     id="metadata39">
    <rdf:RDF>
      <cc:Work
         rdf:about="">
        <dc:format>image/svg+xml</dc:format>
        <dc:type
           rdf:resource="http://purl.org/dc/dcmitype/StillImage" />
        <dc:title></dc:title>
      </cc:Work>
    </rdf:RDF>
  </metadata>
  <defs
     id="defs37" />
  <sodipodi:namedview
     pagecolor="#ffffff"
     bordercolor="#666666"
     borderopacity="1"
     objecttolerance="10"
     gridtolerance="10"
     guidetolerance="10"
     inkscape:pageopacity="0"
     inkscape:pageshadow="2"
     inkscape:window-width="1920"
     inkscape:window-height="1017"
     id="namedview35"
     showgrid="false"
     inkscape:zoom="7.375"
     inkscape:cx="66.654604"
     inkscape:cy="-15.248824"
     inkscape:window-x="-8"
     inkscape:window-y="-8"
     inkscape:window-maximized="1"
     inkscape:current-layer="Capa_1" />
  <path
     d="m 5.1478644,33.913077 c 0.2028017,1.849986 1.7012813,3.295314 3.5582332,3.425269 0.153606,0.01084 0.306181,0.02167 0.458755,0.03148 1.1322674,0.0768 2.0124514,1.017105 2.0124514,2.15221 v 4.290745 c 0,1.44335 1.652086,2.262555 2.800092,1.38822 2.095102,-1.59601 4.882465,-3.969771 6.592605,-6.431172 0.404657,-0.582862 1.07318,-0.922585 1.783073,-0.918629 5.265449,0.02658 10.530898,-0.142769 15.796347,-0.512938 1.467947,-0.102433 2.71443,-1.024932 3.26977,-2.322588 0.147672,-0.340669 0.246148,-0.70886 0.288463,-1.093822 0.779815,-7.123347 0.779815,-14.24764 0,-21.371934 C 41.504852,10.701911 40.005341,9.2634635 38.151399,9.1335085 30.307409,8.5831565 22.464365,8.4728975 14.621321,8.8026435 12.65024,8.8843535 10.678126,8.9946085 8.7070436,9.1335085 6.8521559,9.2635495 5.3516982,10.701997 5.1488964,12.550004 4.3690815,19.671373 4.3690815,26.791796 5.1478664,33.913079 Z"
     id="path2"
     inkscape:connector-curvature="0"
     style="fill:#5f7d95;fill-opacity:1;stroke-width:0.08600583" />
  <path
     d="m 8.5268616,12.54983 c -0.779643,7.121627 -0.779643,14.241706 0,21.363247 0.203232,1.8499 1.7005934,3.294884 3.5584054,3.425097 0.152489,0.01109 0.306439,0.02064 0.458927,0.03174 1.132095,0.0762 2.011849,1.016245 2.011849,2.151608 v 4.290401 c 0,0.29371 0.06829,0.5605 0.187321,0.79392 -0.263608,0.207962 -0.519218,0.406463 -0.766915,0.595418 -1.148005,0.873303 -2.799403,0.05401 -2.799403,-1.389424 v -4.290401 c 0,-1.135363 -0.881302,-2.075321 -2.0133974,-2.151608 -0.152402,-0.01109 -0.304891,-0.02064 -0.458927,-0.03174 -1.8562639,-0.130213 -3.3551736,-1.575197 -3.5568572,-3.425097 -0.7796429,-7.121627 -0.7796429,-14.24162 0,-21.363247 0.2032317,-1.848265 1.7037755,-3.2868845 3.5584052,-3.4170975 1.9705664,-0.138126 3.9426794,-0.249331 5.9148794,-0.330263 3.512392,-0.147672 7.026333,-0.208048 10.538725,-0.17786 -2.386576,0.01746 -4.773152,0.07784 -7.159728,0.17786 -1.970565,0.08093 -3.942679,0.192137 -5.914793,0.330263 -1.85463,0.130299 -3.3551734,1.5689185 -3.5584914,3.4171835 z"
     id="path4"
     inkscape:connector-curvature="0"
     style="fill:#354957;fill-opacity:1;stroke-width:0.08600583" />
  <g
     id="g14"
     style="fill:#354957;fill-opacity:1"
     transform="matrix(0.08600583,0,0,0.08600583,3.3391617,2.170216)">
    <path
       d="m 466.003,65.18 14.244,-26.371 c 3.6,-6.665 1.111,-15.001 -5.554,-18.602 L 454.24,9.159 c -6.675,-3.605 -15.001,-1.111 -18.602,5.554 l -14.244,26.371"
       id="path6"
       inkscape:connector-curvature="0"
       style="fill:#354957;fill-opacity:1" />
    <path
       d="m 471.01,18.218 c -6.674,-3.605 -15.001,-1.111 -18.602,5.554 l -14.244,26.371 -16.771,-9.059 14.244,-26.371 c 3.6,-6.665 11.927,-9.159 18.602,-5.554 z"
       id="path8"
       inkscape:connector-curvature="0"
       style="fill:#354957;fill-opacity:1" />
    <path
       d="m 415.828,200.856 c -48.696,90.153 -106.172,153.527 -128.374,141.534 -22.202,-11.992 -0.716,-94.805 47.98,-184.959 24.691,-45.712 51.645,-84.544 75.101,-110.145 6.376,-6.959 16.675,-8.664 24.979,-4.179 l 21.051,11.371 c 8.304,4.485 12.525,14.034 10.201,23.181 -8.549,33.654 -26.246,77.486 -50.938,123.197 z"
       id="path10"
       inkscape:connector-curvature="0"
       style="fill:#354957;fill-opacity:1" />
    <path
       d="m 287.454,342.391 c -22.202,-11.992 -0.716,-94.805 47.98,-184.959 24.691,-45.712 51.642,-84.541 75.099,-110.15 6.376,-6.953 16.679,-8.657 24.98,-4.173 l 7.628,4.12 c -2.281,-1.232 -7.312,3.32 -12.211,11.071 -18.063,28.523 -41.658,69.164 -66.349,114.877 -48.695,90.152 -83.231,165.916 -77.127,169.214 z"
       id="path12"
       inkscape:connector-curvature="0"
       style="fill:#354957;fill-opacity:1" />
  </g>
  <path
     style="fill:#000000;fill-opacity:1;stroke-width:0.08600583"
     d="M 9.8702726,16.658243 H 24.865906 c 0.356322,0 0.645044,-0.288807 0.645044,-0.645044 0,-0.356236 -0.288722,-0.645043 -0.645044,-0.645043 H 9.8702726 c -0.356322,0 -0.645044,0.288807 -0.645044,0.645043 0,0.356237 0.288808,0.645044 0.645044,0.645044 z"
     id="path18"
     inkscape:connector-curvature="0" />
  <path
     style="fill:#000000;fill-opacity:1;stroke-width:0.08600583"
     d="M 9.8702726,19.897567 H 24.865906 c 0.356322,0 0.645044,-0.288808 0.645044,-0.645044 0,-0.356236 -0.288722,-0.645044 -0.645044,-0.645044 H 9.8702726 c -0.356322,0 -0.645044,0.288808 -0.645044,0.645044 0,0.356236 0.288808,0.645044 0.645044,0.645044 z"
     id="path20"
     inkscape:connector-curvature="0" />
  <path
     style="fill:#000000;fill-opacity:1;stroke-width:0.08600583"
     d="M 9.8702726,23.136804 H 24.865906 c 0.356322,0 0.645044,-0.288807 0.645044,-0.645043 0,-0.356236 -0.288722,-0.645044 -0.645044,-0.645044 H 9.8702726 c -0.356322,0 -0.645044,0.288808 -0.645044,0.645044 0,0.356236 0.288808,0.645043 0.645044,0.645043 z"
     id="path22"
     inkscape:connector-curvature="0" />
  <path
     style="fill:#000000;fill-opacity:1;stroke-width:0.08600583"
     d="M 9.8702726,26.376128 H 24.865906 c 0.356322,0 0.645044,-0.288807 0.645044,-0.645044 0,-0.356236 -0.288722,-0.645043 -0.645044,-0.645043 H 9.8702726 c -0.356322,0 -0.645044,0.288807 -0.645044,0.645043 0,0.356237 0.288808,0.645044 0.645044,0.645044 z"
     id="path24"
     inkscape:connector-curvature="0" />
  <path
     style="fill:#000000;fill-opacity:1;stroke-width:0.08600583"
     d="m 9.8702726,29.615366 h 5.8795314 c 0.356322,0 0.645044,-0.288808 0.645044,-0.645044 0,-0.356236 -0.288722,-0.645044 -0.645044,-0.645044 H 9.8702726 c -0.356322,0 -0.645044,0.288808 -0.645044,0.645044 0,0.356236 0.288808,0.645044 0.645044,0.645044 z"
     id="path26"
     inkscape:connector-curvature="0" />
  <path
     style="fill:#000000;fill-opacity:1;stroke-width:0.08600583"
     d="M 44.645183,6.8616625 45.210844,5.8145412 C 45.689208,4.9288531 45.357742,3.8190339 44.472054,3.3406694 L 42.712976,2.390391 C 42.283721,2.1586053 41.790048,2.1078618 41.322606,2.2475353 40.855422,2.3871228 40.470632,2.70027 40.239019,3.1290951 L 39.142616,5.1588327 C 38.78036,5.2874974 38.445281,5.5029421 38.17161,5.8015543 37.494486,6.5408605 36.789325,7.4003165 36.07582,8.3535195 28.940518,7.9249525 21.715254,7.8587275 14.594831,8.1582865 12.616697,8.2403365 10.620416,8.3520575 8.6621486,8.4904405 6.4917055,8.6413805 4.744067,10.319097 4.5068629,12.479908 3.726446,19.612715 3.7261019,26.847784 4.5060028,33.98429 c 0.2375481,2.164681 1.9850146,3.846095 4.1531358,3.997637 0.155498,0.01135 0.310825,0.02185 0.461937,0.03122 0.421171,0.02847 0.814217,0.23342 1.0779974,0.562393 0.127375,0.158938 0.31461,0.24159 0.503564,0.24159 0.141566,0 0.284078,-0.04644 0.403196,-0.141824 0.277885,-0.222841 0.322522,-0.628874 0.0996,-0.906759 -0.48903,-0.609782 -1.2169834,-0.989755 -2.0010124,-1.042735 -0.149994,-0.0093 -0.300677,-0.01952 -0.453337,-0.03062 C 7.2038336,36.586999 5.9577813,35.387733 5.7884358,33.843843 5.0186836,26.800653 5.0190276,19.660019 5.7892099,12.620527 5.9583833,11.080679 7.2042636,9.8849395 8.7523686,9.7773455 c 1.9466564,-0.137523 3.9302954,-0.248642 5.8963884,-0.33009 6.805212,-0.286313 13.706148,-0.236774 20.531485,0.14621 -0.431234,0.6175225 -0.862639,1.2642865 -1.289916,1.9362495 -0.191191,0.300591 -0.102347,0.699228 0.198243,0.890419 0.300591,0.191019 0.699228,0.102433 0.890505,-0.198158 1.394412,-2.192804 2.827356,-4.1115955 4.143761,-5.5488385 0.348582,-0.380232 0.910372,-0.4738922 1.366375,-0.227744 l 1.810422,0.977887 c 0.456347,0.246493 0.686069,0.76743 0.558608,1.267296 -0.756163,2.9770065 -2.291281,6.6875555 -4.322567,10.4481605 -0.827204,1.531248 -1.693713,2.990509 -2.570628,4.335898 l -5.42499,-2.930304 c 0.644442,-1.471302 1.388564,-2.995842 2.215854,-4.527691 0.257072,-0.475871 0.513111,-0.936432 0.76098,-1.368783 0.177172,-0.309019 0.07018,-0.703184 -0.238752,-0.880442 -0.309105,-0.177172 -0.70327,-0.07027 -0.880442,0.238838 -0.253201,0.441726 -0.514487,0.911834 -0.776805,1.397251 -2.049433,3.795007 -3.614309,7.566449 -4.406423,10.61957 -0.741112,2.856426 -0.734748,4.773238 0.01479,5.718012 l -0.172613,0.281153 c -0.186375,0.303601 -0.09142,0.700776 0.212262,0.887236 0.105271,0.06459 0.221723,0.09538 0.336885,0.09538 0.216821,0 0.428481,-0.109314 0.550265,-0.307643 l 0.19747,-0.321576 c 0.07637,0.0095 0.15438,0.01471 0.234193,0.01471 1.180947,-8.6e-5 2.728965,-1.048325 4.617998,-3.130956 2.119269,-2.336435 4.415281,-5.712938 6.465144,-9.507515 0.62466,-1.156521 1.202878,-2.309429 1.728717,-3.440405 0.04386,0.616919 0.07999,1.234613 0.112066,1.852651 -0.05195,0.07775 -0.103809,0.155241 -0.155413,0.232388 -2.18085,3.261169 -3.510758,5.321955 -3.377707,6.541776 0.03604,0.330348 0.315556,0.575121 0.640486,0.575121 0.02331,0 0.04696,-0.0013 0.0707,-0.0039 0.354086,-0.03862 0.609953,-0.35701 0.571336,-0.711182 -0.0725,-0.664223 1.113518,-2.580691 2.340305,-4.441599 0.132449,4.502405 -0.04464,9.019346 -0.533924,13.493369 -0.03578,0.319254 -0.116366,0.625004 -0.240989,0.911834 -0.474666,1.108615 -1.517572,1.849383 -2.722084,1.933411 -5.206191,0.365611 -10.503807,0.538139 -15.747582,0.510961 -0.927659,-0.0057 -1.793566,0.44293 -2.315621,1.196255 -1.671352,2.404035 -4.432483,4.745114 -6.454394,6.285736 -0.339207,0.258362 -0.77001,0.299472 -1.152134,0.110174 -0.382898,-0.189729 -0.611502,-0.558264 -0.611502,-0.986057 v -2.858834 c 0,-0.356236 -0.288721,-0.645044 -0.645043,-0.645044 -0.356322,0 -0.645044,0.288808 -0.645044,0.645044 v 2.858834 c 0,0.915188 0.509241,1.736027 1.328962,2.142061 0.338863,0.167883 0.70198,0.250535 1.062688,0.250535 0.511047,0 1.017535,-0.165905 1.44378,-0.490577 2.095618,-1.596785 4.964773,-4.03376 6.732365,-6.576264 0.278831,-0.402336 0.74266,-0.641862 1.241838,-0.641862 h 0.0076 c 5.273792,0.02606 10.605896,-0.146296 15.843995,-0.514143 1.689154,-0.117742 3.152114,-1.157208 3.816681,-2.709441 0.174506,-0.401734 0.288463,-0.832107 0.338605,-1.280971 0.560844,-5.128872 0.717804,-10.312444 0.472602,-15.467289 1.821517,-2.730428 3.598312,-5.484162 3.904407,-7.383343 0.30188,-1.8755295 -0.452133,-3.4012735 -2.081342,-4.2794785 z M 32.249937,28.392535 c -2.284831,2.519025 -3.514973,2.855566 -3.881701,2.657408 -0.366729,-0.197985 -0.75926,-1.411356 0.09478,-4.703143 0.363203,-1.400003 0.898245,-2.961181 1.571671,-4.609396 l 5.209545,2.813938 c -1.009537,1.467432 -2.022255,2.769474 -2.994293,3.841193 z M 41.102087,5.310031 C 40.949771,5.2278094 40.791606,5.1654552 40.630861,5.118324 l 0.743435,-1.3760933 c 0.06786,-0.1257406 0.180784,-0.2175948 0.317791,-0.2585336 0.136921,-0.041025 0.281841,-0.026146 0.40784,0.041885 l 1.759077,0.9502784 c 0.259824,0.1403615 0.35701,0.4658936 0.216821,0.7257172 l -0.743349,1.3760928 c -0.12789,-0.108797 -0.267048,-0.207016 -0.419622,-0.289495 z m 4.350691,5.6259 c -0.213294,1.323114 -1.413764,3.366612 -2.756659,5.436171 -0.05917,-0.851802 -0.129353,-1.7024 -0.210714,-2.551535 0.699055,-1.720203 1.251643,-3.350186 1.623016,-4.8121135 0.08067,-0.316673 0.09323,-0.636873 0.04799,-0.945118 1.067935,0.620016 1.503898,1.58354 1.296366,2.8725955 z"
     id="path28"
     inkscape:connector-curvature="0" />
</svg>
