<?xml version="1.0" encoding="UTF-8" standalone="no"?>
<!-- Generator: Adobe Illustrator 19.0.0, SVG Export Plug-In . SVG Version: 6.00 Build 0)  -->

<svg
   xmlns:dc="http://purl.org/dc/elements/1.1/"
   xmlns:cc="http://creativecommons.org/ns#"
   xmlns:rdf="http://www.w3.org/1999/02/22-rdf-syntax-ns#"
   xmlns:svg="http://www.w3.org/2000/svg"
   xmlns="http://www.w3.org/2000/svg"
   xmlns:sodipodi="http://sodipodi.sourceforge.net/DTD/sodipodi-0.dtd"
   xmlns:inkscape="http://www.inkscape.org/namespaces/inkscape"
   version="1.1"
   id="Capa_1"
   x="0px"
   y="0px"
   viewBox="0 0 50 50"
   xml:space="preserve"
   sodipodi:docname="css.svg"
   width="50"
   height="50"
   inkscape:version="0.92.4 (5da689c313, 2019-01-14)"><metadata
   id="metadata53"><rdf:RDF><cc:Work
       rdf:about=""><dc:format>image/svg+xml</dc:format><dc:type
         rdf:resource="http://purl.org/dc/dcmitype/StillImage" /><dc:title></dc:title></cc:Work></rdf:RDF></metadata><defs
   id="defs51" /><sodipodi:namedview
   pagecolor="#ffffff"
   bordercolor="#666666"
   borderopacity="1"
   objecttolerance="10"
   gridtolerance="10"
   guidetolerance="10"
   inkscape:pageopacity="0"
   inkscape:pageshadow="2"
   inkscape:window-width="1920"
   inkscape:window-height="1017"
   id="namedview49"
   showgrid="false"
   inkscape:zoom="3.6875"
   inkscape:cx="102.62421"
   inkscape:cy="59.628283"
   inkscape:window-x="-8"
   inkscape:window-y="-8"
   inkscape:window-maximized="1"
   inkscape:current-layer="Capa_1" />
<path
   style="fill:#f2f2f2;stroke-width:0.09427966"
   d="m 49.355932,23.966102 c 0,7.760819 -3.663707,14.666521 -9.355747,19.081921 -4.083347,3.168173 -9.210935,5.053672 -14.779846,5.053672 -5.568911,0 -10.696499,-1.885499 -14.779845,-5.053672 -5.6920405,-4.4154 -9.3557482,-11.321102 -9.3557482,-19.081921 0,-13.32973 10.8058632,-24.13559349 24.1355932,-24.13559349 13.32973,0 24.135593,10.80586349 24.135593,24.13559349 z"
   id="path2"
   inkscape:connector-curvature="0" />
<path
   style="fill:#006bc0;stroke-width:0.09427966"
   d="m 42.755602,11.094477 -2.755417,31.953546 c -4.083347,3.168173 -9.210935,5.053672 -14.779846,5.053672 -5.568911,0 -10.696499,-1.885499 -14.779845,-5.053672 L 7.6850763,11.094477 Z"
   id="path4"
   inkscape:connector-curvature="0" />
<polygon
   style="fill:#0096dc"
   points="405.545,151.338 255.997,151.338 255.997,505.296 378.269,470.777 "
   id="polygon6"
   transform="matrix(0.09427966,0,0,0.09427966,1.0847458,-0.16949149)" />
<polygon
   style="fill:#ffffff"
   points="147.845,288.484 152.002,337.723 152.002,337.723 311.376,337.723 306.152,396.366 255.997,409.95 203.752,395.321 202.446,358.75 153.778,358.75 159.866,430.848 255.997,458.015 352.127,430.848 364.039,289.779 364.036,289.787 275.85,289.787 367.999,242.89 371.981,195.746 140.013,195.746 144.072,243.811 237.189,243.811 "
   id="polygon8"
   transform="matrix(0.09427966,0,0,0.09427966,1.0847458,-0.16949149)" />
<g
   id="g16"
   transform="matrix(0.09427966,0,0,0.09427966,1.0847458,-0.16949149)">
	<polygon
   style="fill:#222123"
   points="213.417,67.224 165.352,67.224 165.352,33.787 213.417,33.787 213.417,15.676 147.937,15.676 147.937,85.335 213.417,85.335 "
   id="polygon10" />
	<polygon
   style="fill:#222123"
   points="270.799,58.864 270.799,67.224 223.866,67.224 223.866,85.335 289.347,85.335 289.347,67.224 289.347,42.93 241.542,42.93 241.542,34.57 289.347,34.57 289.347,33.787 289.347,15.676 223.866,15.676 223.866,58.864 "
   id="polygon12" />
	<polygon
   style="fill:#222123"
   points="345.509,58.864 345.509,67.224 298.576,67.224 298.576,85.335 364.056,85.335 364.056,67.224 364.056,42.93 316.252,42.93 316.252,34.57 364.056,34.57 364.056,33.787 364.056,15.676 298.576,15.676 298.576,58.864 "
   id="polygon14" />
</g>
<g
   id="g18"
   transform="translate(0,-462)">
</g>
<g
   id="g20"
   transform="translate(0,-462)">
</g>
<g
   id="g22"
   transform="translate(0,-462)">
</g>
<g
   id="g24"
   transform="translate(0,-462)">
</g>
<g
   id="g26"
   transform="translate(0,-462)">
</g>
<g
   id="g28"
   transform="translate(0,-462)">
</g>
<g
   id="g30"
   transform="translate(0,-462)">
</g>
<g
   id="g32"
   transform="translate(0,-462)">
</g>
<g
   id="g34"
   transform="translate(0,-462)">
</g>
<g
   id="g36"
   transform="translate(0,-462)">
</g>
<g
   id="g38"
   transform="translate(0,-462)">
</g>
<g
   id="g40"
   transform="translate(0,-462)">
</g>
<g
   id="g42"
   transform="translate(0,-462)">
</g>
<g
   id="g44"
   transform="translate(0,-462)">
</g>
<g
   id="g46"
   transform="translate(0,-462)">
</g>
</svg>