<?xml version="1.0" encoding="UTF-8" standalone="no"?>
<svg
   xmlns:dc="http://purl.org/dc/elements/1.1/"
   xmlns:cc="http://creativecommons.org/ns#"
   xmlns:rdf="http://www.w3.org/1999/02/22-rdf-syntax-ns#"
   xmlns:svg="http://www.w3.org/2000/svg"
   xmlns="http://www.w3.org/2000/svg"
   xmlns:sodipodi="http://sodipodi.sourceforge.net/DTD/sodipodi-0.dtd"
   xmlns:inkscape="http://www.inkscape.org/namespaces/inkscape"
   height="50"
   viewBox="0 0 6.25 6.25"
   width="50"
   version="1.1"
   id="svg59"
   sodipodi:docname="database.svg"
   inkscape:version="0.92.4 (5da689c313, 2019-01-14)">
  <metadata
     id="metadata65">
    <rdf:RDF>
      <cc:Work
         rdf:about="">
        <dc:format>image/svg+xml</dc:format>
        <dc:type
           rdf:resource="http://purl.org/dc/dcmitype/StillImage" />
        <dc:title></dc:title>
      </cc:Work>
    </rdf:RDF>
  </metadata>
  <defs
     id="defs63" />
  <sodipodi:namedview
     pagecolor="#ffffff"
     bordercolor="#666666"
     borderopacity="1"
     objecttolerance="10"
     gridtolerance="10"
     guidetolerance="10"
     inkscape:pageopacity="0"
     inkscape:pageshadow="2"
     inkscape:window-width="1920"
     inkscape:window-height="1017"
     id="namedview61"
     showgrid="false"
     inkscape:zoom="5.2149125"
     inkscape:cx="104.75666"
     inkscape:cy="54.398885"
     inkscape:window-x="-8"
     inkscape:window-y="-8"
     inkscape:window-maximized="1"
     inkscape:current-layer="svg59" />
  <g
     id="Server-6"
     data-name="Server"
     transform="matrix(0.09449426,0,0,0.09449426,0.22900984,-0.02664229)">
    <path
       d="m 21,42 a 3,3 0 1 0 -3,-3 3,3 0 0 0 3,3 z m 0,-4 a 1,1 0 1 1 -1,1 1,1 0 0 1 1,-1 z"
       id="path2"
       inkscape:connector-curvature="0" />
    <path
       d="m 29,42 a 3,3 0 1 0 -3,-3 3,3 0 0 0 3,3 z m 0,-4 a 1,1 0 1 1 -1,1 1,1 0 0 1 1,-1 z"
       id="path4"
       inkscape:connector-curvature="0" />
    <path
       d="m 37,42 a 3,3 0 1 0 -3,-3 3,3 0 0 0 3,3 z m 0,-4 a 1,1 0 1 1 -1,1 1,1 0 0 1 1,-1 z"
       id="path6"
       inkscape:connector-curvature="0" />
    <path
       d="m 43,38 h 2 a 1,1 0 0 0 0,-2 h -2 a 1,1 0 0 0 0,2 z"
       id="path8"
       inkscape:connector-curvature="0" />
    <path
       d="m 43,42 h 2 a 1,1 0 0 0 0,-2 h -2 a 1,1 0 0 0 0,2 z"
       id="path10"
       inkscape:connector-curvature="0" />
    <path
       d="m 49,38 h 2 a 1,1 0 0 0 0,-2 h -2 a 1,1 0 0 0 0,2 z"
       id="path12"
       inkscape:connector-curvature="0" />
    <path
       d="m 49,42 h 2 a 1,1 0 0 0 0,-2 h -2 a 1,1 0 0 0 0,2 z"
       id="path14"
       inkscape:connector-curvature="0" />
    <path
       d="m 55,38 h 2 a 1,1 0 0 0 0,-2 h -2 a 1,1 0 0 0 0,2 z"
       id="path16"
       inkscape:connector-curvature="0" />
    <path
       d="m 55,42 h 2 a 1,1 0 0 0 0,-2 h -2 a 1,1 0 0 0 0,2 z"
       id="path18"
       inkscape:connector-curvature="0" />
    <path
       d="m 21,58 a 3,3 0 1 0 -3,-3 3,3 0 0 0 3,3 z m 0,-4 a 1,1 0 1 1 -1,1 1,1 0 0 1 1,-1 z"
       id="path20"
       inkscape:connector-curvature="0" />
    <path
       d="m 29,58 a 3,3 0 1 0 -3,-3 3,3 0 0 0 3,3 z m 0,-4 a 1,1 0 1 1 -1,1 1,1 0 0 1 1,-1 z"
       id="path22"
       inkscape:connector-curvature="0" />
    <path
       d="m 37,58 a 3,3 0 1 0 -3,-3 3,3 0 0 0 3,3 z m 0,-4 a 1,1 0 1 1 -1,1 1,1 0 0 1 1,-1 z"
       id="path24"
       inkscape:connector-curvature="0" />
    <path
       d="m 43,54 h 2 a 1,1 0 0 0 0,-2 h -2 a 1,1 0 0 0 0,2 z"
       id="path26"
       inkscape:connector-curvature="0" />
    <path
       d="m 43,58 h 2 a 1,1 0 0 0 0,-2 h -2 a 1,1 0 0 0 0,2 z"
       id="path28"
       inkscape:connector-curvature="0" />
    <path
       d="m 49,54 h 2 a 1,1 0 0 0 0,-2 h -2 a 1,1 0 0 0 0,2 z"
       id="path30"
       inkscape:connector-curvature="0" />
    <path
       d="m 49,58 h 2 a 1,1 0 0 0 0,-2 h -2 a 1,1 0 0 0 0,2 z"
       id="path32"
       inkscape:connector-curvature="0" />
    <path
       d="m 55,54 h 2 a 1,1 0 0 0 0,-2 h -2 a 1,1 0 0 0 0,2 z"
       id="path34"
       inkscape:connector-curvature="0" />
    <path
       d="m 55,58 h 2 a 1,1 0 0 0 0,-2 h -2 a 1,1 0 0 0 0,2 z"
       id="path36"
       inkscape:connector-curvature="0" />
    <path
       d="m 21,26 a 3,3 0 1 0 -3,-3 3,3 0 0 0 3,3 z m 0,-4 a 1,1 0 1 1 -1,1 1,1 0 0 1 1,-1 z"
       id="path38"
       inkscape:connector-curvature="0" />
    <path
       d="m 29,26 a 3,3 0 1 0 -3,-3 3,3 0 0 0 3,3 z m 0,-4 a 1,1 0 1 1 -1,1 1,1 0 0 1 1,-1 z"
       id="path40"
       inkscape:connector-curvature="0" />
    <path
       d="m 37,26 a 3,3 0 1 0 -3,-3 3,3 0 0 0 3,3 z m 0,-4 a 1,1 0 1 1 -1,1 1,1 0 0 1 1,-1 z"
       id="path42"
       inkscape:connector-curvature="0" />
    <path
       d="m 61,30 a 1,1 0 0 0 1,-1 V 17 A 1,1 0 0 0 61,16 H 48 V 13 A 3,3 0 0 0 45,10 H 44 V 7 A 3,3 0 0 0 41,4 H 23.816 A 3,3 0 0 0 21,2 H 5 A 3,3 0 0 0 2,5 v 40 a 1,1 0 0 0 1,1 h 16 v 2 h -4 a 1,1 0 0 0 -1,1 v 12 a 1,1 0 0 0 1,1 h 46 a 1,1 0 0 0 1,-1 V 49 a 1,1 0 0 0 -1,-1 h -4 v -2 h 4 a 1,1 0 0 0 1,-1 V 33 A 1,1 0 0 0 61,32 H 57 V 30 Z M 60,28 H 16 V 18 H 60 Z M 42,7 v 3 H 25 A 1,1 0 0 1 24,9 V 6 h 17 a 1,1 0 0 1 1,1 z M 14,33 V 44 H 4 V 5 A 1,1 0 0 1 5,4 h 16 a 1,1 0 0 1 1,1 v 4 a 3,3 0 0 0 3,3 h 20 a 1,1 0 0 1 1,1 v 3 H 15 a 1,1 0 0 0 -1,1 v 12 a 1,1 0 0 0 1,1 h 4 v 2 h -4 a 1,1 0 0 0 -1,1 z M 60,60 H 16 V 50 H 60 Z M 55,48 H 21 v -2 h 34 z m 5,-4 H 16 V 34 H 60 Z M 55,32 H 21 v -2 h 34 z"
       id="path44"
       inkscape:connector-curvature="0" />
    <path
       d="m 43,22 h 2 a 1,1 0 0 0 0,-2 h -2 a 1,1 0 0 0 0,2 z"
       id="path46"
       inkscape:connector-curvature="0" />
    <path
       d="m 43,26 h 2 a 1,1 0 0 0 0,-2 h -2 a 1,1 0 0 0 0,2 z"
       id="path48"
       inkscape:connector-curvature="0" />
    <path
       d="m 49,22 h 2 a 1,1 0 0 0 0,-2 h -2 a 1,1 0 0 0 0,2 z"
       id="path50"
       inkscape:connector-curvature="0" />
    <path
       d="m 49,26 h 2 a 1,1 0 0 0 0,-2 h -2 a 1,1 0 0 0 0,2 z"
       id="path52"
       inkscape:connector-curvature="0" />
    <path
       d="m 55,22 h 2 a 1,1 0 0 0 0,-2 h -2 a 1,1 0 0 0 0,2 z"
       id="path54"
       inkscape:connector-curvature="0" />
    <path
       d="m 55,26 h 2 a 1,1 0 0 0 0,-2 h -2 a 1,1 0 0 0 0,2 z"
       id="path56"
       inkscape:connector-curvature="0" />
  </g>
</svg>
