<?xml version="1.0" encoding="UTF-8" standalone="no"?>
<svg
   xmlns:dc="http://purl.org/dc/elements/1.1/"
   xmlns:cc="http://creativecommons.org/ns#"
   xmlns:rdf="http://www.w3.org/1999/02/22-rdf-syntax-ns#"
   xmlns:svg="http://www.w3.org/2000/svg"
   xmlns="http://www.w3.org/2000/svg"
   xmlns:sodipodi="http://sodipodi.sourceforge.net/DTD/sodipodi-0.dtd"
   xmlns:inkscape="http://www.inkscape.org/namespaces/inkscape"
   height="45"
   viewBox="-42 0 45 45"
   width="45"
   class=""
   version="1.1"
   id="svg46"
   sodipodi:docname="education-selected.svg"
   inkscape:version="0.92.4 (5da689c313, 2019-01-14)">
  <metadata
     id="metadata52">
    <rdf:RDF>
      <cc:Work
         rdf:about="">
        <dc:format>image/svg+xml</dc:format>
        <dc:type
           rdf:resource="http://purl.org/dc/dcmitype/StillImage" />
        <dc:title></dc:title>
      </cc:Work>
    </rdf:RDF>
  </metadata>
  <defs
     id="defs50" />
  <sodipodi:namedview
     pagecolor="#ffffff"
     bordercolor="#666666"
     borderopacity="1"
     objecttolerance="10"
     gridtolerance="10"
     guidetolerance="10"
     inkscape:pageopacity="0"
     inkscape:pageshadow="2"
     inkscape:window-width="1920"
     inkscape:window-height="1017"
     id="namedview48"
     showgrid="false"
     inkscape:zoom="10.429825"
     inkscape:cx="44.281586"
     inkscape:cy="23.936738"
     inkscape:window-x="-8"
     inkscape:window-y="-8"
     inkscape:window-maximized="1"
     inkscape:current-layer="svg46" />
  <g
     id="g44"
     transform="matrix(0.08376173,0,0,0.08376173,-37.105129,0.96345044)">
    <path
       d="M 152.99219,337.80078 66.738281,361.75781 C 31.773438,371.47266 7.574219,403.30859 7.574219,439.60156 v 64.82422 H 419.59766 v -64.82422 c 0,-36.29297 -24.19922,-68.1289 -59.16407,-77.84375 l -86.2539,-23.95703 z m 0,0"
       data-original="#DDF5FF"
       class=""
       id="path2"
       inkscape:connector-curvature="0"
       style="fill:#ddf5ff" />
    <path
       d="m 232.77344,410.50781 12.11718,60.59375 -31.30468,33.32422 -31.30469,-33.32422 12.11719,-60.59375 z m 0,0"
       data-original="#FF6969"
       id="path4"
       inkscape:connector-curvature="0"
       style="fill:#ff6969" />
    <path
       d="m 244.89062,471.10156 -12.11718,-60.59375 h -19.1875 l 15.36718,77.5625 c 7.96485,-8.48047 15.9375,-16.96875 15.9375,-16.96875 z m 0,0"
       data-original="#EA4747"
       id="path6"
       inkscape:connector-curvature="0"
       style="fill:#ea4747" />
    <path
       d="m 360.43359,361.75781 -56.99609,-15.83203 -30.26953,95.88672 -59.58203,62.61328 h 206.01172 v -64.82422 c 0,-36.29297 -24.19922,-68.1289 -59.16407,-77.84375 z m 0,0"
       data-original="#636363"
       class=""
       style="fill:#194c80"
       data-old_color="#636363"
       id="path8"
       inkscape:connector-curvature="0" />
    <path
       d="m 360.43359,361.75781 -6.53515,-1.8164 c 17.55469,15 28.33594,37.21875 28.33594,61.43359 v 83.05078 h 37.36328 v -64.82422 c 0,-36.29297 -24.19922,-68.1289 -59.16407,-77.84375 z m 0,0"
       data-original="#494949"
       class=""
       data-old_color="#494949"
       style="fill:#0e2a47"
       id="path10"
       inkscape:connector-curvature="0" />
    <path
       d="m 66.738281,361.75781 56.996099,-15.83203 30.26953,95.88672 59.58203,62.61328 H 7.574219 v -64.82422 c 0,-36.29297 24.199219,-68.1289 59.164062,-77.84375 z m 0,0"
       data-original="#636363"
       class=""
       style="fill:#194c80"
       data-old_color="#636363"
       id="path12"
       inkscape:connector-curvature="0" />
    <path
       d="m 249.94141,312.55078 -36.35547,36.35547 -36.35547,-36.35547 v -57.5625 h 72.71094 z m 0,0"
       data-original="#F9B3A7"
       class=""
       id="path14"
       inkscape:connector-curvature="0"
       style="fill:#f9b3a7" />
    <path
       d="m 308.51172,111.58984 h 26.25781 v 40.39453 h -26.25781 z m 0,0"
       data-original="#FFD664"
       class="active-path"
       style="fill:#754100"
       data-old_color="#ffd664"
       id="path16"
       inkscape:connector-curvature="0" />
    <path
       d="M 334.76953,111.58984 V 7.574219 H 92.402344 V 111.58984 Z m 0,0"
       data-original="#636363"
       class=""
       style="fill:#194c80"
       data-old_color="#636363"
       id="path18"
       inkscape:connector-curvature="0" />
    <path
       d="m 315.58203,7.574219 v 63.621093 c 0,11.15625 -9.04297,20.195313 -20.19531,20.195313 H 92.402344 V 111.58984 H 334.76953 V 7.574219 Z m 0,0"
       data-original="#494949"
       class=""
       data-old_color="#494949"
       style="fill:#0e2a47"
       id="path20"
       inkscape:connector-curvature="0" />
    <path
       d="m 92.402344,111.58984 h 26.257816 v 40.39453 H 92.402344 Z m 0,0"
       data-original="#FFD664"
       class="active-path"
       style="fill:#754100"
       data-old_color="#ffd664"
       id="path22"
       inkscape:connector-curvature="0" />
    <path
       d="m 213.58594,111.58984 h -94.92578 v 72.71094 c 0,52.42578 42.5,94.92578 94.92578,94.92578 52.42578,0 94.92578,-42.5 94.92578,-94.92578 v -72.71094 z m 0,0"
       data-original="#FECCC1"
       class=""
       id="path24"
       inkscape:connector-curvature="0"
       style="fill:#feccc1" />
    <path
       d="m 280.23828,111.58984 v 72.71094 c 0,47.62109 -35.07031,87.05078 -80.78906,93.87891 4.61328,0.6875 9.33203,1.04687 14.13672,1.04687 52.42578,0 94.92578,-42.5 94.92578,-94.92578 v -72.71094 z m 0,0"
       data-original="#F9B3A7"
       class=""
       id="path26"
       inkscape:connector-curvature="0"
       style="fill:#f9b3a7" />
    <path
       d="m 103.51172,199.44922 h 20.19531 v -54.53516 h -20.19531 c -11.156251,0 -20.19922,9.04297 -20.19922,20.19922 V 179.25 c 0,11.15625 9.042969,20.19922 20.19922,20.19922 z m 0,0"
       data-original="#FECCC1"
       class=""
       id="path28"
       inkscape:connector-curvature="0"
       style="fill:#feccc1" />
    <path
       d="m 323.66016,199.44922 h -20.19532 v -54.53516 h 20.19532 c 11.15625,0 20.19921,9.04297 20.19921,20.19922 V 179.25 c 0,11.15625 -9.04296,20.19922 -20.19921,20.19922 z m 0,0"
       data-original="#F9B3A7"
       class=""
       id="path30"
       inkscape:connector-curvature="0"
       style="fill:#f9b3a7" />
    <path
       d="m 402.42969,113.60938 c 0,10.03906 -8.13672,18.17578 -18.17578,18.17578 -10.03907,0 -18.17969,-8.13672 -18.17969,-18.17578 0,-10.03907 8.14062,-18.179692 18.17969,-18.179692 10.03906,0 18.17578,8.140622 18.17578,18.179692 z m 0,0"
       data-original="#FFD664"
       class="active-path"
       style="fill:#754100"
       data-old_color="#ffd664"
       id="path32"
       inkscape:connector-curvature="0" />
    <path
       d="m 213.58594,410.50781 h 19.1875 l 19.6914,-22.72265 -38.8789,-38.87891 -38.87891,38.87891 19.69141,22.72265 z m 0,0"
       data-original="#FF6969"
       id="path34"
       inkscape:connector-curvature="0"
       style="fill:#ff6969" />
    <path
       d="m 213.58594,348.90625 -11.86719,11.86719 20.36719,20.36328 c 3.74609,3.74609 3.96093,9.7539 0.48828,13.75781 l -13.53125,15.61328 h 23.73047 l 19.6914,-22.72265 z m 0,0"
       data-original="#EA4747"
       id="path36"
       inkscape:connector-curvature="0"
       style="fill:#ea4747" />
    <path
       d="m 174.70703,387.78516 38.87891,-38.87891 -36.35547,-36.35547 -24.74219,24.74219 z m 0,0"
       data-original="#C1E9F4"
       class=""
       id="path38"
       inkscape:connector-curvature="0"
       style="fill:#c1e9f4" />
    <path
       d="m 252.46484,387.78516 -38.8789,-38.87891 36.35547,-36.35547 24.74218,24.74219 z m 0,0"
       data-original="#C1E9F4"
       class=""
       id="path40"
       inkscape:connector-curvature="0"
       style="fill:#c1e9f4" />
    <path
       d="m 419.59766,451.91406 c 4.18359,0 7.57421,-3.39062 7.57421,-7.57422 v -4.73828 c 0,-39.55078 -26.61328,-74.5625 -64.71484,-85.13672 l -82.93359,-23.04297 -22.00781,-22.00781 v -32.51953 c 27.98046,-13.32812 49.00781,-38.96875 56.03125,-69.875 h 10.11328 c 15.3125,0 27.77343,-12.45703 27.77343,-27.76953 v -14.14062 c 0,-8.125 -3.50781,-15.44532 -9.08984,-20.52735 V 15.148438 h 34.33594 V 88.996094 C 366.16406,92.238281 358.5,102.04688 358.5,113.60938 c 0,11.5625 7.66406,21.37109 18.17969,24.61328 v 18.80859 c 0,4.18359 3.39062,7.57422 7.57422,7.57422 4.17968,0 7.57031,-3.39063 7.57031,-7.57422 v -18.80859 c 10.51562,-3.24219 18.17969,-13.05078 18.17969,-24.61328 0,-11.5625 -7.66407,-21.371099 -18.17969,-24.613286 V 15.148438 h 7.57422 c 4.18359,0 7.57422,-3.390626 7.57422,-7.574219 C 406.97266,3.390625 403.58594,0 399.40234,0 H 27.769531 c -4.179687,0 -7.574219,3.390625 -7.574219,7.574219 0,4.183593 3.394532,7.574219 7.574219,7.574219 h 57.058594 v 15.191406 c 0,4.179687 3.390625,7.570312 7.574219,7.570312 4.183594,0 7.574218,-3.390625 7.574218,-7.570312 V 15.148438 H 327.19531 V 104.01563 H 99.976562 V 65.703125 c 0,-4.183594 -3.390624,-7.574219 -7.574218,-7.574219 -4.183594,0 -7.574219,3.390625 -7.574219,7.574219 v 78.878905 c -5.582031,5.08203 -9.089844,12.40625 -9.089844,20.53125 V 179.25 c 0,15.3125 12.460938,27.77344 27.773439,27.77344 h 10.11719 c 7.01953,30.90625 28.04687,56.54687 56.02734,69.875 v 32.51562 l -22.00781,22.01172 -82.933596,23.03906 C 26.613281,365.03906 0,400.05078 0,439.60547 v 4.73437 c 0,4.1836 3.390625,7.57422 7.574219,7.57422 4.183593,0 7.574219,-3.39062 7.574219,-7.57422 v -4.73437 c 0,-32.77344 22.046874,-61.78125 53.621093,-70.54297 l 49.945309,-13.875 28.06641,88.91016 c 0.34766,1.09765 0.94141,2.10547 1.73437,2.9414 l 47.40625,49.81641 H 91.898438 v -23.73438 c 0,-4.18359 -3.390626,-7.57422 -7.574219,-7.57422 -4.183594,0 -7.574219,3.39063 -7.574219,7.57422 v 23.73047 H 15.148438 v -17.23047 c 0,-4.18359 -3.390626,-7.57422 -7.574219,-7.57422 C 3.390625,472.04687 0,475.4375 0,479.62109 v 24.80469 C 0,508.60937 3.390625,512 7.574219,512 H 419.59766 c 4.18359,0 7.57421,-3.39063 7.57421,-7.57422 v -24.80469 c 0,-4.18359 -3.39062,-7.57422 -7.57421,-7.57422 -4.1836,0 -7.57422,3.39063 -7.57422,7.57422 v 17.23047 h -61.60157 v -23.73047 c 0,-4.18359 -3.39062,-7.57422 -7.57421,-7.57422 -4.1836,0 -7.57422,3.39063 -7.57422,7.57422 v 23.73047 H 231.25 l 47.40625,-49.8164 c 0.79297,-0.83594 1.38672,-1.83985 1.73437,-2.94141 l 28.06641,-88.91016 49.94922,13.87891 c 31.57031,8.75781 53.61719,37.76562 53.61719,70.53906 v 4.73828 c 0,4.1836 3.39062,7.57422 7.57422,7.57422 z M 384.25391,124.21484 c -5.84766,0 -10.60547,-4.75781 -10.60547,-10.60546 0,-5.84766 4.75781,-10.60547 10.60547,-10.60547 5.84765,0 10.60156,4.75781 10.60156,10.60547 0,5.84765 -4.75781,10.60546 -10.60156,10.60546 z M 200.60937,418.08203 h 25.95313 l 10.20312,51 -23.17968,24.35547 -23.17969,-24.35547 z m 28.70704,-15.14844 h -31.46094 l -12.8086,-14.77734 28.53907,-28.53906 28.53515,28.53906 z m 20.67578,-28.33203 -25.69532,-25.69531 25.64454,-25.64063 15.72265,15.71875 z M 336.28516,179.25 c 0,6.96094 -5.66407,12.62109 -12.625,12.62109 h -7.57422 v -39.38281 h 7.57422 c 6.96093,0 12.625,5.66406 12.625,12.625 z m -9.08985,-41.67578 c -1.16015,-0.14844 -2.33594,-0.23438 -3.53515,-0.23438 h -7.57422 v -18.17578 h 11.10937 z M 99.976562,119.16406 h 11.109378 v 18.17969 h -7.57422 c -1.19922,0 -2.375,0.082 -3.535158,0.23047 z M 111.08594,191.875 h -7.57422 c -6.960939,0 -12.625001,-5.66406 -12.625001,-12.625 v -14.13672 c 0,-6.96094 5.664062,-12.625 12.625001,-12.625 h 7.57422 z m 15.14843,-7.57422 V 119.16406 H 300.9375 v 65.13672 c 0,48.16797 -39.18359,87.35156 -87.35156,87.35156 -48.16797,0 -87.35157,-39.1875 -87.35157,-87.35156 z m 87.35157,102.5 c 9.98828,0 19.64453,-1.4414 28.78125,-4.11719 v 26.73047 l -28.78125,28.78125 -28.78125,-28.78125 v -26.73437 c 9.13672,2.67968 18.79297,4.12109 28.78125,4.12109 z m -36.35547,36.46094 25.64453,25.64453 -25.69531,25.69531 -15.67188,-35.61719 z m -43.91016,27.86328 15.12891,-4.20313 19.30078,43.86329 c 0.12109,0.27734 0.26172,0.55078 0.41797,0.8164 0.0391,0.0703 0.0859,0.13672 0.1289,0.20703 0.10547,0.16797 0.21875,0.33203 0.33985,0.4961 0.0625,0.0859 0.1289,0.16797 0.19531,0.25 0.0508,0.0625 0.0977,0.1289 0.15234,0.1914 l 17.25782,19.91797 -8.59766,43.00391 -16.94531,-17.80469 z m 133.15235,86.73828 -16.94532,17.80469 -8.59765,-43.00391 17.25781,-19.91797 c 0.0547,-0.0625 0.10156,-0.1289 0.15234,-0.1914 0.0664,-0.082 0.13282,-0.16797 0.19922,-0.25391 0.11719,-0.16015 0.23047,-0.32422 0.33594,-0.49219 0.043,-0.0703 0.0898,-0.13671 0.13281,-0.21093 0.15235,-0.26563 0.29297,-0.53516 0.41406,-0.8125 l 19.30079,-43.86328 15.1289,4.20312 z m 0,0"
       data-original="#000000"
       class=""
       style="fill:#000000"
       id="path42"
       inkscape:connector-curvature="0" />
  </g>
</svg>
