<?xml version="1.0" encoding="UTF-8" standalone="no"?>
<svg
   xmlns:dc="http://purl.org/dc/elements/1.1/"
   xmlns:cc="http://creativecommons.org/ns#"
   xmlns:rdf="http://www.w3.org/1999/02/22-rdf-syntax-ns#"
   xmlns:svg="http://www.w3.org/2000/svg"
   xmlns="http://www.w3.org/2000/svg"
   xmlns:sodipodi="http://sodipodi.sourceforge.net/DTD/sodipodi-0.dtd"
   xmlns:inkscape="http://www.inkscape.org/namespaces/inkscape"
   enable-background="new 0 0 24 24"
   height="50"
   viewBox="0 0 2.34375 2.34375"
   width="50"
   version="1.1"
   id="svg4"
   sodipodi:docname="github.svg"
   inkscape:version="0.92.4 (5da689c313, 2019-01-14)">
  <metadata
     id="metadata10">
    <rdf:RDF>
      <cc:Work
         rdf:about="">
        <dc:format>image/svg+xml</dc:format>
        <dc:type
           rdf:resource="http://purl.org/dc/dcmitype/StillImage" />
        <dc:title></dc:title>
      </cc:Work>
    </rdf:RDF>
  </metadata>
  <defs
     id="defs8" />
  <sodipodi:namedview
     pagecolor="#ffffff"
     bordercolor="#666666"
     borderopacity="1"
     objecttolerance="10"
     gridtolerance="10"
     guidetolerance="10"
     inkscape:pageopacity="0"
     inkscape:pageshadow="2"
     inkscape:window-width="1920"
     inkscape:window-height="1017"
     id="namedview6"
     showgrid="false"
     inkscape:zoom="3.6875"
     inkscape:cx="95.07865"
     inkscape:cy="64.567222"
     inkscape:window-x="-8"
     inkscape:window-y="-8"
     inkscape:window-maximized="1"
     inkscape:current-layer="svg4" />
  <path
     d="m 1.2174623,0.03442795 c -0.62348484,0 -1.12847925,0.49653084 -1.12847925,1.10891885 0,0.4900421 0.32330927,0.9056046 0.77159764,1.0521187 0.0564242,0.010439 0.0771127,-0.023887 0.0771127,-0.053321 0,-0.026331 -9.4341e-4,-0.096108 -0.001409,-0.1885499 C 0.62237753,2.0204572 0.55617342,1.8048237 0.55617342,1.8048237 0.50482761,1.6768353 0.43063011,1.6426048 0.43063011,1.6426048 0.3284087,1.5738619 0.43852957,1.5752726 0.43852957,1.5752726 0.55184769,1.5829796 0.61137495,1.6895311 0.61137495,1.6895311 0.71199764,1.8590852 0.87553312,1.8100904 0.94004449,1.781784 0.9502005,1.7100314 0.97925917,1.6612248 1.0115149,1.6334831 0.76089832,1.6057411 0.4974925,1.5103846 0.4974925,1.0855123 c 0,-0.12102949 0.0437286,-0.21995944 0.11613931,-0.29754239 -0.0126954,-0.0280239 -0.0507816,-0.14077777 0.009874,-0.29349861 0,0 0.0945101,-0.0297166 0.31033177,0.11369427 0.0902783,-0.0246385 0.18619912,-0.0368636 0.28211982,-0.0374279 0.095921,5.6424e-4 0.1918414,0.0127895 0.2821198,0.0374279 C 1.7124883,0.46475469 1.8069985,0.4944713 1.8069985,0.4944713 c 0.060656,0.15272084 0.02257,0.26547471 0.011285,0.29349861 0.071941,0.077583 0.1156691,0.1765129 0.1156691,0.29754239 0,0.4260008 -0.263782,0.5197587 -0.5148686,0.5470302 0.039496,0.03329 0.076172,0.1012812 0.076172,0.2051952 0,0.148395 -0.00141,0.2676376 -0.00141,0.3036549 0,0.029058 0.019748,0.063759 0.077583,0.052663 0.4514857,-0.1455737 0.7745128,-0.5614183 0.7745128,-1.0507081 0,-0.612388 -0.5052765,-1.10891883 -1.1284795,-1.10891955 z"
     id="path2"
     inkscape:connector-curvature="0"
     style="fill:#212121;stroke-width:0.09403992" />
</svg>
