<?xml version="1.0"?>
<svg xmlns="http://www.w3.org/2000/svg" xmlns:xlink="http://www.w3.org/1999/xlink" version="1.1" id="Layer_1" x="0px" y="0px" viewBox="0 0 512 512" style="enable-background:new 0 0 512 512;" xml:space="preserve" width="512px" height="512px" class=""><g><polygon style="fill:#374957" points="439.46,450.812 439.46,504.305 71.282,504.305 71.282,450.812 82.535,450.812   125.138,450.812 190.257,450.812 220.68,450.812 290.063,450.812 320.485,450.812 385.605,450.812 428.207,450.812 " data-original="#CCCCCC" class="active-path" data-old_color="#CCCCCC"/><g>
	<polygon style="fill:#374957" points="255.377,107.526 225.249,77.397 187.238,39.386 217.366,9.269 255.377,47.28    285.494,77.397 484.721,276.624 454.592,306.741 428.207,280.356 385.605,237.754  " data-original="#C4783F" class="" data-old_color="#C4783F"/>
	<rect x="385.606" y="280.361" style="fill:#374957" width="42.603" height="170.456" data-original="#C4783F" class="" data-old_color="#C4783F"/>
	<polygon style="fill:#374957" points="428.207,280.356 385.605,280.356 125.138,280.356 82.546,280.356 125.138,237.754    385.605,237.754  " data-original="#C4783F" class="" data-old_color="#C4783F"/>
</g><g>
	<polygon style="fill:#374957" points="385.605,280.356 385.605,450.812 320.485,450.812 320.485,310.779 190.257,310.779    190.257,450.812 125.138,450.812 125.138,280.356  " data-original="#D88948" class="" data-old_color="#D88948"/>
	<polygon style="fill:#374957" points="385.605,237.754 125.138,237.754 255.377,107.526 270.079,122.228  " data-original="#D88948" class="" data-old_color="#D88948"/>
</g><g>
	
		<rect x="262.559" y="22.04" transform="matrix(-0.7071 0.7071 -0.7071 -0.7071 524.7418 -130.683)" style="fill:#374957" width="53.755" height="42.592" data-original="#C4783F" class="" data-old_color="#C4783F"/>
	<polygon style="fill:#374957" points="320.485,310.779 320.485,450.812 290.063,450.812 290.063,341.212  " data-original="#C4783F" class="" data-old_color="#C4783F"/>
	<polygon style="fill:#374957" points="320.485,310.779 290.063,341.212 220.68,341.212 190.257,310.779  " data-original="#C4783F" class="" data-old_color="#C4783F"/>
</g><rect x="220.681" y="341.217" style="fill:#4D4D4D;" width="69.383" height="109.6" data-original="#4D4D4D" class=""/><g>
	<polygon style="fill:#374957" points="255.377,107.526 125.138,237.754 82.546,280.356 82.535,280.356 82.535,280.368    56.15,306.741 26.033,276.613 225.249,77.397  " data-original="#C4783F" class="" data-old_color="#C4783F"/>
	<polygon style="fill:#374957" points="270.079,122.228 154.542,237.754 125.138,237.754 255.377,107.526  " data-original="#C4783F" class="" data-old_color="#C4783F"/>
	<polygon style="fill:#374957" points="220.68,341.212 220.68,450.812 190.257,450.812 190.257,310.779  " data-original="#C4783F" class="" data-old_color="#C4783F"/>
	<polygon style="fill:#374957" points="144.364,280.356 144.364,450.812 82.535,450.812 82.535,280.368 82.535,280.356    82.552,280.356  " data-original="#C4783F" class="" data-old_color="#C4783F"/>
</g><path d="M491.341,269.84L298.112,76.61l32.014-32.014c1.591-1.59,2.485-3.748,2.485-5.997c0-2.249-0.893-4.407-2.485-5.997  L300.008,2.485c-3.313-3.313-8.683-3.313-11.995,0L256,34.499L223.986,2.485c-3.311-3.313-8.681-3.314-11.994-0.001l-30.128,30.117  c-1.591,1.59-2.486,3.748-2.486,5.997c0,2.251,0.893,4.407,2.485,5.999l62.141,62.141L56.776,293.959l-18.124-18.132L215.519,98.96  c3.313-3.313,3.313-8.683,0-11.995c-3.311-3.313-8.682-3.313-11.995,0L20.659,269.828c-3.313,3.311-3.313,8.681-0.001,11.994  l30.117,30.128c1.656,1.657,3.827,2.486,5.999,2.486c2.169,0,4.341-0.828,5.996-2.482l11.907-11.901v21.849  c0,4.684,3.798,8.482,8.482,8.482c4.684,0,8.482-3.798,8.482-8.482v-33.85h25.638v153.491H91.64v-92.5  c0-4.684-3.798-8.482-8.482-8.482c-4.684,0-8.482,3.798-8.482,8.482v92.5h-2.771c-4.684,0-8.482,3.798-8.482,8.482v53.494  c0,4.684,3.798,8.482,8.482,8.482h368.178c4.684,0,8.482-3.798,8.482-8.482v-53.494c0-4.684-3.798-8.482-8.482-8.482h-2.771V300.047  l11.905,11.905c1.656,1.657,3.827,2.485,5.997,2.485s4.341-0.828,5.996-2.484l30.128-30.117c1.591-1.59,2.486-3.748,2.486-5.997  C493.826,273.589,492.932,271.431,491.341,269.84z M294.011,20.478l18.121,18.121l-26.015,26.016l-18.121-18.122L294.011,20.478z   M408.353,271.087H103.644l25.632-25.638h253.44L408.353,271.087z M134.243,288.051h243.503v153.491H329.59v-39.723  c0-4.684-3.798-8.482-8.482-8.482s-8.482,3.798-8.482,8.482v39.723h-13.458v-97.605l13.458-13.463v46.466  c0,4.684,3.798,8.482,8.482,8.482s8.482-3.798,8.482-8.482v-66.948c0-4.684-3.798-8.482-8.482-8.482H190.88  c-4.684,0-8.482,3.798-8.482,8.482v131.551h-48.156V288.051z M199.363,441.543V330.474l13.458,13.463v97.605h-13.458V441.543z   M224.817,331.943l-13.464-13.47h89.283l-13.464,13.47H224.817z M229.785,348.907h52.419v92.635h-52.419V348.907z M431.601,495.036  H80.387v-36.529h351.214V495.036z M394.71,441.543V288.051h25.638v153.491L394.71,441.543L394.71,441.543z M455.217,293.96  L335.27,174.014c-3.313-3.313-8.683-3.313-11.995,0c-3.313,3.313-3.313,8.683,0,11.995l42.476,42.476H146.24L256,118.734  l50.69,50.69c3.313,3.313,8.683,3.313,11.995,0c3.313-3.313,3.313-8.683,0-11.995L199.857,38.602l18.131-18.123l255.359,255.359  L455.217,293.96z" data-original="#000000" class="" style="fill:#000000"/></g> </svg>
