<?xml version="1.0" encoding="UTF-8" standalone="no"?>
<svg
   xmlns:dc="http://purl.org/dc/elements/1.1/"
   xmlns:cc="http://creativecommons.org/ns#"
   xmlns:rdf="http://www.w3.org/1999/02/22-rdf-syntax-ns#"
   xmlns:svg="http://www.w3.org/2000/svg"
   xmlns="http://www.w3.org/2000/svg"
   xmlns:sodipodi="http://sodipodi.sourceforge.net/DTD/sodipodi-0.dtd"
   xmlns:inkscape="http://www.inkscape.org/namespaces/inkscape"
   version="1.1"
   id="Capa_1"
   x="0px"
   y="0px"
   viewBox="0 0 50 50"
   xml:space="preserve"
   width="50"
   height="50"
   class="hovered-paths"
   sodipodi:docname="html.svg"
   inkscape:version="0.92.4 (5da689c313, 2019-01-14)"><metadata
   id="metadata35"><rdf:RDF><cc:Work
       rdf:about=""><dc:format>image/svg+xml</dc:format><dc:type
         rdf:resource="http://purl.org/dc/dcmitype/StillImage" /><dc:title></dc:title></cc:Work></rdf:RDF></metadata><defs
   id="defs33" /><sodipodi:namedview
   pagecolor="#ffffff"
   bordercolor="#666666"
   borderopacity="1"
   objecttolerance="10"
   gridtolerance="10"
   guidetolerance="10"
   inkscape:pageopacity="0"
   inkscape:pageshadow="2"
   inkscape:window-width="1920"
   inkscape:window-height="1017"
   id="namedview31"
   showgrid="false"
   inkscape:zoom="7.375"
   inkscape:cx="54.664005"
   inkscape:cy="44.567681"
   inkscape:window-x="-8"
   inkscape:window-y="-8"
   inkscape:window-maximized="1"
   inkscape:current-layer="Capa_1" /><path
   inkscape:connector-curvature="0"
   id="path4"
   class=""
   data-original="#F9EED7"
   d="M 45.524734,13.062182 V 38.151638 C 41.240666,44.791341 33.777675,49.18644 25.288135,49.18644 16.798596,49.18644 9.3356051,44.791341 5.0515373,38.151638 V 3.1943856 c 0,-1.1837407 0.9597974,-2.1435381 2.1435382,-2.1435381 H 33.513493 Z"
   style="fill:#f9eed7;stroke-width:0.09401483" /><path
   inkscape:connector-curvature="0"
   id="path6"
   data-original="#E8DBC4"
   d="M 33.513399,10.918456 V 1.0508475 L 45.524734,13.062182 h -9.867609 c -1.183929,0 -2.143726,-0.959797 -2.143726,-2.143726 z"
   style="fill:#e8dbc4;stroke-width:0.09401483" /><g
   id="g16"
   transform="matrix(0.09401483,0,0,0.09401483,1.220339,1.0508475)">
	<path
   inkscape:connector-curvature="0"
   id="path8"
   data-old_color="#FF525D"
   class="hovered-path active-path"
   data-original="#FF525D"
   d="m 471.249,330.961 v 63.666 C 425.681,465.251 346.3,512 256,512 165.7,512 86.319,465.251 40.751,394.627 v -63.666 z"
   style="fill:#ff525d" />
	<path
   inkscape:connector-curvature="0"
   id="path10"
   data-old_color="#FF525D"
   class="hovered-path active-path"
   data-original="#FF525D"
   d="m 150.505,189.965 43.046,-27.963 c 0.847,-0.678 2.033,-0.848 3.219,-0.848 5.084,0 11.524,5.424 11.524,12.372 0,2.881 -1.186,5.422 -3.051,6.609 l -29.827,19.319 29.827,19.32 c 1.864,1.186 3.051,3.728 3.051,6.609 0,6.949 -6.44,12.371 -11.524,12.371 -1.186,0 -2.373,-0.169 -3.219,-0.847 l -43.046,-27.963 c -3.897,-2.542 -5.253,-6.609 -5.253,-9.491 -0.001,-2.879 1.356,-6.946 5.253,-9.488 z"
   style="fill:#ff525d" />
	<path
   inkscape:connector-curvature="0"
   id="path12"
   data-old_color="#FF525D"
   class="hovered-path active-path"
   data-original="#FF525D"
   d="m 294.722,124.55 c 0,1.018 -0.169,2.203 -0.678,3.219 L 234.39,249.955 c -1.186,2.542 -4.406,4.236 -7.626,4.236 -5.762,0 -9.489,-4.745 -9.489,-8.982 0,-1.016 0.339,-2.203 0.847,-3.219 l 59.483,-122.185 c 1.355,-2.882 4.067,-4.237 7.118,-4.237 4.746,0 9.999,3.559 9.999,8.982 z"
   style="fill:#ff525d" />
	<path
   inkscape:connector-curvature="0"
   id="path14"
   data-old_color="#FF525D"
   class="hovered-path active-path"
   data-original="#FF525D"
   d="m 361.495,208.944 -43.044,27.963 c -0.848,0.678 -2.034,0.847 -3.219,0.847 -5.084,0 -11.524,-5.422 -11.524,-12.371 0,-2.881 1.185,-5.422 3.049,-6.609 l 29.827,-19.32 -29.827,-19.319 c -1.864,-1.186 -3.049,-3.728 -3.049,-6.609 0,-6.949 6.44,-12.372 11.524,-12.372 1.185,0 2.372,0.17 3.219,0.848 l 43.044,27.963 c 3.897,2.542 5.253,6.609 5.253,9.489 0.001,2.881 -1.356,6.948 -5.253,9.49 z"
   style="fill:#ff525d" />
</g><g
   id="g26"
   transform="matrix(0.09401483,0,0,0.09401483,1.220339,1.0508475)">
	<path
   inkscape:connector-curvature="0"
   id="path18"
   class=""
   data-original="#F9EED7"
   d="m 162.671,414.688 h -23.71 v 32.288 c 0,3.813 -4.647,5.72 -9.294,5.72 -4.647,0 -9.294,-1.906 -9.294,-5.72 v -75.778 c 0,-3.932 4.647,-5.6 9.294,-5.6 4.648,0 9.294,1.668 9.294,5.6 v 29.191 h 23.71 v -29.191 c 0,-3.932 4.647,-5.6 9.294,-5.6 4.647,0 9.294,1.668 9.294,5.6 v 75.778 c 0,3.813 -4.647,5.72 -9.294,5.72 -4.647,0 -9.294,-1.906 -9.294,-5.72 z"
   style="fill:#f9eed7" />
	<path
   inkscape:connector-curvature="0"
   id="path20"
   class=""
   data-original="#F9EED7"
   d="m 251.675,365.598 c 3.932,0 5.6,4.289 5.6,8.221 0,4.528 -2.025,8.46 -5.6,8.46 h -16.443 v 64.697 c 0,3.813 -4.647,5.72 -9.294,5.72 -4.646,0 -9.293,-1.906 -9.293,-5.72 v -64.697 h -16.443 c -3.575,0 -5.6,-3.932 -5.6,-8.46 0,-3.932 1.669,-8.221 5.6,-8.221 z"
   style="fill:#f9eed7" />
	<path
   inkscape:connector-curvature="0"
   id="path22"
   class=""
   data-original="#F9EED7"
   d="m 312.559,421.836 c -1.549,2.622 -3.932,3.455 -6.196,3.455 -2.145,0 -4.408,-0.715 -5.838,-3.455 l -11.319,-20.732 v 45.872 c 0,3.813 -4.647,5.72 -9.294,5.72 -4.647,0 -9.294,-1.906 -9.294,-5.72 v -72.084 c 0,-6.792 4.647,-9.293 9.294,-9.293 6.673,0 9.532,0.715 14.418,9.293 l 12.272,21.447 12.271,-21.447 c 4.886,-8.579 7.745,-9.293 14.418,-9.293 4.767,0 9.294,2.503 9.294,9.293 v 72.084 c 0,3.813 -4.647,5.72 -9.294,5.72 -4.647,0 -9.294,-1.906 -9.294,-5.72 v -44.681 z"
   style="fill:#f9eed7" />
	<path
   inkscape:connector-curvature="0"
   id="path24"
   class=""
   data-original="#F9EED7"
   d="m 369.511,452.696 c -4.051,0 -8.102,-1.906 -8.102,-5.72 v -75.778 c 0,-3.932 4.647,-5.6 9.294,-5.6 4.647,0 9.294,1.668 9.294,5.6 v 65.294 h 27.165 c 3.575,0 5.362,4.051 5.362,8.102 0,4.051 -1.788,8.102 -5.362,8.102 z"
   style="fill:#f9eed7" />
</g> </svg>