<?xml version="1.0" encoding="UTF-8" standalone="no"?>
<svg
   xmlns:dc="http://purl.org/dc/elements/1.1/"
   xmlns:cc="http://creativecommons.org/ns#"
   xmlns:rdf="http://www.w3.org/1999/02/22-rdf-syntax-ns#"
   xmlns:svg="http://www.w3.org/2000/svg"
   xmlns="http://www.w3.org/2000/svg"
   xmlns:sodipodi="http://sodipodi.sourceforge.net/DTD/sodipodi-0.dtd"
   xmlns:inkscape="http://www.inkscape.org/namespaces/inkscape"
   version="1.1"
   id="Capa_1"
   x="0px"
   y="0px"
   viewBox="0 0 5.46875 5.46875"
   xml:space="preserve"
   width="50"
   height="50"
   class="hovered-paths"
   sodipodi:docname="javascript.svg"
   inkscape:version="0.92.4 (5da689c313, 2019-01-14)"><metadata
   id="metadata33"><rdf:RDF><cc:Work
       rdf:about=""><dc:format>image/svg+xml</dc:format><dc:type
         rdf:resource="http://purl.org/dc/dcmitype/StillImage" /><dc:title></dc:title></cc:Work></rdf:RDF></metadata><defs
   id="defs31" /><sodipodi:namedview
   pagecolor="#ffffff"
   bordercolor="#666666"
   borderopacity="1"
   objecttolerance="10"
   gridtolerance="10"
   guidetolerance="10"
   inkscape:pageopacity="0"
   inkscape:pageshadow="2"
   inkscape:window-width="1920"
   inkscape:window-height="1017"
   id="namedview29"
   showgrid="false"
   inkscape:zoom="5.2149125"
   inkscape:cx="50.218094"
   inkscape:cy="19.738792"
   inkscape:window-x="-8"
   inkscape:window-y="-8"
   inkscape:window-maximized="1"
   inkscape:current-layer="Capa_1" /><g
   id="g26"
   transform="matrix(0.09470493,0,0,0.09470493,0.17962425,0.04870067)"><g
     id="g24">
	<path
   style="fill:#e9e9e0"
   d="M 36.985,0 H 7.963 C 7.155,0 6.5,0.655 6.5,1.926 V 55 c 0,0.345 0.655,1 1.463,1 H 48.037 C 48.845,56 49.5,55.345 49.5,55 V 12.978 c 0,-0.696 -0.093,-0.92 -0.257,-1.085 L 37.607,0.257 C 37.442,0.093 37.218,0 36.985,0 Z"
   data-original="#E9E9E0"
   id="path2"
   inkscape:connector-curvature="0" />
	<polygon
   style="fill:#d9d7ca"
   points="37.5,0.151 37.5,12 49.349,12 "
   data-original="#D9D7CA"
   id="polygon4" />
	<path
   style="fill:#ff7e47"
   d="M 48.037,56 H 7.963 C 7.155,56 6.5,55.345 6.5,54.537 V 39 h 43 V 54.537 C 49.5,55.345 48.845,56 48.037,56 Z"
   data-original="#EEAF4B"
   class="hovered-path active-path"
   data-old_color="#EEAF4B"
   id="path6"
   inkscape:connector-curvature="0" />
	<g
   id="g12">
		<path
   style="fill:#ffffff"
   d="m 26.021,42.719 v 7.848 c 0,0.474 -0.087,0.873 -0.26,1.196 -0.174,0.323 -0.406,0.583 -0.697,0.779 -0.292,0.196 -0.627,0.333 -1.005,0.41 -0.378,0.077 -0.769,0.116 -1.169,0.116 -0.201,0 -0.436,-0.021 -0.704,-0.062 -0.268,-0.041 -0.547,-0.104 -0.834,-0.191 -0.287,-0.087 -0.563,-0.185 -0.827,-0.294 -0.265,-0.109 -0.488,-0.232 -0.67,-0.369 l 0.697,-1.107 c 0.091,0.063 0.221,0.13 0.39,0.198 0.169,0.068 0.353,0.132 0.554,0.191 0.2,0.06 0.41,0.111 0.629,0.157 0.219,0.046 0.424,0.068 0.615,0.068 0.482,0 0.868,-0.094 1.155,-0.28 0.287,-0.186 0.439,-0.504 0.458,-0.95 v -7.711 h 1.668 z"
   data-original="#FFFFFF"
   class=""
   id="path8"
   inkscape:connector-curvature="0" />
		<path
   style="fill:#ffffff"
   d="m 34.184,50.238 c 0,0.364 -0.075,0.718 -0.226,1.06 -0.151,0.342 -0.362,0.643 -0.636,0.902 -0.274,0.259 -0.611,0.467 -1.012,0.622 -0.401,0.155 -0.857,0.232 -1.367,0.232 -0.219,0 -0.444,-0.012 -0.677,-0.034 -0.233,-0.022 -0.468,-0.062 -0.704,-0.116 -0.237,-0.055 -0.463,-0.13 -0.677,-0.226 -0.214,-0.096 -0.399,-0.212 -0.554,-0.349 l 0.287,-1.176 c 0.127,0.073 0.289,0.144 0.485,0.212 0.196,0.068 0.398,0.132 0.608,0.191 0.209,0.06 0.419,0.107 0.629,0.144 0.209,0.036 0.405,0.055 0.588,0.055 0.556,0 0.982,-0.13 1.278,-0.39 0.296,-0.26 0.444,-0.645 0.444,-1.155 0,-0.31 -0.105,-0.574 -0.314,-0.793 C 32.126,49.198 31.864,49 31.55,48.822 31.236,48.644 30.896,48.467 30.531,48.289 30.166,48.111 29.824,47.901 29.506,47.66 c -0.319,-0.241 -0.584,-0.526 -0.793,-0.854 -0.21,-0.328 -0.314,-0.738 -0.314,-1.23 0,-0.446 0.082,-0.843 0.246,-1.189 0.164,-0.346 0.385,-0.641 0.663,-0.882 0.278,-0.241 0.602,-0.426 0.971,-0.554 0.369,-0.128 0.759,-0.191 1.169,-0.191 0.419,0 0.843,0.039 1.271,0.116 0.428,0.077 0.774,0.203 1.039,0.376 -0.055,0.118 -0.119,0.248 -0.191,0.39 -0.073,0.142 -0.142,0.273 -0.205,0.396 -0.064,0.123 -0.119,0.226 -0.164,0.308 -0.046,0.082 -0.073,0.128 -0.082,0.137 C 33.061,44.456 33,44.42 32.931,44.374 32.862,44.328 32.764,44.283 32.637,44.237 32.509,44.191 32.34,44.16 32.131,44.141 c -0.21,-0.019 -0.479,-0.014 -0.807,0.014 -0.183,0.019 -0.355,0.07 -0.52,0.157 -0.165,0.087 -0.311,0.193 -0.438,0.321 -0.128,0.128 -0.229,0.271 -0.301,0.431 -0.073,0.159 -0.109,0.313 -0.109,0.458 0,0.364 0.104,0.658 0.314,0.882 0.209,0.224 0.469,0.419 0.779,0.588 0.31,0.169 0.646,0.333 1.012,0.492 0.364,0.159 0.704,0.354 1.019,0.581 0.315,0.227 0.576,0.513 0.786,0.854 0.212,0.342 0.318,0.781 0.318,1.319 z"
   data-original="#FFFFFF"
   class=""
   id="path10"
   inkscape:connector-curvature="0" />
	</g>
	<g
   id="g22">
		<path
   style="fill:#ff7e47"
   d="m 19.5,19 v -4 c 0,-0.551 0.448,-1 1,-1 0.553,0 1,-0.448 1,-1 0,-0.552 -0.447,-1 -1,-1 -1.654,0 -3,1.346 -3,3 v 4 c 0,1.103 -0.897,2 -2,2 -0.553,0 -1,0.448 -1,1 0,0.552 0.447,1 1,1 1.103,0 2,0.897 2,2 v 4 c 0,1.654 1.346,3 3,3 0.553,0 1,-0.448 1,-1 0,-0.552 -0.447,-1 -1,-1 -0.552,0 -1,-0.449 -1,-1 v -4 c 0,-1.2 -0.542,-2.266 -1.382,-3 0.84,-0.734 1.382,-1.8 1.382,-3 z"
   data-original="#EEAF4B"
   class="hovered-path active-path"
   data-old_color="#EEAF4B"
   id="path14"
   inkscape:connector-curvature="0" />
		<circle
   style="fill:#ff7e47"
   cx="27.5"
   cy="18.5"
   r="1.5"
   data-original="#EEAF4B"
   class="hovered-path active-path"
   data-old_color="#EEAF4B"
   id="circle16" />
		<path
   style="fill:#ff7e47"
   d="m 39.5,21 c -1.103,0 -2,-0.897 -2,-2 v -4 c 0,-1.654 -1.346,-3 -3,-3 -0.553,0 -1,0.448 -1,1 0,0.552 0.447,1 1,1 0.552,0 1,0.449 1,1 v 4 c 0,1.2 0.542,2.266 1.382,3 -0.84,0.734 -1.382,1.8 -1.382,3 v 4 c 0,0.551 -0.448,1 -1,1 -0.553,0 -1,0.448 -1,1 0,0.552 0.447,1 1,1 1.654,0 3,-1.346 3,-3 v -4 c 0,-1.103 0.897,-2 2,-2 0.553,0 1,-0.448 1,-1 0,-0.552 -0.447,-1 -1,-1 z"
   data-original="#EEAF4B"
   class="hovered-path active-path"
   data-old_color="#EEAF4B"
   id="path18"
   inkscape:connector-curvature="0" />
		<path
   style="fill:#ff7e47"
   d="m 27.5,24 c -0.553,0 -1,0.448 -1,1 v 3 c 0,0.552 0.447,1 1,1 0.553,0 1,-0.448 1,-1 v -3 c 0,-0.552 -0.447,-1 -1,-1 z"
   data-original="#EEAF4B"
   class="hovered-path active-path"
   data-old_color="#EEAF4B"
   id="path20"
   inkscape:connector-curvature="0" />
	</g>
</g></g> </svg>