<?xml version="1.0" encoding="UTF-8" standalone="no"?>
<!-- Generator: Adobe Illustrator 19.0.0, SVG Export Plug-In . SVG Version: 6.00 Build 0)  -->

<svg
   xmlns:dc="http://purl.org/dc/elements/1.1/"
   xmlns:cc="http://creativecommons.org/ns#"
   xmlns:rdf="http://www.w3.org/1999/02/22-rdf-syntax-ns#"
   xmlns:svg="http://www.w3.org/2000/svg"
   xmlns="http://www.w3.org/2000/svg"
   xmlns:sodipodi="http://sodipodi.sourceforge.net/DTD/sodipodi-0.dtd"
   xmlns:inkscape="http://www.inkscape.org/namespaces/inkscape"
   version="1.1"
   id="Capa_1"
   x="0px"
   y="0px"
   viewBox="0 0 50 50"
   xml:space="preserve"
   sodipodi:docname="nodejs.svg"
   width="50"
   height="50"
   inkscape:version="0.92.4 (5da689c313, 2019-01-14)"><metadata
   id="metadata61"><rdf:RDF><cc:Work
       rdf:about=""><dc:format>image/svg+xml</dc:format><dc:type
         rdf:resource="http://purl.org/dc/dcmitype/StillImage" /><dc:title></dc:title></cc:Work></rdf:RDF></metadata><defs
   id="defs59" /><sodipodi:namedview
   pagecolor="#ffffff"
   bordercolor="#666666"
   borderopacity="1"
   objecttolerance="10"
   gridtolerance="10"
   guidetolerance="10"
   inkscape:pageopacity="0"
   inkscape:pageshadow="2"
   inkscape:window-width="1920"
   inkscape:window-height="1017"
   id="namedview57"
   showgrid="false"
   inkscape:zoom="5.2149125"
   inkscape:cx="93.160477"
   inkscape:cy="24.803522"
   inkscape:window-x="-8"
   inkscape:window-y="-8"
   inkscape:window-maximized="1"
   inkscape:current-layer="Capa_1" />
<path
   style="fill:#f2f2f2;stroke-width:0.0946964"
   d="m 49.251586,24.798933 c 0,13.388651 -10.853627,24.242278 -24.242277,24.242278 -12.352672,0 -22.5473071,-9.23877 -24.05032831,-21.183774 -0.12660909,-1.001414 -0.1919496,-2.022525 -0.1919496,-3.058504 0,-1.89781 0.21770702,-3.745148 0.63029921,-5.517391 C 3.8947584,8.5516831 13.518469,0.55665574 25.009309,0.55665574 c 11.462146,0 21.067012,7.95544436 23.592187,18.64581526 0.331437,1.398098 0.540243,2.842785 0.616473,4.322038 0.02272,0.422441 0.03362,0.846965 0.03362,1.274424 z"
   id="path2"
   inkscape:connector-curvature="0" />
<polygon
   style="fill:#3b8739"
   points="243.195,210 185.553,176.721 127.912,210 127.912,276.559 185.553,309.838 243.195,276.559 "
   id="polygon4"
   transform="matrix(0.09469639,0,0,0.09469639,0.76703109,0.55665574)" />
<path
   style="fill:#333333;stroke-width:0.0946964"
   d="m 45.293656,25.789363 3.557175,2.054154 -3.557175,2.054155 -5.458017,-3.151497 v -6.302992 l 5.458017,-3.151496 3.30784,1.910689 c 0.331437,1.398098 0.540243,2.842786 0.616473,4.322038 l -2.022526,1.167607 V 22.49639 l -1.901787,-1.097341 -1.901788,1.097341 v 2.195631 z"
   id="path6"
   inkscape:connector-curvature="0" />
<polygon
   style="fill:#66a060"
   points="481.392,236.82 470.203,230.36 459.013,236.82 459.013,249.74 470.203,256.201 481.392,249.74 "
   id="polygon8"
   transform="matrix(0.09469639,0,0,0.09469639,0.76703109,0.55665574)" />
<path
   style="fill:#333333;stroke-width:0.0946964"
   d="m 10.301633,20.443278 v 8.311598 L 6.6613137,26.677994 V 22.417319 L 4.843711,21.36742 3.0260136,22.417224 v 4.260675 l -2.06703291,1.179538 c -0.12660909,-1.001414 -0.1919496,-2.022525 -0.1919496,-3.058504 0,-1.89781 0.21770702,-3.745148 0.63029921,-5.517391 L 4.843711,17.291687 Z"
   id="path10"
   inkscape:connector-curvature="0" />
<rect
   x="24.143593"
   y="-7.2351151"
   transform="rotate(59.999272)"
   style="fill:#6da75d;stroke-width:0.09469431"
   width="10.916456"
   height="6.3025694"
   id="rect12" />
<polygon
   style="fill:#55a344"
   points="147.704,244.283 127.912,210 127.912,276.559 "
   id="polygon14"
   transform="matrix(0.09469639,0,0,0.09469639,0.76703109,0.55665574)" />
<polygon
   style="fill:#639d57"
   points="243.195,210 185.553,176.721 223.979,243.277 "
   id="polygon16"
   transform="matrix(0.09469639,0,0,0.09469639,0.76703109,0.55665574)" />
<path
   style="fill:#333333;stroke-width:0.0946964"
   d="m 33.584162,9.9864281 v 8.3620709 l -1.829534,-1.056812 -5.458964,3.151496 v 6.302992 l 5.458964,3.151497 5.458016,-3.151497 V 11.928746 Z m -0.0099,14.6581499 -1.819686,1.050846 -1.819686,-1.050846 v -2.10065 l 1.819686,-1.050846 1.819686,1.050846 z"
   id="path18"
   inkscape:connector-curvature="0" />
<g
   id="g24"
   transform="matrix(0.09469639,0,0,0.09469639,0.76703109,0.55665574)">
	<path
   style="fill:#66a060"
   d="m 282.149,358.717 c 0,0 -1.132,-9.729 -11.539,-9.729 -10.408,0 -17.534,1.357 -17.534,7.127 0,5.77 20.25,5.77 27.943,8.032 7.693,2.262 14.48,8.145 11.086,18.553 -3.394,10.408 -13.802,11.539 -29.866,11.539 -16.064,0 -19.685,-13.35 -19.685,-18.553 h 9.05 c 0,0 -1.132,8.145 9.502,9.502 10.634,1.357 20.802,2.121 22.173,-6.108 1.81,-10.861 -34.391,-5.43 -37.559,-16.064 -2.676,-8.985 -1.132,-20.815 16.969,-22.626 18.101,-1.811 28.056,6.181 28.056,18.101 z"
   id="path20"
   inkscape:connector-curvature="0" />
	<path
   style="fill:#66a060"
   d="m 194.723,401.131 20.008,11.551 c 10.053,5.804 22.619,-1.451 22.619,-13.059 v -20.242 -37.253 h -8.155 v 55.227 c 0,6.339 -6.862,10.302 -12.353,7.131 l -13.965,-8.062 v -58.94 l 51.043,-29.467 51.043,29.467 v 58.94 l -51.043,29.467 -14.704,-8.489 -9.602,3.872 24.305,14.033 59.198,-34.179 V 332.777 L 253.92,298.6 194.722,332.779 v 68.352 z"
   id="path22"
   inkscape:connector-curvature="0" />
</g>
<g
   id="g26"
   transform="translate(0,-462)">
</g>
<g
   id="g28"
   transform="translate(0,-462)">
</g>
<g
   id="g30"
   transform="translate(0,-462)">
</g>
<g
   id="g32"
   transform="translate(0,-462)">
</g>
<g
   id="g34"
   transform="translate(0,-462)">
</g>
<g
   id="g36"
   transform="translate(0,-462)">
</g>
<g
   id="g38"
   transform="translate(0,-462)">
</g>
<g
   id="g40"
   transform="translate(0,-462)">
</g>
<g
   id="g42"
   transform="translate(0,-462)">
</g>
<g
   id="g44"
   transform="translate(0,-462)">
</g>
<g
   id="g46"
   transform="translate(0,-462)">
</g>
<g
   id="g48"
   transform="translate(0,-462)">
</g>
<g
   id="g50"
   transform="translate(0,-462)">
</g>
<g
   id="g52"
   transform="translate(0,-462)">
</g>
<g
   id="g54"
   transform="translate(0,-462)">
</g>
</svg>