<?xml version="1.0" encoding="UTF-8" standalone="no"?>
<svg
   xmlns:dc="http://purl.org/dc/elements/1.1/"
   xmlns:cc="http://creativecommons.org/ns#"
   xmlns:rdf="http://www.w3.org/1999/02/22-rdf-syntax-ns#"
   xmlns:svg="http://www.w3.org/2000/svg"
   xmlns="http://www.w3.org/2000/svg"
   xmlns:sodipodi="http://sodipodi.sourceforge.net/DTD/sodipodi-0.dtd"
   xmlns:inkscape="http://www.inkscape.org/namespaces/inkscape"
   id="Capa_1"
   enable-background="new 0 0 512.025 512.025"
   height="50"
   viewBox="0 0 50.002441 50.002441"
   width="50"
   version="1.1"
   sodipodi:docname="problem-solving.svg"
   inkscape:version="0.92.4 (5da689c313, 2019-01-14)">
  <metadata
     id="metadata53">
    <rdf:RDF>
      <cc:Work
         rdf:about="">
        <dc:format>image/svg+xml</dc:format>
        <dc:type
           rdf:resource="http://purl.org/dc/dcmitype/StillImage" />
        <dc:title></dc:title>
      </cc:Work>
    </rdf:RDF>
  </metadata>
  <defs
     id="defs51" />
  <sodipodi:namedview
     pagecolor="#ffffff"
     bordercolor="#666666"
     borderopacity="1"
     objecttolerance="10"
     gridtolerance="10"
     guidetolerance="10"
     inkscape:pageopacity="0"
     inkscape:pageshadow="2"
     inkscape:window-width="1920"
     inkscape:window-height="1017"
     id="namedview49"
     showgrid="false"
     inkscape:zoom="5.2149125"
     inkscape:cx="87.95224"
     inkscape:cy="23.406021"
     inkscape:window-x="-8"
     inkscape:window-y="-8"
     inkscape:window-maximized="1"
     inkscape:current-layer="Capa_1" />
  <g
     id="g46"
     transform="matrix(0.09321828,0,0,0.09321828,1.1751657,1.5043736)">
    <g
       id="g4">
      <path
         d="m 342.437,243.409 c 8.135,-52.1 54.933,-64.402 54.876,-128.69 C 397.228,48.078 345.64,9.301 295.441,10.01 245.242,9.301 193.654,48.078 193.569,114.719 c -0.085,64.288 46.741,76.59 54.876,128.69 0.822,-0.113 1.644,-0.142 2.494,-0.142 h 89.003 c 0.851,0 1.673,0.029 2.495,0.142 z"
         id="path2"
         inkscape:connector-curvature="0"
         style="clip-rule:evenodd;fill:#ffda8f;fill-rule:evenodd" />
    </g>
    <g
       id="g8">
      <path
         d="m 250.939,288.195 h 89.003 0.709 c 12.047,-0.368 21.769,-10.346 21.769,-22.45 0,-11.537 -8.787,-21.089 -19.983,-22.336 -0.822,-0.113 -1.644,-0.142 -2.494,-0.142 H 250.94 c -0.85,0 -1.672,0.028 -2.494,0.142 -11.196,1.247 -19.983,10.8 -19.983,22.336 0,12.104 9.722,22.081 21.769,22.45 z"
         id="path6"
         inkscape:connector-curvature="0"
         style="clip-rule:evenodd;fill:#f3eff0;fill-rule:evenodd" />
    </g>
    <g
       id="g12">
      <path
         d="m 317.578,334.342 c 12.699,0 23.073,-10.375 23.073,-23.073 v -23.073 c -0.227,0 -0.482,0 -0.709,0 h -89.003 c -0.255,0 -0.482,0 -0.709,0 v 23.073 c 0,12.699 10.374,23.073 23.045,23.073 z"
         id="path10"
         inkscape:connector-curvature="0"
         style="clip-rule:evenodd;fill:#cdc0c4;fill-rule:evenodd" />
    </g>
    <g
       id="g16">
      <path
         d="m 312.022,404.016 c -4.308,-7.823 -12.614,-13.124 -22.081,-13.124 h -50.738 c -7.483,0 -8.532,-1.247 -13.209,-5.641 -37.415,-35.234 -67.943,-33.505 -105.358,-18.737 -8.05,3.175 -9.099,3.118 -16.468,3.458 H 84.752 v 94.788 h 29.082 c 3.94,0 3.571,0.198 9.382,1.757 l 96.571,25.823 c 33.957,9.212 47.563,17.659 79.82,-3.855 l 119.021,-84.754 c 10.885,-7.767 14.938,-22.081 7.908,-33.476 -7.03,-11.367 -21.571,-14.003 -33.447,-7.88 z"
         id="path14"
         inkscape:connector-curvature="0"
         style="clip-rule:evenodd;fill:#ffdcd5;fill-rule:evenodd" />
    </g>
    <g
       id="g20">
      <path
         d="m 84.752,464.761 v -94.788 -1.559 c 0,-8.504 -6.945,-15.448 -15.42,-15.448 h -37.33 c -8.475,0 -15.42,6.945 -15.42,15.448 v 97.906 c 0,8.475 6.945,15.42 15.42,15.42 h 37.33 c 8.475,0 15.42,-6.945 15.42,-15.42 z"
         id="path18"
         inkscape:connector-curvature="0"
         style="clip-rule:evenodd;fill:#ff9eb1;fill-rule:evenodd" />
    </g>
    <g
       id="g44">
      <path
         d="m 388.521,353.481 -73.63,37.82 c -6.376,-6.424 -15.205,-10.409 -24.949,-10.409 h -50.738 c -2.257,0 -3.083,-0.139 -3.331,-0.198 -0.46,-0.312 -1.607,-1.391 -2.537,-2.267 l -0.485,-0.457 c -41.298,-38.89 -76.195,-36.423 -115.883,-20.759 -6.211,2.45 -6.329,2.455 -12.485,2.736 l -11.177,0.014 C 89.817,350.072 80.391,342.964 69.334,342.964 H 32.002 c -14.016,0 -25.419,11.416 -25.419,25.448 v 97.907 c 0,14.017 11.403,25.42 25.419,25.42 h 37.331 c 11.058,0 20.484,-7.1 23.973,-16.979 h 20.529 c 2.324,0.201 4.59,0.674 6.799,1.418 l 96.537,25.814 c 4.227,1.146 8.108,2.274 11.862,3.365 12.467,3.623 22.947,6.668 33.874,6.667 12.345,0 25.26,-3.887 42.25,-15.22 0.085,-0.057 0.169,-0.114 0.252,-0.173 l 119.028,-84.76 c 15.646,-11.163 20.207,-31.312 10.605,-46.876 -9.491,-15.345 -29.497,-20.292 -46.521,-11.514 z M 74.752,466.32 c 0,2.938 -2.482,5.42 -5.419,5.42 H 32.002 c -2.938,0 -5.419,-2.482 -5.419,-5.42 v -97.907 c 0,-2.953 2.482,-5.448 5.419,-5.448 h 37.331 c 2.938,0 5.419,2.495 5.419,5.448 z m 338.075,-70.734 -118.895,84.665 c -24.2,16.107 -34.499,13.113 -59.321,5.901 -3.838,-1.115 -7.807,-2.268 -12.241,-3.471 L 125.807,456.86 c -3.885,-1.205 -7.877,-1.905 -11.974,-2.099 H 94.752 v -74.789 l 10.641,-0.045 c 7.611,-0.347 9.971,-0.583 18.915,-4.111 34.4,-13.578 60.946,-15.195 94.84,16.723 l 0.479,0.45 c 5.836,5.495 9.452,7.902 19.577,7.902 h 50.738 c 8.365,0 15.17,6.806 15.17,15.171 0,8.35 -6.805,15.143 -15.17,15.143 h -82.257 c -5.523,0 -10,4.477 -10,10 0,5.523 4.477,10 10,10 h 82.257 c 19.393,0 35.17,-15.765 35.17,-35.143 0,-2.45 -0.254,-4.842 -0.733,-7.152 l 73.292,-37.647 c 6.681,-3.443 15.82,-3.09 20.354,4.243 3.998,6.481 1.76,15.116 -5.198,20.08 z"
         id="path22"
         inkscape:connector-curvature="0" />
      <path
         d="m 236.765,236.529 c -10.825,5.273 -18.304,16.387 -18.304,29.216 0,14.145 9.108,26.197 21.769,30.629 v 14.894 c 0,18.237 14.824,33.074 33.044,33.074 h 44.303 c 18.236,0 33.073,-14.837 33.073,-33.074 v -14.894 c 12.661,-4.432 21.769,-16.485 21.769,-30.629 0,-12.83 -7.479,-23.944 -18.305,-29.217 4.379,-16.268 13.256,-28.381 22.592,-41.087 14.362,-19.546 30.64,-41.7 30.605,-80.723 0,-3.484 -0.144,-7.06 -0.428,-10.629 -0.438,-5.506 -5.245,-9.601 -10.762,-9.176 -5.505,0.438 -9.613,5.256 -9.175,10.762 0.242,3.043 0.365,6.085 0.365,9.051 0.029,32.464 -12.965,50.149 -26.723,68.872 -10.439,14.207 -21.182,28.852 -26.301,49.667 h -77.698 c -5.119,-20.813 -15.865,-35.457 -26.306,-49.663 -13.762,-18.723 -26.76,-36.408 -26.717,-68.873 0.044,-34.617 14.875,-56.479 27.31,-68.723 17.122,-16.86 40.575,-26.336 64.421,-26 0.096,0.001 0.191,0.001 0.287,0 19.429,-0.295 38.915,6.038 54.823,17.799 4.439,3.283 10.703,2.344 13.986,-2.096 3.283,-4.441 2.345,-10.703 -2.096,-13.986 C 342.928,7.405 319.19,-0.298 295.438,0.009 c -29.089,-0.355 -57.72,11.196 -78.593,31.75 -21.728,21.396 -33.235,50.079 -33.277,82.947 -0.052,39.039 16.234,61.196 30.602,80.744 9.337,12.703 18.216,24.814 22.595,41.079 z m 93.886,74.74 c 0,7.209 -5.864,13.074 -13.073,13.074 h -44.303 c -7.193,0 -13.044,-5.865 -13.044,-13.074 v -13.073 h 70.42 z m -79.712,-58.002 h 89.003 c 6.88,0 12.478,5.598 12.478,12.478 0,6.865 -5.597,12.45 -12.478,12.45 h -89.003 c -6.88,0 -12.478,-5.585 -12.478,-12.45 0,-6.88 5.598,-12.478 12.478,-12.478 z"
         id="path24"
         inkscape:connector-curvature="0" />
      <path
         d="m 305.44,73.051 c 0,-5.523 -4.477,-10 -10,-10 -5.523,0 -10,4.477 -10,10 v 62.021 c 0,5.523 4.477,10 10,10 5.523,0 10,-4.477 10,-10 z"
         id="path26"
         inkscape:connector-curvature="0" />
      <path
         d="m 295.44,170.311 c -5.523,0 -10,4.477 -10,10 v 0.057 c 0,5.523 4.477,9.972 10,9.972 5.523,0 10,-4.505 10,-10.028 0,-5.523 -4.477,-10.001 -10,-10.001 z"
         id="path28"
         inkscape:connector-curvature="0" />
      <path
         d="m 495.443,114.64 h -40.618 c -5.523,0 -10,4.477 -10,10 0,5.523 4.477,10 10,10 h 40.618 c 5.523,0 10,-4.477 10,-10 0,-5.523 -4.477,-10 -10,-10 z"
         id="path30"
         inkscape:connector-curvature="0" />
      <path
         d="m 438.025,50.227 c 1.916,0 3.853,-0.55 5.563,-1.698 l 33.702,-22.62 c 4.586,-3.078 5.808,-9.29 2.73,-13.876 -3.077,-4.585 -9.289,-5.808 -13.876,-2.73 l -33.702,22.62 c -4.586,3.078 -5.808,9.291 -2.73,13.876 1.931,2.875 5.092,4.428 8.313,4.428 z"
         id="path32"
         inkscape:connector-curvature="0" />
      <path
         d="m 477.291,223.371 -33.702,-22.62 c -4.586,-3.078 -10.799,-1.855 -13.876,2.73 -3.078,4.585 -1.855,10.798 2.73,13.876 l 33.702,22.62 c 1.71,1.148 3.647,1.698 5.563,1.698 3.221,0 6.383,-1.553 8.313,-4.428 3.078,-4.586 1.856,-10.799 -2.73,-13.876 z"
         id="path34"
         inkscape:connector-curvature="0" />
      <path
         d="m 95.438,134.64 h 40.59 c 5.523,0 10,-4.477 10,-10 0,-5.523 -4.477,-10 -10,-10 h -40.59 c -5.523,0 -10,4.477 -10,10 0,5.523 4.477,10 10,10 z"
         id="path36"
         inkscape:connector-curvature="0" />
      <path
         d="m 113.59,25.91 33.702,22.62 c 1.71,1.148 3.647,1.698 5.563,1.698 3.221,0 6.383,-1.553 8.313,-4.428 3.078,-4.585 1.855,-10.798 -2.73,-13.876 L 124.736,9.304 c -4.586,-3.078 -10.798,-1.855 -13.876,2.73 -3.078,4.585 -1.856,10.798 2.73,13.876 z"
         id="path38"
         inkscape:connector-curvature="0" />
      <path
         d="m 147.293,200.751 -33.702,22.62 c -4.586,3.078 -5.808,9.291 -2.73,13.876 1.93,2.875 5.091,4.428 8.313,4.428 1.916,0 3.853,-0.55 5.563,-1.698 l 33.702,-22.62 c 4.586,-3.078 5.808,-9.291 2.73,-13.876 -3.078,-4.585 -9.291,-5.808 -13.876,-2.73 z"
         id="path40"
         inkscape:connector-curvature="0" />
      <path
         d="m 377.458,69.237 c 1.95,1.949 4.499,2.922 7.05,2.922 2.56,0 5.122,-0.98 7.078,-2.936 3.905,-3.905 3.891,-10.251 -0.014,-14.157 -3.905,-3.905 -10.237,-3.905 -14.143,0 -3.905,3.905 -3.905,10.237 0,14.143 z"
         id="path42"
         inkscape:connector-curvature="0" />
    </g>
  </g>
</svg>
