<?xml version="1.0" encoding="UTF-8" standalone="no"?>
<svg
   xmlns:dc="http://purl.org/dc/elements/1.1/"
   xmlns:cc="http://creativecommons.org/ns#"
   xmlns:rdf="http://www.w3.org/1999/02/22-rdf-syntax-ns#"
   xmlns:svg="http://www.w3.org/2000/svg"
   xmlns="http://www.w3.org/2000/svg"
   xmlns:sodipodi="http://sodipodi.sourceforge.net/DTD/sodipodi-0.dtd"
   xmlns:inkscape="http://www.inkscape.org/namespaces/inkscape"
   height="50pt"
   viewBox="0 0 50.001264 50"
   width="50pt"
   version="1.1"
   id="svg58"
   sodipodi:docname="project-planning.svg"
   inkscape:version="0.92.4 (5da689c313, 2019-01-14)">
  <metadata
     id="metadata64">
    <rdf:RDF>
      <cc:Work
         rdf:about="">
        <dc:format>image/svg+xml</dc:format>
        <dc:type
           rdf:resource="http://purl.org/dc/dcmitype/StillImage" />
        <dc:title></dc:title>
      </cc:Work>
    </rdf:RDF>
  </metadata>
  <defs
     id="defs62" />
  <sodipodi:namedview
     pagecolor="#ffffff"
     bordercolor="#666666"
     borderopacity="1"
     objecttolerance="10"
     gridtolerance="10"
     guidetolerance="10"
     inkscape:pageopacity="0"
     inkscape:pageshadow="2"
     inkscape:window-width="1920"
     inkscape:window-height="1017"
     id="namedview60"
     showgrid="false"
     inkscape:zoom="4.17193"
     inkscape:cx="54.487258"
     inkscape:cy="23.538716"
     inkscape:window-x="-8"
     inkscape:window-y="-8"
     inkscape:window-maximized="1"
     inkscape:current-layer="svg58" />
  <path
     d="M 46.974406,6.4349688 V 34.48997 H 35.878258 l -7.212574,-2.509217 c -0.637393,-0.27554 -1.375407,0.01252 -1.6645,0.64932 -0.07044,0.153426 -0.10836,0.320159 -0.111066,0.48924 -7.92e-4,0.30333 0.112618,0.5957 0.316955,0.817228 0.127711,0.14051 0.284835,0.250101 0.459759,0.320942 l 7.711809,3.230161 0.49962,0.721336 v 4.296705 H 4.1749765 V 6.4349688 Z m 0,0"
     id="path2"
     inkscape:connector-curvature="0"
     style="fill:#9bfbff;stroke-width:0.09963301" />
  <path
     d="m 48.55957,38.20898 v 9.907705 H 35.878258 V 38.20898 l -0.499621,-0.721336 -7.711808,-3.230161 c -0.174925,-0.07084 -0.332048,-0.180432 -0.45976,-0.320942 -0.204337,-0.221528 -0.317728,-0.513898 -0.316955,-0.817228 0.0027,-0.169081 0.04064,-0.335814 0.111067,-0.48924 0.289091,-0.636796 1.027106,-0.92486 1.664499,-0.64932 l 7.212574,2.509217 h 12.681313 z m 0,0"
     id="path4"
     inkscape:connector-curvature="0"
     style="fill:#ff7956;stroke-width:0.09963301" />
  <path
     d="m 46.181824,1.6255395 c 1.313101,0 2.377746,1.0763283 2.377746,2.4047141 0,1.3279941 -1.064645,2.4047152 -2.377746,2.4047152 H 4.9675585 c -1.3134879,0 -2.377746,-1.0767211 -2.377746,-2.4047152 0,-1.3283858 1.0642581,-2.4047141 2.377746,-2.4047141 z m 0,0"
     id="path6"
     inkscape:connector-curvature="0"
     style="fill:#c6c5ca;stroke-width:0.09963301" />
  <path
     d="m 45.389243,28.878969 c 0,-2.213715 -1.419528,-4.007857 -3.17033,-4.007857 -1.751187,0 -3.170328,1.794142 -3.170328,4.007857 0,2.213324 1.419141,4.007857 3.170328,4.007857 1.750802,0 3.17033,-1.794533 3.17033,-4.007857 z m 0,0"
     id="path8"
     inkscape:connector-curvature="0"
     style="fill:#d9ccbc;stroke-width:0.09963301" />
  <path
     d="m 27.159855,45.711971 0.792582,2.404714 h -4.755492 l 0.792582,-2.404714 z m 0,0"
     id="path10"
     inkscape:connector-curvature="0"
     style="fill:#c6c5ca;stroke-width:0.09963301" />
  <path
     d="m 25.574692,35.291542 v 2.404714 h -5.548075 l -1.585163,-0.801572 1.585163,-1.603142 z m 0,0"
     id="path12"
     inkscape:connector-curvature="0"
     style="fill:#9bfbff;stroke-width:0.09963301" />
  <path
     d="m 22.76892,11.629135 c 1.799564,1.805885 2.809641,4.265002 2.805772,6.829405 h -9.510986 v 9.618857 C 11.764491,28.073906 8.0024356,25.154481 6.8863191,20.955623 5.7702027,16.757157 7.5775064,12.323075 11.295444,10.140279 15.012994,7.9570927 19.716628,8.5672735 22.76892,11.629135 Z m 0,0"
     id="path14"
     inkscape:connector-curvature="0"
     style="fill:#ffc477;stroke-width:0.09963301" />
  <path
     d="m 21.595916,26.289909 c -1.614191,1.165959 -3.548819,1.791011 -5.53221,1.787488 V 18.45854 h 9.510986 c 0.0031,3.107263 -1.479126,6.024311 -3.978776,7.831369 z m 0,0"
     id="path16"
     inkscape:connector-curvature="0"
     style="fill:#ffda44;stroke-width:0.09963301" />
  <path
     d="m 42.218913,24.069539 c -2.185404,0 -3.96291,2.156965 -3.96291,4.80943 0,2.652075 1.777506,4.80943 3.96291,4.80943 2.185019,0 3.962911,-2.157355 3.962911,-4.80943 0,-2.652465 -1.777892,-4.80943 -3.962911,-4.80943 z m 0,8.015715 c -1.311164,0 -2.377745,-1.438365 -2.377745,-3.206285 0,-1.768311 1.066581,-3.206285 2.377745,-3.206285 1.310781,0 2.377747,1.437974 2.377747,3.206285 0,1.76792 -1.066966,3.206285 -2.377747,3.206285 z m 0,0"
     id="path18"
     inkscape:connector-curvature="0"
     style="stroke-width:0.09963301" />
  <path
     d="M 48.55957,33.688399 H 47.766988 V 6.7907435 C 49.009655,6.0686247 49.616475,4.5907274 49.244178,3.1903253 48.872269,1.7903156 47.615282,0.818879 46.181824,0.82396801 H 4.9675585 C 3.5337126,0.81887807 2.2767271,1.7903156 1.9048173,3.1903253 1.5329074,4.5907274 2.1393411,6.0686247 3.3823944,6.7907435 V 42.505685 c 0,0.442665 0.3544948,0.801572 0.7925821,0.801572 H 24.782109 v 1.603142 h -0.792582 c -0.341336,-4.01e-4 -0.644358,0.220747 -0.752333,0.547949 l -0.792583,2.404715 c -0.08049,0.24462 -0.03985,0.513507 0.109141,0.722118 0.148996,0.209004 0.388164,0.333075 0.643199,0.333075 h 4.755492 c 0.254647,0 0.493816,-0.124071 0.642812,-0.333075 0.148996,-0.208611 0.189632,-0.477498 0.10914,-0.722118 l -0.792582,-2.404715 c -0.107971,-0.327202 -0.410998,-0.54834 -0.751948,-0.547949 h -0.792583 v -1.603142 h 8.718403 v 4.809428 c 0,0.442666 0.354496,0.801571 0.792582,0.801571 H 48.55958 c 0.4377,0 0.792583,-0.358905 0.792583,-0.801571 V 34.48997 c 0,-0.442665 -0.354883,-0.801571 -0.792583,-0.801571 z M 26.852962,47.315114 h -2.556928 l 0.264711,-0.801572 h 2.027507 z M 4.9675585,2.4271111 H 46.181824 c 0.875401,0 1.585164,0.7174214 1.585164,1.6031425 0,0.8853294 -0.709763,1.6031434 -1.585164,1.6031434 H 4.9675585 c -0.8757876,0 -1.5851641,-0.717814 -1.5851641,-1.6031434 0,-0.8857211 0.7093765,-1.6031425 1.5851641,-1.6031425 z m 0,39.2770019 V 7.2365405 H 46.181824 V 33.688399 H 36.010613 l -7.036874,-2.446594 c -1.037556,-0.437186 -2.230686,0.03523 -2.699346,1.068501 -0.223301,0.501373 -0.232976,1.07359 -0.02671,1.582399 0.205886,0.50881 0.60953,0.909596 1.116503,1.108424 l 7.497795,3.138183 0.223687,0.320551 v 3.24425 z M 47.766988,47.315114 H 36.67084 v -9.109265 c -3.97e-4,-0.165168 -0.05109,-0.326421 -0.145127,-0.461844 L 36.02532,37.022671 C 35.93863,36.89899 35.818659,36.802316 35.680112,36.743999 l -7.706389,-3.225856 c -0.167959,-0.06145 -0.281738,-0.220355 -0.28793,-0.400786 0.0027,-0.05519 0.01587,-0.109985 0.03909,-0.160079 0.06191,-0.121333 0.169508,-0.212527 0.297992,-0.253622 0.128871,-0.0411 0.26858,-0.02857 0.388164,0.03483 l 7.212573,2.508826 c 0.08204,0.02818 0.16796,0.04305 0.254648,0.04423 h 11.88873 z m 0,0"
     id="path20"
     inkscape:connector-curvature="0"
     style="stroke-width:0.09963301" />
  <path
     d="M 32.707929,9.6412545 H 44.59666 V 11.244397 H 32.707929 Z m 0,0"
     id="path22"
     inkscape:connector-curvature="0"
     style="stroke-width:0.09963301" />
  <path
     d="M 32.707929,12.847539 H 44.59666 v 1.603143 H 32.707929 Z m 0,0"
     id="path24"
     inkscape:connector-curvature="0"
     style="stroke-width:0.09963301" />
  <path
     d="M 32.707929,16.053825 H 44.59666 v 1.603143 H 32.707929 Z m 0,0"
     id="path26"
     inkscape:connector-curvature="0"
     style="stroke-width:0.09963301" />
  <path
     d="M 32.707929,19.260112 H 44.59666 v 1.603142 H 32.707929 Z m 0,0"
     id="path28"
     inkscape:connector-curvature="0"
     style="stroke-width:0.09963301" />
  <path
     d="m 19.234035,32.085254 v 1.603145 h 3.96291 c 0.4377,0 0.792582,-0.358908 0.792582,-0.801573 v -4.007857 c 0,-0.150294 -0.0418,-0.297458 -0.120744,-0.425053 l -1.226799,-1.983967 c 4.334045,-3.627033 4.978405,-10.104575 1.445842,-14.532396 l 1.64515,-0.693156 h 4.597207 V 9.6412545 h -4.755491 c -0.104875,0 -0.208596,0.020748 -0.305346,0.061447 L 22.912885,10.696054 C 18.970486,7.1245997 12.994,7.1547363 9.0868179,10.766111 c -3.9067947,3.611376 -4.472593,9.628642 -1.3088441,13.920258 3.1633622,4.291226 9.0276182,5.460707 13.5648412,2.704913 l 1.061547,1.71743 v 2.976537 z M 7.3453046,18.45854 c -0.00619,-3.334271 1.851422,-6.385174 4.7972894,-7.881075 2.946254,-1.4962939 6.474946,-1.1804399 9.115467,0.816052 l -5.499698,2.317043 0.610303,1.479853 6.181985,-2.604323 c 1.252728,1.406663 2.020929,3.185542 2.190824,5.070878 h -8.677769 c -0.438086,0 -0.792582,0.358907 -0.792582,0.801572 v 8.77619 C 10.784987,26.816724 7.3511096,23.014346 7.3453046,18.45854 Z m 9.5109854,8.77619 v -7.974618 h 7.885185 c -0.204725,2.255203 -1.262017,4.343671 -2.951672,5.830572 l -1.883931,-3.046207 -1.347156,0.849712 1.941593,3.142098 c -1.110698,0.670455 -2.356075,1.079852 -3.644019,1.198443 z m 0,0"
     id="path30"
     inkscape:connector-curvature="0"
     style="stroke-width:0.09963301" />
  <path
     d="M 5.7601405,29.680541 H 18.441454 v 1.603142 H 5.7601405 Z m 0,0"
     id="path32"
     inkscape:connector-curvature="0"
     style="stroke-width:0.09963301" />
  <path
     d="M 5.7601405,32.886826 H 18.441454 V 34.48997 H 5.7601405 Z m 0,0"
     id="path34"
     inkscape:connector-curvature="0"
     style="stroke-width:0.09963301" />
  <path
     d="M 5.7601405,36.093114 H 18.441454 v 1.603142 H 5.7601405 Z m 0,0"
     id="path36"
     inkscape:connector-curvature="0"
     style="stroke-width:0.09963301" />
  <path
     d="M 5.7601405,39.299399 H 18.441454 v 1.603142 H 5.7601405 Z m 0,0"
     id="path38"
     inkscape:connector-curvature="0"
     style="stroke-width:0.09963301" />
  <path
     d="m 27.952437,22.466397 h 7.133239 v 1.603142 h -7.133239 z m 0,0"
     id="path40"
     inkscape:connector-curvature="0"
     style="stroke-width:0.09963301" />
  <path
     d="m 27.952437,24.871112 h 7.133239 v 1.603143 h -7.133239 z m 0,0"
     id="path42"
     inkscape:connector-curvature="0"
     style="stroke-width:0.09963301" />
  <path
     d="m 27.952437,27.275827 h 7.133239 v 1.603142 h -7.133239 z m 0,0"
     id="path44"
     inkscape:connector-curvature="0"
     style="stroke-width:0.09963301" />
  <path
     d="m 20.026617,34.48997 h 5.548075 v 1.603144 h -5.548075 z m 0,0"
     id="path46"
     inkscape:connector-curvature="0"
     style="stroke-width:0.09963301" />
  <path
     d="m 20.026617,36.894684 h 5.548075 v 1.603143 h -5.548075 z m 0,0"
     id="path48"
     inkscape:connector-curvature="0"
     style="stroke-width:0.09963301" />
  <path
     d="m 20.026617,39.299399 h 5.548075 v 1.603142 h -5.548075 z m 0,0"
     id="path50"
     inkscape:connector-curvature="0"
     style="stroke-width:0.09963301" />
  <path
     d="m 45.389243,44.910399 h 1.585163 v 1.603143 h -1.585163 z m 0,0"
     id="path52"
     inkscape:connector-curvature="0"
     style="stroke-width:0.09963301" />
  <path
     d="m 43.011495,44.910399 h 1.585165 v 1.603143 h -1.585165 z m 0,0"
     id="path54"
     inkscape:connector-curvature="0"
     style="stroke-width:0.09963301" />
  <path
     d="m 45.389243,42.505685 h 1.585163 v 1.603144 h -1.585163 z m 0,0"
     id="path56"
     inkscape:connector-curvature="0"
     style="stroke-width:0.09963301" />
</svg>
