<?xml version="1.0"?>
<svg xmlns="http://www.w3.org/2000/svg" height="512px" viewBox="0 -68 512.001 512" width="512px" class=""><g><path d="m462 67.5c-7.261719 0-234.496094 0-234.5 0v141.5l253 158.5 9.726562-.015625c8.066407-.382813 14.273438-7.332031 14.273438-15.40625v-242.078125c0-23.472656-19.027344-42.5-42.5-42.5zm0 0" fill="#ff983b" data-original="#FF983B" class="" style="fill:#374957" data-old_color="#ff983b"/><path d="m121 7.5h270c8.285156 0 15 6.714844 15 15v115.003906h-300v-115.003906c0-8.285156 6.714844-15 15-15zm0 0" fill="#fff9eb" data-original="#FFF9EB"/><path d="m474.5 352.5v-240c0-8.285156-6.714844-15-15-15h-211.996094l-31.097656-46.640625c-5.5625-8.347656-14.929688-13.359375-24.960938-13.359375h-127.886718c-10.03125 0-19.398438 5.011719-24.960938 13.359375l-31.097656 46.640625v255c0 8.285156 6.714844 15 15 15h467.726562v-.015625c-8.617187.402344-15.726562-6.457031-15.726562-14.984375zm0 0" fill="#ffcf5d" data-original="#FFCF5D" class="active-path" style="fill:#3F5668" data-old_color="#ffcf5d"/><path d="m490.226562 367.484375c-8.617187.40625-15.726562-6.457031-15.726562-14.984375v-240c0-8.285156-6.714844-15-15-15h-15v210c0 16.570312-13.429688 30-30 30h-407v15c0 8.285156 6.714844 15 15 15h467.726562zm0 0" fill="#ff983b" data-original="#FF983B" class="" style="fill:#374957" data-old_color="#ff983b"/><path d="m462 60h-48.5v-37.5c0-12.40625-10.09375-22.5-22.5-22.5h-270c-12.40625 0-22.5 10.09375-22.5 22.5v7.5h-34.941406c-12.566406 0-24.230469 6.242188-31.203125 16.699219l-31.09375 46.640625c-.824219 1.230468-1.261719 2.679687-1.261719 4.160156v255c0 12.40625 10.09375 22.5 22.5 22.5h467.726562c.429688 0 .847657-.042969 1.257813-.113281 11.570313-1.019531 20.515625-10.847657 20.515625-22.808594v-242.078125c0-27.570312-22.429688-50-50-50zm-348.5-37.5c0-4.136719 3.363281-7.5 7.5-7.5h270c4.136719 0 7.5 3.363281 7.5 7.5v67.5h-146.984375l-28.871094-43.300781c-6.96875-10.457031-18.632812-16.699219-31.199219-16.699219h-77.945312zm-98.5 330v-252.726562l29.835938-44.753907c4.183593-6.273437 11.183593-10.019531 18.722656-10.019531h127.886718c7.539063 0 14.539063 3.746094 18.71875 10.019531l31.097657 46.640625c1.390625 2.089844 3.730469 3.339844 6.242187 3.339844h211.996094c4.136719 0 7.5 3.367188 7.5 7.5v225c0 4.144531 3.355469 7.5 7.5 7.5s7.5-3.355469 7.5-7.5v-225c0-12.40625-10.09375-22.5-22.5-22.5h-46v-15h48.5c19.300781 0 35 15.703125 35 35v242.078125c0 4.175781-3.195312 7.726563-7.128906 7.914063-.03125 0-.066406.007812-.097656.007812h-467.273438c-4.136719 0-7.5-3.363281-7.5-7.5zm0 0" fill="#020201" data-original="#020201" class=""/></g> </svg>
