<?xml version="1.0" encoding="UTF-8" standalone="no"?>
<svg
   xmlns:dc="http://purl.org/dc/elements/1.1/"
   xmlns:cc="http://creativecommons.org/ns#"
   xmlns:rdf="http://www.w3.org/1999/02/22-rdf-syntax-ns#"
   xmlns:svg="http://www.w3.org/2000/svg"
   xmlns="http://www.w3.org/2000/svg"
   xmlns:sodipodi="http://sodipodi.sourceforge.net/DTD/sodipodi-0.dtd"
   xmlns:inkscape="http://www.inkscape.org/namespaces/inkscape"
   viewBox="0 0 45 45"
   width="45"
   height="45"
   class=""
   version="1.1"
   id="svg28"
   sodipodi:docname="projects.svg"
   inkscape:version="0.92.4 (5da689c313, 2019-01-14)">
  <metadata
     id="metadata34">
    <rdf:RDF>
      <cc:Work
         rdf:about="">
        <dc:format>image/svg+xml</dc:format>
        <dc:type
           rdf:resource="http://purl.org/dc/dcmitype/StillImage" />
        <dc:title></dc:title>
      </cc:Work>
    </rdf:RDF>
  </metadata>
  <defs
     id="defs32" />
  <sodipodi:namedview
     pagecolor="#ffffff"
     bordercolor="#666666"
     borderopacity="1"
     objecttolerance="10"
     gridtolerance="10"
     guidetolerance="10"
     inkscape:pageopacity="0"
     inkscape:pageshadow="2"
     inkscape:window-width="1920"
     inkscape:window-height="1017"
     id="namedview30"
     showgrid="false"
     inkscape:zoom="7.375"
     inkscape:cx="66.766189"
     inkscape:cy="41.472135"
     inkscape:window-x="-8"
     inkscape:window-y="-8"
     inkscape:window-maximized="1"
     inkscape:current-layer="svg28" />
  <g
     id="g26"
     transform="matrix(0.0850106,0,0,0.0850106,0.81355936,1.0677964)">
    <path
       d="m 462.25,10 h -412 c -22.089844,0 -40,17.910156 -40,40 v 266 h 492 V 50 c 0,-22.089844 -17.91016,-40 -40,-40 z m 0,0"
       data-original="#FFF"
       class=""
       data-old_color="#fff"
       style="fill:#5f7d95"
       id="path2"
       inkscape:connector-curvature="0" />
    <path
       d="m 502.25,316 v 40 c 0,22.08984 -17.91016,40 -40,40 -18.03125,0 -391.894531,0 -412,0 -22.089844,0 -40,-17.91016 -40,-40 v -40 z m 0,0"
       data-original="#3A5361"
       class=""
       style="fill:#374957"
       data-old_color="#3a5361"
       id="path4"
       inkscape:connector-curvature="0" />
    <path
       d="m 436.25,316 h -80 V 76 h 80 z m 0,0"
       data-original="#F6D465"
       class="active-path"
       style="fill:#374957"
       data-old_color="#f6d465"
       id="path6"
       inkscape:connector-curvature="0" />
    <path
       d="m 356.25,502 h -200 c 0,-22.07813 17.91797,-40 40,-40 h 120 c 22.08984,0 40,17.91016 40,40 z m 0,0"
       data-original="#3A5361"
       class=""
       style="fill:#374957"
       data-old_color="#3a5361"
       id="path8"
       inkscape:connector-curvature="0" />
    <path
       d="m 292.57031,135.33984 c 15.2461,26.44922 -3.75781,59.96875 -34.66015,59.96875 -30.98047,0 -49.8711,-33.59765 -34.67188,-59.96875 l 34.67188,-60.031246 z m 0,0"
       data-original="#F6D465"
       class="active-path"
       style="fill:#374957"
       data-old_color="#f6d465"
       id="path10"
       inkscape:connector-curvature="0" />
    <path
       d="m 216.25,396 h 80 v 66 h -80 z m 0,0"
       data-original="#3A5361"
       class=""
       style="fill:#374957"
       data-old_color="#3a5361"
       id="path12"
       inkscape:connector-curvature="0" />
    <path
       d="m 286.25,316 h -60 c 0,-14.44141 0.33984,-27.80078 0.89062,-40 h 58.25782 c 0.53125,12.14844 0.85156,25.5 0.85156,40 z m 0,0"
       data-original="#3A5361"
       class=""
       style="fill:#374957"
       data-old_color="#3a5361"
       id="path14"
       inkscape:connector-curvature="0" />
    <path
       d="m 116.25,76 40,80 c -9.67969,0 -70.257812,0 -80,0 z m 0,0"
       data-original="#F6D465"
       class="active-path"
       style="fill:#374957"
       data-old_color="#f6d465"
       id="path16"
       inkscape:connector-curvature="0" />
    <path
       d="m 76.25,156 v 160 h 80 V 156 c -9.67969,0 -70.257812,0 -80,0 z m 0,0"
       data-original="#6EBA7B"
       class=""
       style="fill:#374957"
       data-old_color="#6eba7b"
       id="path18"
       inkscape:connector-curvature="0" />
    <path
       d="m 316,346 c -5.51953,0 -10,4.48047 -10,10 0,5.51953 4.48047,10 10,10 5.51953,0 10,-4.48047 10,-10 0,-5.51953 -4.48047,-10 -10,-10 z m 0,0"
       data-original="#000000"
       class=""
       id="path20"
       inkscape:connector-curvature="0" />
    <path
       d="M 462,0 H 50 C 22.429688,0 0,22.429688 0,50 v 306 c 0,27.57031 22.429688,50 50,50 h 156 v 46 h -10 c -13.35156,0 -25.90234,5.20312 -35.35156,14.64844 C 151.20312,476.09766 146,488.64844 146,502 c 0,5.52344 4.47656,10 10,10 h 200 c 5.52344,0 10,-4.47656 10,-10 0,-27.57031 -22.42969,-50 -50,-50 h -10 v -46 h 156 c 27.57031,0 50,-22.42969 50,-50 V 50 C 512,22.429688 489.57031,0 462,0 Z M 50,20 h 412 c 16.54297,0 30,13.457031 30,30 V 306 H 446 V 76 c 0,-5.523438 -4.47656,-10 -10,-10 h -80 c -5.52344,0 -10,4.476562 -10,10 v 230 h -50.05469 c -0.10547,-10.34375 -0.375,-20.53906 -0.80469,-30.42969 -1.75,-40.72656 -5.73828,-68.00781 -7.8125,-80.00781 20.63282,-15.19141 26.26563,-43.34766 13.65235,-65.22266 L 266.32031,70.308594 c -1.78906,-3.09375 -5.08984,-5 -8.66015,-5 -3.57422,0 -6.875,1.90625 -8.66016,5 l -34.67578,60.035156 c -11.89063,20.625 -7.67578,47.33984 11.0039,63.10547 -2.16406,11.96484 -6.53125,40.22265 -8.42968,82.10156 C 216.44922,285.54687 216.16406,295.75 216.05469,306 H 166 V 156 c 0,-1.58594 -0.375,-3.03125 -0.98828,-4.31641 -0.0273,-0.0508 -0.043,-0.10547 -0.0664,-0.15625 l -40,-79.999996 C 123.25,68.140625 119.78906,66 116,66 c -3.78906,0 -7.25,2.140625 -8.94531,5.527344 L 67.054688,151.52734 c -0.02344,0.0508 -0.03906,0.10547 -0.0625,0.15625 C 66.367188,152.98047 66,154.44922 66,156 V 306 H 20 V 50 C 20,33.457031 33.457031,20 50,20 Z M 366,306 V 86 h 60 v 20 h -10 c -5.52344,0 -10,4.47656 -10,10 0,5.52344 4.47656,10 10,10 h 10 v 30 h -10 c -5.52344,0 -10,4.47656 -10,10 0,5.52344 4.47656,10 10,10 h 10 v 30 h -10 c -5.52344,0 -10,4.47656 -10,10 0,5.52344 4.47656,10 10,10 h 10 v 40 h -10 c -5.52344,0 -10,4.47656 -10,10 0,5.52344 4.47656,10 10,10 h 10 v 20 z M 257.66016,205.30859 c 3.63281,0 7.25,-0.41797 10.78906,-1.19922 1.85547,11.89454 4.58203,32.94141 6.19531,61.89063 h -37.22265 c 1.6914,-28.92969 4.54687,-50.30469 6.51953,-62.60156 4.42968,1.26172 9.04297,1.91015 13.71875,1.91015 z m 0,-20 c -22.85547,0 -37.59375,-24.875 -26.01172,-44.96875 l 26.01172,-45.031246 25.99609,45.027346 c 11.53906,20.01172 -2.99609,44.97265 -25.99609,44.97265 z M 236.50391,286 h 39.01953 c 0.21094,6.57031 0.35547,13.25391 0.42578,20 h -39.89453 c 0.0742,-6.70313 0.22656,-13.38672 0.44922,-20 z M 126,306 V 166 h 20 v 140 z m -40,0 V 166 h 20 V 306 Z M 92.179688,146 116,98.359375 139.82031,146 Z M 344.28516,492 H 167.70313 c 1.46875,-4.16797 3.86718,-7.98828 7.08593,-11.21094 C 180.46094,475.12109 187.99219,472 196,472 h 120 c 13.03906,0 24.16016,8.35937 28.28516,20 z M 286,452 h -60 v -46 h 60 z M 462,386 H 50 C 33.457031,386 20,372.54297 20,356 v -30 h 472 v 30 c 0,16.54297 -13.45703,30 -30,30 z m 0,0"
       data-original="#000000"
       class=""
       id="path22"
       inkscape:connector-curvature="0" />
    <path
       d="m 276,346 h -60 c -5.52344,0 -10,4.47656 -10,10 0,5.52344 4.47656,10 10,10 h 60 c 5.52344,0 10,-4.47656 10,-10 0,-5.52344 -4.47656,-10 -10,-10 z m 0,0"
       data-original="#000000"
       class=""
       id="path24"
       inkscape:connector-curvature="0" />
  </g>
</svg>
