<svg height="480pt" viewBox="0 0 480.01213 480" width="480pt" xmlns="http://www.w3.org/2000/svg"><path d="m456.007812 56.007812v280h-112l-72.800781-25.042968c-6.433593-2.75-13.882812.125-16.800781 6.480468-.710938 1.53125-1.09375 3.195313-1.121094 4.882813-.007812 3.027344 1.136719 5.945313 3.199219 8.15625 1.289063 1.402344 2.875 2.496094 4.640625 3.203125l77.839844 32.238281 5.042968 7.199219v42.882812h-320v-360zm0 0" fill="#9bfbff"/><path d="m472.007812 373.125v98.882812h-128v-98.882812l-5.042968-7.199219-77.839844-32.238281c-1.765625-.707031-3.351562-1.800781-4.640625-3.203125-2.0625-2.210937-3.207031-5.128906-3.199219-8.15625.027344-1.6875.410156-3.351563 1.121094-4.882813 2.917969-6.355468 10.367188-9.230468 16.800781-6.480468l72.800781 25.042968h128zm0 0" fill="#ff7956"/><path d="m448.007812 8.007812c13.253907 0 24 10.742188 24 24 0 13.253907-10.746093 24-24 24h-416c-13.257812 0-24-10.746093-24-24 0-13.257812 10.742188-24 24-24zm0 0" fill="#c6c5ca"/><path d="m440.007812 280.007812c0-22.09375-14.328124-40-32-40-17.675781 0-32 17.90625-32 40 0 22.089844 14.324219 40 32 40 17.671876 0 32-17.910156 32-40zm0 0" fill="#d9ccbc"/><path d="m256.007812 448.007812 8 24h-48l8-24zm0 0" fill="#c6c5ca"/><path d="m240.007812 344.007812v24h-56l-16-8 16-16zm0 0" fill="#9bfbff"/><path d="m211.6875 107.847656c18.164062 18.023438 28.359375 42.566406 28.320312 68.160156h-96v96c-43.394531-.035156-81.367187-29.171874-92.632812-71.078124-11.265625-41.902344 6.976562-86.15625 44.503906-107.941407 37.523438-21.789062 85-15.699219 115.808594 14.859375zm0 0" fill="#ffc477"/><path d="m199.847656 254.167969c-16.292968 11.636719-35.820312 17.875-55.839844 17.839843v-96h96c.03125 31.011719-14.929687 60.125-40.160156 78.160157zm0 0" fill="#ffda44"/><path d="m408.007812 232.007812c-22.058593 0-40 21.527344-40 48 0 26.46875 17.941407 48 40 48 22.054688 0 40-21.53125 40-48 0-26.472656-17.945312-48-40-48zm0 80c-13.234374 0-24-14.355468-24-32 0-17.648437 10.765626-32 24-32 13.230469 0 24 14.351563 24 32 0 17.644532-10.769531 32-24 32zm0 0"/><path d="m472.007812 328.007812h-8v-268.449218c12.542969-7.207032 18.667969-21.957032 14.910157-35.933594-3.753907-13.972656-16.441407-23.6679688-30.910157-23.6171875h-416c-14.472656-.0507813-27.160156 9.6445315-30.914062 23.6171875-3.753906 13.976562 2.367188 28.726562 14.914062 35.933594v356.449218c0 4.417969 3.578126 8 8 8h208v16h-8c-3.445312-.003906-6.503906 2.203126-7.59375 5.46875l-8 24c-.8125 2.441407-.402343 5.125 1.101563 7.207032 1.503906 2.085937 3.917969 3.324218 6.492187 3.324218h48c2.570313 0 4.984376-1.238281 6.488282-3.324218 1.503906-2.082032 1.914062-4.765625 1.101562-7.207032l-8-24c-1.089844-3.265624-4.148437-5.472656-7.589844-5.46875h-8v-16h88v48c0 4.417969 3.578126 8 8 8h128c4.417969 0 8-3.582031 8-8v-136c0-4.417968-3.582031-8-8-8zm-219.097656 136h-25.808594l2.671876-8h20.464843zm-220.902344-448h416c8.835938 0 16 7.160157 16 16 0 8.835938-7.164062 16-16 16h-416c-8.839843 0-16-7.164062-16-16 0-8.839843 7.160157-16 16-16zm0 392v-344h416v264h-102.664062l-71.027344-24.417968c-10.472656-4.363282-22.515625.351562-27.246094 10.664062-2.253906 5.003906-2.351562 10.714844-.269531 15.792969 2.078125 5.078125 6.152344 9.078125 11.269531 11.0625l75.679688 31.320313 2.257812 3.199218v32.378906zm432 56h-112v-90.914062c-.003906-1.648438-.515624-3.257812-1.464843-4.609375l-5.050781-7.199219c-.875-1.234375-2.085938-2.199218-3.484376-2.78125l-77.785156-32.195312c-1.695312-.613282-2.84375-2.199219-2.90625-4 .027344-.550782.160156-1.097656.394532-1.597656.625-1.210938 1.710937-2.121094 3.007812-2.53125 1.300781-.410157 2.710938-.285157 3.917969.347656l72.800781 25.039062c.828125.28125 1.695312.429688 2.570312.441406h120zm0 0"/><path d="m312.007812 88.007812h120v16h-120zm0 0"/><path d="m312.007812 120.007812h120v16h-120zm0 0"/><path d="m312.007812 152.007812h120v16h-120zm0 0"/><path d="m312.007812 184.007812h120v16h-120zm0 0"/><path d="m176.007812 312.007812v16h40c4.417969 0 8-3.582031 8-8v-40c0-1.5-.421874-2.96875-1.21875-4.242187l-12.382812-19.800781c43.746094-36.199219 50.25-100.847656 14.59375-145.039063l16.605469-6.917969h46.402343v-16h-48c-1.058593 0-2.105468.207032-3.082031.613282l-23.785156 9.914062c-39.792969-35.644531-100.117187-35.34375-139.554687.699219-39.433594 36.042969-45.144532 96.097656-13.210938 138.929687 31.929688 42.828126 91.121094 54.5 136.917969 26.996094l10.714843 17.140625v29.707031zm-120-136c-.0625-33.277343 18.6875-63.726562 48.421876-78.65625 29.738281-14.933593 65.355468-11.78125 92.007812 8.144532l-55.511719 23.125 6.160157 14.769531 62.398437-25.992187c12.644531 14.039062 20.398437 31.792968 22.113281 50.609374h-87.589844c-4.421874 0-8 3.582032-8 8v87.589844c-45.28125-4.171875-79.941406-42.121094-80-87.589844zm96 87.589844v-79.589844h79.589844c-2.066406 22.507813-12.738281 43.351563-29.792968 58.191407l-19.015626-30.402344-13.597656 8.480469 19.597656 31.359375c-11.210937 6.691406-23.78125 10.777343-36.78125 11.960937zm0 0"/><path d="m40.007812 288.007812h128v16h-128zm0 0"/><path d="m40.007812 320.007812h128v16h-128zm0 0"/><path d="m40.007812 352.007812h128v16h-128zm0 0"/><path d="m40.007812 384.007812h128v16h-128zm0 0"/><path d="m264.007812 216.007812h72v16h-72zm0 0"/><path d="m264.007812 240.007812h72v16h-72zm0 0"/><path d="m264.007812 264.007812h72v16h-72zm0 0"/><path d="m184.007812 336.007812h56v16h-56zm0 0"/><path d="m184.007812 360.007812h56v16h-56zm0 0"/><path d="m184.007812 384.007812h56v16h-56zm0 0"/><path d="m440.007812 440.007812h16v16h-16zm0 0"/><path d="m416.007812 440.007812h16v16h-16zm0 0"/><path d="m440.007812 416.007812h16v16h-16zm0 0"/></svg>