<?xml version="1.0"?>
<svg xmlns="http://www.w3.org/2000/svg" height="512px" viewBox="0 0 64 64" width="512px" class=""><g><rect fill="#57a4ff" height="58" rx="4" width="36" x="5" y="3" data-original="#57A4FF" class="" style="fill:#57A4FF"/><path d="m5 26v31a4 4 0 0 0 4 4h27.4c-18.02-3.79-31.4-18.006-31.4-35z" fill="#2488ff" data-original="#2488FF" class=""/><path d="m14 9h18a2 2 0 0 0 2-2v-4h-22v4a2 2 0 0 0 2 2z" fill="#6d6e71" data-original="#6D6E71"/><circle cx="41" cy="32" fill="#ffcd00" r="18" data-original="#FFCD00" class="active-path" style="fill:#2488FF" data-old_color="#ffcd00"/><path d="m53 25a2 2 0 0 0 -2-2h-20a2 2 0 0 0 -2 2v2h24z" fill="#ff3051" data-original="#FF3051" class=""/><path d="m29 27v12a2 2 0 0 0 2 2h20a2 2 0 0 0 2-2v-12z" fill="#f1f2f2" data-original="#F1F2F2" class=""/><path d="m44 60h6v2h-6z" data-original="#000000" class="" style="fill:#000000"/><path d="m48 52h-2v2h-2v2h2v2h2v-2h2v-2h-2z" data-original="#000000" class="" style="fill:#000000"/><path d="m34 56h-22a1 1 0 0 0 0 2h22a1 1 0 0 0 0-2z" data-original="#000000" class="" style="fill:#000000"/><path d="m18 31h2v2h-2z" data-original="#000000" class="" style="fill:#000000"/><path d="m18.75 36.694h2v2h-2z" transform="matrix(.966 -.259 .259 .966 -9.083 6.396)" data-original="#000000" class="" style="fill:#000000"/><path d="m20.948 42h2v2h-2z" transform="matrix(.866 -.5 .5 .866 -18.56 16.736)" data-original="#000000" class="" style="fill:#000000"/><path d="m24.443 46.557h2v2h-2z" transform="matrix(.707 -.707 .707 .707 -26.175 31.92)" data-original="#000000" class="" style="fill:#000000"/><path d="m29 50.052h2v2h-2z" transform="matrix(.5 -.866 .866 .5 -29.213 51.512)" data-original="#000000" class="" style="fill:#000000"/><path d="m18.75 25.306h2v2h-2z" transform="matrix(.259 -.966 .966 .259 -10.772 38.574)" data-original="#000000" class="" style="fill:#000000"/><path d="m20.947 20h2v2h-2z" transform="matrix(.5 -.866 .866 .5 -7.213 29.506)" data-original="#000000" class="" style="fill:#000000"/><path d="m24.444 15.443h2v2h-2z" transform="matrix(.707 -.707 .707 .707 -4.175 22.808)" data-original="#000000" class="" style="fill:#000000"/><path d="m29 11.948h2v2h-2z" transform="matrix(.866 -.5 .5 .866 -2.454 16.736)" data-original="#000000" class="" style="fill:#000000"/><path d="m51 12a1 1 0 0 1 1 1 1 1 0 0 0 2 0 3 3 0 0 0 -3-3 1 1 0 0 0 0 2z" data-original="#000000" class="" style="fill:#000000"/><path d="m51 2a1 1 0 0 0 0 2 9.011 9.011 0 0 1 9 9 1 1 0 0 0 2 0 11.013 11.013 0 0 0 -11-11z" data-original="#000000" class="" style="fill:#000000"/><path d="m51 8a5.006 5.006 0 0 1 5 5 1 1 0 0 0 2 0 7.008 7.008 0 0 0 -7-7 1 1 0 0 0 0 2z" data-original="#000000" class="" style="fill:#000000"/><path d="m31 22a3 3 0 0 0 -3 3v14a3 3 0 0 0 3 3h20a3 3 0 0 0 3-3v-14a3 3 0 0 0 -3-3zm21 17a1 1 0 0 1 -1 1h-20a1 1 0 0 1 -1-1v-11h22zm0-14v1h-22v-1a1 1 0 0 1 1-1h20a1 1 0 0 1 1 1z" data-original="#000000" class="" style="fill:#000000"/><path d="m36.4 37.8a1 1 0 1 0 1.2-1.6l-2.933-2.2 2.933-2.2a1 1 0 1 0 -1.2-1.6l-4 3a1 1 0 0 0 0 1.6z" data-original="#000000" class="" style="fill:#000000"/><path d="m44.2 37.6a1 1 0 0 0 1.4.2l4-3a1 1 0 0 0 0-1.6l-4-3a1 1 0 0 0 -1.2 1.6l2.933 2.2-2.933 2.2a1 1 0 0 0 -.2 1.4z" data-original="#000000" class="" style="fill:#000000"/><path d="m39.757 38.97a.976.976 0 0 0 .243.03 1 1 0 0 0 .969-.757l2-8a1 1 0 0 0 -1.94-.486l-2 8a1 1 0 0 0 .728 1.213z" data-original="#000000" class="" style="fill:#000000"/><path d="m42 13.051v-6.051a5.006 5.006 0 0 0 -5-5h-28a5.006 5.006 0 0 0 -5 5v50a5.006 5.006 0 0 0 5 5h28a5.006 5.006 0 0 0 5-5v-6.051a18.974 18.974 0 0 0 0-37.9zm-29-9.051h20v3a1 1 0 0 1 -1 1h-18a1 1 0 0 1 -1-1zm24 56h-28a3 3 0 0 1 -3-3v-50a3 3 0 0 1 3-3h2v3a3 3 0 0 0 3 3h18a3 3 0 0 0 3-3v-3h2a3 3 0 0 1 3 3v6.051a18.974 18.974 0 0 0 0 37.9v6.049a3 3 0 0 1 -3 3zm4-11a17 17 0 1 1 17-17 17.019 17.019 0 0 1 -17 17z" data-original="#000000" class="" style="fill:#000000"/></g> </svg>
