<?xml version="1.0" encoding="UTF-8" standalone="no"?>
<!-- Generator: Adobe Illustrator 19.0.0, SVG Export Plug-In . SVG Version: 6.00 Build 0)  -->

<svg
   xmlns:dc="http://purl.org/dc/elements/1.1/"
   xmlns:cc="http://creativecommons.org/ns#"
   xmlns:rdf="http://www.w3.org/1999/02/22-rdf-syntax-ns#"
   xmlns:svg="http://www.w3.org/2000/svg"
   xmlns="http://www.w3.org/2000/svg"
   xmlns:sodipodi="http://sodipodi.sourceforge.net/DTD/sodipodi-0.dtd"
   xmlns:inkscape="http://www.inkscape.org/namespaces/inkscape"
   version="1.1"
   id="Capa_1"
   x="0px"
   y="0px"
   viewBox="0 0 50 50"
   xml:space="preserve"
   sodipodi:docname="react.svg"
   inkscape:version="0.92.4 (5da689c313, 2019-01-14)"
   width="50"
   height="50"><metadata
   id="metadata49"><rdf:RDF><cc:Work
       rdf:about=""><dc:format>image/svg+xml</dc:format><dc:type
         rdf:resource="http://purl.org/dc/dcmitype/StillImage" /><dc:title></dc:title></cc:Work></rdf:RDF></metadata><defs
   id="defs47">
	
	
	
	
</defs><sodipodi:namedview
   pagecolor="#ffffff"
   bordercolor="#666666"
   borderopacity="1"
   objecttolerance="10"
   gridtolerance="10"
   guidetolerance="10"
   inkscape:pageopacity="0"
   inkscape:pageshadow="2"
   inkscape:window-width="1920"
   inkscape:window-height="1017"
   id="namedview45"
   showgrid="false"
   inkscape:zoom="5.2149125"
   inkscape:cx="35.718952"
   inkscape:cy="5.4963092"
   inkscape:window-x="-8"
   inkscape:window-y="-8"
   inkscape:window-maximized="1"
   inkscape:current-layer="g896" />


<g
   id="g14"
   transform="translate(0,-462)">
</g>
<g
   id="g16"
   transform="translate(0,-462)">
</g>
<g
   id="g18"
   transform="translate(0,-462)">
</g>
<g
   id="g20"
   transform="translate(0,-462)">
</g>
<g
   id="g22"
   transform="translate(0,-462)">
</g>
<g
   id="g24"
   transform="translate(0,-462)">
</g>
<g
   id="g26"
   transform="translate(0,-462)">
</g>
<g
   id="g28"
   transform="translate(0,-462)">
</g>
<g
   id="g30"
   transform="translate(0,-462)">
</g>
<g
   id="g32"
   transform="translate(0,-462)">
</g>
<g
   id="g34"
   transform="translate(0,-462)">
</g>
<g
   id="g36"
   transform="translate(0,-462)">
</g>
<g
   id="g38"
   transform="translate(0,-462)">
</g>
<g
   id="g40"
   transform="translate(0,-462)">
</g>
<g
   id="g42"
   transform="translate(0,-462)">
</g>
<g
   id="g896"
   transform="translate(-125.83051,-722.33898)"><g
     id="g906"
     transform="matrix(0.09460095,0,0,0.09422643,115.07738,698.4137)"><path
       transform="translate(125.83051,260.33898)"
       id="path2"
       d="m 512,256 c 0,84.344 -40.793,159.159 -103.717,205.803 -26.342,19.519 -56.56,34.105 -89.287,42.381 C 298.841,509.294 277.744,512 256,512 c -21.744,0 -42.851,-2.706 -63.007,-7.816 -32.726,-8.276 -62.945,-22.862 -89.287,-42.392 C 40.782,415.148 0,340.334 0,256 0,114.615 114.615,0 256,0 397.385,0 512,114.615 512,256 Z"
       style="fill:#5adafd"
       inkscape:connector-curvature="0" /><path
       inkscape:connector-curvature="0"
       id="path4"
       d="m 522.92525,622.19361 c -1.11803,-7.49323 -2.5951,-15.21064 -4.4219,-23.10197 -1.6138,-6.92957 -3.48897,-13.99587 -5.61714,-21.16821 -5.59853,-18.8354 -12.97457,-38.40934 -21.91604,-58.19721 -3.91683,-8.65034 -8.13503,-17.33881 -12.63507,-26.01797 -3.9652,-7.64857 -8.14433,-15.30737 -12.54763,-22.91781 -4.39307,-7.61973 -8.92194,-15.0646 -13.5773,-22.32437 -5.25811,-8.23177 -10.67154,-16.22077 -16.21147,-23.93817 -12.65461,-17.64017 -25.92031,-33.82188 -39.43995,-48.09028 -5.1409,-5.43297 -10.3218,-10.5841 -15.5213,-15.43387 -5.9185,-5.53993 -11.86677,-10.68084 -17.80574,-15.3948 -38.76931,-30.78031 -73.47575,-40.02314 -97.74412,-26.01797 -24.26837,14.01447 -33.61817,48.69207 -26.34817,97.66692 1.1078,7.49323 2.5951,15.21063 4.43213,23.10197 1.59427,6.92957 3.46944,13.99587 5.60784,21.1682 5.59853,18.83541 12.97457,38.41958 21.92627,58.19722 3.90753,8.65033 8.1248,17.32857 12.62483,26.00774 3.9652,7.6588 8.15457,15.30737 12.54764,22.92711 4.39307,7.61973 8.92193,15.0646 13.5773,22.32437 5.2674,8.242 10.68084,16.231 16.21147,23.94747 12.6546,17.64017 25.92031,33.81258 39.43994,48.08005 5.14184,5.43296 10.33111,10.5934 15.53061,15.44317 5.9185,5.53993 11.86677,10.67153 17.7955,15.3855 14.25817,11.32264 27.96198,19.72927 40.80075,25.1241 30.43987,-7.69786 58.54787,-21.26494 83.04878,-39.42041 3.42014,-15.76314 3.54664,-35.07477 0.24277,-57.35078 z m -21.82954,53.81438 c -2.82856,12.22673 -8.02806,20.60454 -15.4627,24.89064 -7.42534,4.2954 -17.28021,4.607 -29.28371,0.95246 -13.00433,-3.97543 -28.1852,-12.6639 -43.91021,-25.15293 -5.28693,-4.19867 -10.5841,-8.76661 -15.88127,-13.67497 -5.1902,-4.82094 -10.3804,-9.97207 -15.5306,-15.42457 -8.84474,-9.3591 -17.59181,-19.6037 -26.12494,-30.59521 -5.69527,-7.3379 -11.3031,-15.006 -16.77514,-22.96617 -7.94063,-11.53657 -15.60874,-23.68517 -22.89827,-36.32024 -7.29883,-12.63507 -13.98564,-25.34734 -20.0018,-37.99171 -4.15961,-8.71824 -7.99924,-17.40671 -11.49751,-26.00774 -5.2581,-12.88714 -9.75813,-25.59011 -13.4415,-37.92381 -2.1384,-7.19187 -4.01357,-14.24794 -5.579,-21.15797 -1.6138,-7.03654 -2.9253,-13.91774 -3.91683,-20.59431 -2.95414,-19.85577 -2.88624,-37.34991 0.17486,-50.59701 2.82857,-12.22674 8.03737,-20.60454 15.46271,-24.89064 4.01357,-2.31327 8.72753,-3.47967 14.1019,-3.47967 4.58747,0 9.66047,0.8455 15.18087,2.5365 13.00434,3.96521 28.18521,12.66391 43.91021,25.14364 5.28694,4.19867 10.59341,8.7666 15.88127,13.6945 5.19951,4.81071 10.3804,9.96184 15.52131,15.40504 8.85403,9.3591 17.6011,19.6037 26.14447,30.60544 5.69527,7.3379 11.3031,15.006 16.77514,22.96617 7.9304,11.53657 15.59943,23.68517 22.88804,36.31001 7.29883,12.63507 13.98563,25.34734 20.0018,37.99171 4.1596,8.72753 7.99923,17.41693 11.4975,26.01797 5.2581,12.88714 9.75814,25.58081 13.44151,37.91358 2.1384,7.19187 4.01357,14.24794 5.5883,21.15797 1.60357,7.03654 2.916,13.91774 3.90753,20.59431 2.956,19.85577 2.8881,37.34991 -0.17394,50.59701 z"
       style="fill:#ffffff;stroke-width:0.93014342" /><path
       inkscape:connector-curvature="0"
       id="path6"
       d="m 534.66694,448.08657 c -7.04676,-2.77927 -14.4721,-5.35483 -22.22763,-7.7267 -6.80307,-2.0705 -13.85914,-3.98473 -21.13937,-5.7241 -19.10794,-4.56794 -39.75061,-7.96947 -61.35599,-10.10787 -9.43723,-0.94317 -19.06887,-1.6324 -28.827,-2.0705 -8.61127,-0.3981 -17.33881,-0.60273 -26.13424,-0.60273 -8.79544,0 -17.5239,0.2037 -26.14447,0.60273 -9.76744,0.43717 -19.39907,1.13756 -28.83631,2.0705 -21.60537,2.1384 -42.23874,5.53993 -61.34668,10.10787 -7.2793,1.73937 -14.33537,3.65453 -21.13937,5.7241 -7.75554,2.36163 -15.18087,4.94743 -22.22764,7.7267 -46.03838,18.17407 -71.40525,43.61908 -71.40525,71.63872 0,28.01964 25.36687,53.46464 71.40618,71.64895 7.04677,2.77927 14.46187,5.35483 22.21741,7.7267 6.80307,2.0705 13.85914,3.98473 21.13937,5.7148 19.10793,4.57724 39.75061,7.96947 61.36621,10.11717 9.43724,0.93293 19.06887,1.6231 28.83631,2.0705 8.61127,0.3981 17.3388,0.5925 26.13424,0.5925 8.79543,0 17.51367,-0.1944 26.12494,-0.5925 9.76743,-0.4474 19.38977,-1.13757 28.8363,-2.0705 21.60538,-2.1384 42.25828,-5.53993 61.36622,-10.11717 7.2793,-1.73937 14.33537,-3.6443 21.13937,-5.7241 7.74623,-2.36164 15.17157,-4.9372 22.2174,-7.7174 46.04862,-18.18431 71.40619,-43.62838 71.40619,-71.64895 -9.3e-4,-28.01964 -25.35757,-53.46465 -71.40619,-71.63872 z m 35.68775,97.47159 c -9.933,9.2819 -25.05528,18.07734 -43.72605,25.45431 -6.28777,2.4779 -12.89736,4.79117 -19.7981,6.91003 -6.77423,2.09004 -13.82007,4.00427 -21.1096,5.73434 -12.52811,2.9839 -25.77521,5.43297 -39.56645,7.3286 -9.19446,1.27336 -18.6317,2.29373 -28.26333,3.0425 -13.96611,1.11803 -28.32101,1.6817 -42.90938,1.6817 -14.58837,0 -28.94328,-0.56367 -42.90938,-1.67147 -9.63163,-0.75807 -19.07817,-1.77844 -28.27264,-3.0518 -13.79124,-1.89563 -27.03834,-4.3447 -39.56644,-7.3286 -7.28953,-1.73007 -14.33537,-3.6443 -21.10961,-5.73434 -6.90073,-2.11886 -13.5094,-4.43213 -19.7981,-6.91003 -18.66984,-7.37697 -33.79304,-16.17241 -43.72604,-25.45431 -9.17494,-8.5629 -13.8303,-17.25137 -13.8303,-25.83287 0,-8.5815 4.65536,-17.2709 13.8303,-25.83287 9.933,-9.28191 25.05527,-18.07734 43.72604,-25.45431 6.28777,-2.4779 12.89737,-4.79117 19.7981,-6.91004 6.77424,-2.09003 13.82008,-4.00426 21.10961,-5.73433 12.5281,-2.9839 25.7752,-5.43297 39.56644,-7.3286 9.19447,-1.27337 18.64101,-2.29373 28.27264,-3.0518 13.9661,-1.1078 28.32101,-1.67147 42.90938,-1.67147 14.58837,0 28.94327,0.56367 42.90938,1.6817 9.63163,0.74877 19.06887,1.76913 28.26333,3.0425 13.79124,1.89563 27.03834,4.3447 39.56645,7.3286 7.28953,1.73007 14.33537,3.6443 21.1096,5.73433 6.90074,2.11887 13.5094,4.43214 19.7981,6.91004 18.66984,7.37697 33.79305,16.1724 43.72605,25.45431 9.17493,8.5629 13.8303,17.25137 13.8303,25.83287 0,8.58057 -4.65537,17.26904 -13.8303,25.83101 z"
       style="fill:#ffffff;stroke-width:0.93014342" /><path
       inkscape:connector-curvature="0"
       id="path8"
       d="m 496.57615,319.59098 c -24.26838,-14.00517 -58.97482,-4.76234 -97.74413,26.01797 -5.92873,4.71396 -11.877,9.85487 -17.7955,15.3948 -5.1995,4.84977 -10.3897,10.01021 -15.53061,15.44317 -13.51963,14.26747 -26.78534,30.43988 -39.44924,48.08005 -5.5297,7.71647 -10.94407,15.7064 -16.20124,23.93817 -4.65537,7.25977 -9.18423,14.70464 -13.5773,22.32437 -4.39307,7.61974 -8.58151,15.26831 -12.54764,22.92711 -4.50003,8.67917 -8.71823,17.36764 -12.62483,26.00774 -8.9517,19.78787 -16.32774,39.36181 -21.92627,58.19721 -2.1384,7.18257 -4.01357,14.24794 -5.61807,21.17751 -1.8268,7.89227 -3.3141,15.59943 -4.4219,23.09267 -3.3048,22.2667 -3.1783,41.57834 0.24276,57.34241 24.50184,18.16477 52.60892,31.73278 83.04972,39.43064 12.83877,-5.3939 26.54257,-13.80146 40.80074,-25.1241 5.93804,-4.71397 11.88631,-9.85487 17.80574,-15.3855 5.1995,-4.84977 10.3804,-10.00091 15.5213,-15.43387 13.50941,-14.26747 26.78534,-30.45011 39.43995,-48.09028 5.5297,-7.7174 10.94406,-15.7064 16.21147,-23.94747 4.65536,-7.25977 9.18423,-14.70464 13.5773,-22.32438 4.40237,-7.61043 8.5815,-15.259 12.54763,-22.9178 4.50004,-8.67917 8.71824,-17.36764 12.63507,-26.01797 8.94147,-19.77857 16.31844,-39.36181 21.91604,-58.19722 2.12817,-7.17233 4.00427,-14.23863 5.60784,-21.1682 1.83703,-7.89227 3.3141,-15.60874 4.43213,-23.10197 7.26721,-48.97299 -2.08166,-83.65059 -26.35096,-97.66506 z m -4.80047,136.20276 c -3.68337,12.3337 -8.18341,25.02644 -13.44151,37.91358 -3.4992,8.60103 -7.3379,17.29043 -11.4975,26.01797 -6.01617,12.64437 -12.70297,25.35664 -20.0018,37.99171 -7.28954,12.62483 -14.95764,24.77344 -22.88804,36.31001 -5.48134,7.96947 -11.08917,15.63757 -16.78444,22.97547 -8.53314,10.99244 -17.28021,21.2361 -26.13424,30.59521 -5.1409,5.44227 -10.3218,10.5934 -15.52131,15.41434 -5.28693,4.91766 -10.5934,9.4856 -15.88126,13.68427 -15.72501,12.48903 -30.90681,21.1775 -43.91022,25.15293 -12.00257,3.65454 -21.85837,3.34294 -29.2837,-0.95246 -7.42534,-4.2861 -12.63507,-12.66391 -15.46271,-24.89064 -3.0611,-13.2471 -3.12993,-30.74124 -0.17486,-50.59701 0.99153,-6.67657 2.30303,-13.55777 3.9066,-20.59431 1.57473,-6.91004 3.4499,-13.9661 5.5883,-21.15797 3.68337,-12.3337 8.1834,-25.03667 13.4415,-37.92381 3.4992,-8.60104 7.3379,-17.29044 11.49751,-26.00774 6.01616,-12.64437 12.70297,-25.35664 20.0018,-37.99171 7.28954,-12.63507 14.95764,-24.78367 22.89827,-36.32024 5.47204,-7.96017 11.06964,-15.62827 16.76491,-22.95594 8.54337,-11.00174 17.29043,-21.24541 26.13424,-30.60544 5.15113,-5.4525 10.34133,-10.60364 15.5306,-15.41434 5.29717,-4.91767 10.59341,-9.4856 15.88127,-13.68427 15.72501,-12.4788 30.90681,-21.1775 43.91021,-25.14364 5.5204,-1.691 10.59341,-2.5365 15.18087,-2.5365 5.37437,0 10.09764,1.1664 14.10191,3.47967 7.43464,4.2861 12.63507,12.6639 15.4627,24.89064 3.06111,13.2471 3.12994,30.74124 0.17487,50.59701 -0.99153,6.67657 -2.30303,13.55777 -3.91683,20.59431 -1.56357,6.91003 -3.43967,13.9661 -5.57714,21.1589 z"
       style="fill:#ffffff;stroke-width:0.93014342" /><circle
       id="circle10"
       r="43.433979"
       cy="519.72522"
       cx="381.03653"
       style="fill:#ffffff;stroke-width:0.93014342" /><path
       inkscape:connector-curvature="0"
       id="path6-7"
       d="m 522.92525,622.19361 c -0.98286,-7.51101 -2.32733,-15.25449 -4.00998,-23.18814 -1.48481,-6.95442 -3.22891,-14.05446 -5.23458,-21.26588 -5.26176,-18.92863 -12.28745,-38.63472 -20.88455,-58.57098 -3.74725,-8.71259 -7.81082,-17.47221 -12.15537,-26.2208 -3.82388,-7.72596 -7.87335,-15.45988 -12.13472,-23.15406 -4.26136,-7.69419 -8.66849,-15.23109 -13.1942,-22.57897 -5.11474,-8.33267 -10.39394,-16.41901 -15.78239,-24.22263 -12.33841,-17.86417 -25.31087,-34.26606 -38.56463,-48.76838 -5.04839,-5.52516 -10.14241,-10.76986 -15.24937,-15.71925 -5.82348,-5.64028 -11.68308,-10.88309 -17.52851,-15.701 -38.20403,-31.46872 -72.75333,-41.33142 -97.2647,-27.75597 -24.51137,13.57546 -34.48027,48.09426 -28.08184,97.17937 0.98286,7.51101 2.32237,15.24554 4.00502,23.17918 1.48482,6.95443 3.22891,14.05447 5.24272,21.26138 5.25363,18.93313 12.28745,38.63473 20.88137,58.58445 3.7562,8.70763 7.81896,17.4677 12.15988,26.22894 3.82389,7.72595 7.8823,15.45492 12.14367,23.1491 4.26136,7.69419 8.65539,15.22665 13.17578,22.56684 5.12369,8.32771 10.38945,16.41087 15.78239,24.22262 12.33842,17.86417 25.32034,34.28314 38.58223,48.78096 5.04839,5.52516 10.13346,10.77482 15.24938,15.71925 5.81897,5.63213 11.66961,10.87991 17.51541,15.69655 38.21796,31.47271 72.76194,41.32772 97.27412,27.75181 24.51092,-13.57627 34.48478,-48.08612 28.07287,-97.17439 z m -67.97678,78.44415 c -12.93225,-4.19226 -27.95314,-13.15973 -43.4524,-25.91866 -5.21406,-4.29995 -10.44003,-8.96121 -15.63699,-13.97133 -5.11045,-4.91344 -10.1987,-10.14964 -15.24392,-15.68826 -8.68015,-9.51377 -17.24076,-19.91568 -25.58088,-31.06172 -5.56862,-7.4263 -11.03356,-15.18756 -16.35508,-23.25047 -7.74459,-11.67575 -15.1926,-23.96022 -22.26064,-36.72202 -7.06803,-12.7618 -13.52986,-25.59245 -19.32731,-38.34662 -4.00336,-8.79296 -7.68757,-17.55109 -11.02834,-26.21128 -5.02354,-12.9829 -9.29931,-25.75794 -12.75883,-38.16314 -2.01832,-7.21505 -3.75746,-14.30612 -5.2112,-21.24479 -1.48983,-7.0633 -2.66809,-13.96528 -3.5473,-20.66714 -2.59218,-19.90635 -2.22516,-37.39739 1.08206,-50.58376 3.04552,-12.17487 8.39062,-20.4569 15.89765,-24.61462 7.50704,-4.15771 17.36397,-4.29524 29.29916,-0.41733 12.93225,4.19226 27.95314,13.15974 43.4524,25.91866 5.21407,4.29995 10.44003,8.96121 15.63699,13.97133 5.11045,4.91344 10.19869,10.14964 15.24391,15.68826 8.68013,9.51379 17.24076,19.9157 25.58086,31.06174 5.56863,7.42631 11.03807,15.1957 16.36773,23.2541 7.73565,11.68072 15.18366,23.96518 22.25169,36.72698 7.06803,12.76179 13.52986,25.59245 19.31836,38.35157 4.0115,8.78846 7.6912,17.53845 11.03197,26.19864 5.02354,12.9829 9.29931,25.75794 12.75885,38.16312 2.01832,7.21504 3.75745,14.30613 5.21121,21.24479 1.48982,7.06331 2.66808,13.96529 3.54729,20.66714 2.59218,19.90635 2.22516,37.39738 -1.08206,50.58377 -3.04553,12.17487 -8.39061,20.45689 -15.89765,24.61461 -7.50622,4.15727 -17.36235,4.29434 -29.29753,0.41643 z"
       style="fill:#ffffff;stroke-width:0.93014342" /><path
       inkscape:connector-curvature="0"
       id="path6-3"
       d="m 366.26742,690.89395 c 5.84734,-4.8156 11.70006,-10.06105 17.53473,-15.69404 5.1093,-4.94609 10.20459,-10.18923 15.25562,-15.7132 13.2595,-14.49707 26.24297,-30.90194 38.58847,-48.76121 5.4005,-7.79652 10.67314,-15.88617 15.78748,-24.20823 4.52332,-7.33839 8.93378,-14.8723 13.19821,-22.56479 4.26442,-7.69248 8.31821,-15.42516 12.14886,-23.15818 4.35334,-8.75455 8.41062,-17.51797 12.17028,-26.22411 8.605,-19.93286 15.634,-39.62802 20.90328,-58.55456 2.00808,-7.20981 3.75417,-14.30961 5.24301,-21.2638 1.69474,-7.92802 3.03334,-15.67593 4.01917,-23.18656 6.42643,-49.07677 -3.52878,-83.59952 -28.03476,-97.1847 -24.50599,-13.58518 -59.05918,-3.73619 -97.28511,27.71324 -5.84734,4.81558 -11.69509,10.05208 -17.52975,15.6851 -5.10929,4.94609 -10.20459,10.18923 -15.24749,15.7177 -13.26763,14.49256 -26.24298,30.90193 -38.60157,48.76564 -5.39154,7.80148 -10.66501,15.8907 -15.79199,24.21637 -4.52331,7.33841 -8.92483,14.87726 -13.18926,22.56975 -4.26441,7.69249 -8.32138,15.41171 -12.14833,23.13614 -4.3444,8.75952 -8.40612,17.50984 -12.17028,26.22411 -8.60501,19.93286 -15.64348,39.64511 -20.90461,58.57616 -2.00809,7.2098 -3.76313,14.30464 -5.24301,21.2638 -1.69023,7.91989 -3.0378,15.66283 -4.02236,23.17309 -6.42245,49.09068 3.53646,83.60485 28.04325,97.19048 24.50645,13.58436 59.05468,3.74431 97.27616,-27.7182 z M 263.71573,674.84786 c -3.30198,-13.18769 -3.66252,-30.67805 -1.062,-50.5842 0.88142,-6.70068 2.06287,-13.60301 3.55549,-20.66572 1.45651,-6.93808 3.19847,-14.02848 5.21964,-21.24272 3.46446,-12.40381 7.74531,-25.17715 12.77399,-38.15805 3.34421,-8.65888 7.02738,-17.4074 11.04236,-26.19427 5.79357,-12.75682 12.26049,-25.58491 19.33358,-38.3439 7.0731,-12.75899 14.52599,-25.04051 22.26625,-36.71815 5.33286,-8.05629 10.80538,-15.82351 16.37695,-23.24761 8.34453,-11.14273 16.90929,-21.54123 25.59318,-31.05158 5.04741,-5.53661 10.13773,-10.7708 15.25014,-15.68221 5.19894,-5.00806 10.4263,-9.66642 15.64253,-13.96512 15.50386,-12.75197 30.52877,-21.7143 43.46268,-25.90142 11.93753,-3.87272 21.7936,-3.73175 29.29899,0.42894 7.50538,4.1607 12.848,12.4453 15.88788,24.62093 3.30199,13.18768 3.66252,30.67805 1.062,50.58419 -0.88142,6.70068 -2.06287,13.60302 -3.55549,20.66573 -1.45651,6.93808 -3.19846,14.02848 -5.21964,21.24272 -3.46446,12.40381 -7.7453,25.17714 -12.774,38.15805 -3.3442,8.65887 -7.03188,17.41552 -11.03872,26.20691 -5.80252,12.75186 -12.26943,25.57995 -19.34252,38.33895 -7.07311,12.75899 -14.52599,25.04051 -22.27522,36.71318 -5.32471,8.0608 -10.79272,15.81988 -16.3643,23.24398 -8.34453,11.14274 -16.90927,21.54123 -25.59318,31.05158 -5.04741,5.53663 -10.13774,10.7708 -15.25013,15.68221 -5.19895,5.00806 -10.42632,9.66643 -15.64252,13.96513 -15.50389,12.75196 -30.52877,21.71429 -43.46269,25.90142 -11.93754,3.87271 -21.79361,3.73174 -29.29899,-0.42896 -7.50458,-4.16024 -12.84638,-12.44439 -15.88626,-24.62001 z"
       style="fill:#ffffff;stroke-width:0.93014342" /></g></g></svg>