<?xml version="1.0" encoding="UTF-8" standalone="no"?>
<svg
   xmlns:dc="http://purl.org/dc/elements/1.1/"
   xmlns:cc="http://creativecommons.org/ns#"
   xmlns:rdf="http://www.w3.org/1999/02/22-rdf-syntax-ns#"
   xmlns:svg="http://www.w3.org/2000/svg"
   xmlns="http://www.w3.org/2000/svg"
   xmlns:sodipodi="http://sodipodi.sourceforge.net/DTD/sodipodi-0.dtd"
   xmlns:inkscape="http://www.inkscape.org/namespaces/inkscape"
   id="Capa_1"
   enable-background="new 0 0 512 512"
   height="50"
   viewBox="0 0 50 50"
   width="50"
   class=""
   version="1.1"
   sodipodi:docname="redux.svg"
   inkscape:version="0.92.4 (5da689c313, 2019-01-14)">
  <metadata
     id="metadata17">
    <rdf:RDF>
      <cc:Work
         rdf:about="">
        <dc:format>image/svg+xml</dc:format>
        <dc:type
           rdf:resource="http://purl.org/dc/dcmitype/StillImage" />
        <dc:title></dc:title>
      </cc:Work>
    </rdf:RDF>
  </metadata>
  <defs
     id="defs15" />
  <sodipodi:namedview
     pagecolor="#ffffff"
     bordercolor="#666666"
     borderopacity="1"
     objecttolerance="10"
     gridtolerance="10"
     guidetolerance="10"
     inkscape:pageopacity="0"
     inkscape:pageshadow="2"
     inkscape:window-width="1920"
     inkscape:window-height="1017"
     id="namedview13"
     showgrid="false"
     inkscape:zoom="5.2149125"
     inkscape:cx="10.733759"
     inkscape:cy="13.601105"
     inkscape:window-x="-8"
     inkscape:window-y="-8"
     inkscape:window-maximized="1"
     inkscape:current-layer="Capa_1" />
  <g
     id="g10"
     transform="matrix(0.09212393,0,0,0.09212393,1.5340622,1.0662124)">
    <g
       id="g8">
      <path
         d="m 256,294.381 c 22.008,0 39.563,-17.239 39.968,-39.246 0.414,-22.406 -17.528,-40.734 -39.968,-40.734 -21.731,0 -39.662,17.679 -39.969,39.4 -0.335,22.354 17.598,40.58 39.969,40.58 z m 0,-59.98 c 11.164,0 20.179,9.082 19.972,20.366 -0.202,10.998 -8.975,19.614 -19.972,19.614 -11.278,0 -20.137,-9.177 -19.971,-20.289 0.157,-11.041 8.928,-19.691 19.971,-19.691 z"
         data-original="#000000"
         class="active-path"
         data-old_color="#000000"
         id="path2"
         inkscape:connector-curvature="0"
         style="fill:#7d54be" />
      <circle
         cx="459"
         cy="305.95099"
         r="10"
         data-original="#000000"
         class="active-path"
         data-old_color="#000000"
         id="circle4"
         style="fill:#7d54be" />
      <path
         d="m 112.767,339.072 c -17.929,67.905 -11.446,116.253 18.234,133.39 38.961,22.49 93.264,-19.665 124.999,-51.255 31.808,31.664 86.067,73.73 125,51.255 29.679,-17.136 36.162,-65.481 18.235,-133.381 7.389,-1.911 14.54,-3.968 21.345,-6.153 5.258,-1.688 8.152,-7.319 6.465,-12.578 -1.688,-5.257 -7.312,-8.155 -12.578,-6.465 -6.609,2.121 -13.573,4.12 -20.787,5.975 -6.522,-20.708 -14.928,-42.147 -25.053,-63.909 10.128,-21.766 18.533,-43.205 25.054,-63.911 60.047,15.452 98.319,40.141 98.319,63.911 0,5.367 -1.969,10.87 -5.853,16.354 -3.19,4.508 -2.124,10.749 2.384,13.94 4.508,3.191 10.749,2.124 13.94,-2.383 6.322,-8.931 9.528,-18.322 9.528,-27.911 0,-45.659 -68.722,-71.722 -112.767,-83.121 C 417.161,104.925 410.678,56.577 380.998,39.44 351.232,22.258 305.989,40.93 256,90.693 206.011,40.932 160.768,22.259 131,39.441 101.32,56.578 94.838,104.926 112.767,172.83 68.701,184.235 0,210.299 0,255.951 0,301.61 68.722,327.673 112.767,339.072 Z M 256,119.657 c 10.311,11.345 20.469,23.719 30.372,37.006 -20.146,-0.926 -40.603,-0.926 -60.744,0 9.901,-13.286 20.061,-25.661 30.372,-37.006 z m 0,272.588 c -10.31,-11.344 -20.468,-23.717 -30.369,-37.002 19.951,0.923 39.901,0.964 60.739,0 -9.901,13.284 -20.06,25.658 -30.37,37.002 z m 45.229,-214.679 c 16.269,23.944 31.873,50.722 45.257,78.385 -12.992,26.854 -28.468,53.674 -45.257,78.385 -29.772,2.134 -60.677,2.134 -90.459,0 -16.269,-23.944 -31.873,-50.722 -45.257,-78.385 12.992,-26.853 28.466,-53.671 45.257,-78.385 29.772,-2.134 60.678,-2.134 90.459,0 z m 55.943,101.719 c 6.607,15.334 12.276,30.422 16.96,45.111 -15.101,3.159 -30.943,5.699 -47.384,7.58 11.226,-17.498 21.256,-34.946 30.424,-52.691 z m -30.424,-99.359 c 16.439,1.881 32.282,4.422 47.385,7.581 -4.684,14.688 -10.353,29.775 -16.961,45.111 -9.204,-17.815 -19.247,-35.269 -30.424,-52.692 z m -171.92,52.691 c -6.607,-15.334 -12.276,-30.422 -16.961,-45.111 15.101,-3.159 30.943,-5.699 47.385,-7.58 -11.225,17.496 -21.255,34.946 -30.424,52.691 z m 0,46.668 c 9.205,17.814 19.247,35.268 30.424,52.691 -16.439,-1.881 -32.282,-4.422 -47.385,-7.581 4.684,-14.688 10.353,-29.774 16.961,-45.11 z M 141,455.141 c -28.082,-16.215 -17.042,-80.188 -8.758,-111.482 21.218,4.509 43.856,7.799 67.456,9.845 13.658,19.468 27.898,37.329 42.453,53.245 -41.501,41.27 -80.68,60.206 -101.151,48.392 z m 230.001,-0.001 c -27.909,16.111 -78.204,-25.555 -101.159,-48.384 14.559,-15.92 28.802,-33.785 42.461,-53.253 23.604,-2.047 46.241,-5.337 67.456,-9.845 8.281,31.288 19.324,95.267 -8.758,111.482 z M 371,56.761 c 28.082,16.215 17.042,80.188 8.758,111.482 -21.218,-4.509 -43.856,-7.799 -67.456,-9.845 -13.661,-19.471 -27.903,-37.335 -42.46,-53.253 C 292.797,82.317 343.087,40.651 371,56.761 Z m -230.001,10e-4 c 27.961,-16.141 78.354,25.704 101.159,48.384 -14.559,15.92 -28.802,33.785 -42.461,53.253 -23.604,2.047 -46.241,5.337 -67.456,9.845 -8.281,-31.289 -19.324,-95.267 8.758,-111.482 z M 118.32,192.04 c 6.522,20.709 14.928,42.149 25.054,63.911 -10.128,21.766 -18.533,43.205 -25.054,63.911 C 58.272,304.41 20,279.721 20,255.951 20,232.182 58.27,207.493 118.32,192.04 Z"
         data-original="#000000"
         class="active-path"
         data-old_color="#000000"
         id="path6"
         inkscape:connector-curvature="0"
         style="fill:#7d54be" />
    </g>
  </g>
</svg>
