<?xml version="1.0" encoding="UTF-8" standalone="no"?>
<svg
   xmlns:dc="http://purl.org/dc/elements/1.1/"
   xmlns:cc="http://creativecommons.org/ns#"
   xmlns:rdf="http://www.w3.org/1999/02/22-rdf-syntax-ns#"
   xmlns:svg="http://www.w3.org/2000/svg"
   xmlns="http://www.w3.org/2000/svg"
   xmlns:sodipodi="http://sodipodi.sourceforge.net/DTD/sodipodi-0.dtd"
   xmlns:inkscape="http://www.inkscape.org/namespaces/inkscape"
   enable-background="new 0 0 256 256"
   height="45"
   viewBox="0 0 22.5 22.5"
   width="45"
   class=""
   version="1.1"
   id="svg139"
   sodipodi:docname="technologies.svg"
   inkscape:version="0.92.4 (5da689c313, 2019-01-14)">
  <metadata
     id="metadata145">
    <rdf:RDF>
      <cc:Work
         rdf:about="">
        <dc:format>image/svg+xml</dc:format>
        <dc:type
           rdf:resource="http://purl.org/dc/dcmitype/StillImage" />
        <dc:title></dc:title>
      </cc:Work>
    </rdf:RDF>
  </metadata>
  <defs
     id="defs143" />
  <sodipodi:namedview
     pagecolor="#ffffff"
     bordercolor="#666666"
     borderopacity="1"
     objecttolerance="10"
     gridtolerance="10"
     guidetolerance="10"
     inkscape:pageopacity="0"
     inkscape:pageshadow="2"
     inkscape:window-width="1920"
     inkscape:window-height="1017"
     id="namedview141"
     showgrid="false"
     inkscape:zoom="10.429825"
     inkscape:cx="21.556597"
     inkscape:cy="17.059026"
     inkscape:window-x="-8"
     inkscape:window-y="-8"
     inkscape:window-maximized="1"
     inkscape:current-layer="svg139" />
  <g
     id="g137"
     transform="matrix(0.08672822,0,0,0.08672822,0.26684132,0.17058231)">
    <g
       id="Layer_24">
      <g
         id="g134">
        <g
           id="g6">
          <g
             id="g4">
            <path
               d="m 83.378,139.434 c -2.677,0 -4.847,-2.17 -4.847,-4.847 V 84.385 c 0,-2.677 2.17,-4.847 4.847,-4.847 H 199.811 V 24.466 c 0,-6.787 -5.553,-12.341 -12.341,-12.341 H 87.104 L 36.702,62.526 v 159.008 c 0,6.787 5.553,12.341 12.341,12.341 h 138.428 c 6.787,0 12.341,-5.553 12.341,-12.341 V 139.433 H 83.378 Z"
               data-original="#EDF4FC"
               class=""
               style="fill:#374957"
               data-old_color="#edf4fc"
               id="path2"
               inkscape:connector-curvature="0" />
          </g>
        </g>
        <g
           id="g12">
          <g
             id="g10">
            <path
               d="M 206.298,79.538 H 83.378 c -2.677,0 -4.847,2.17 -4.847,4.847 v 50.201 c 0,2.677 2.17,4.847 4.847,4.847 h 122.92 c 2.677,0 4.847,-2.17 4.847,-4.847 V 84.385 c 0,-2.677 -2.17,-4.847 -4.847,-4.847 z"
               data-original="#FC8C48"
               class=""
               style="fill:#5f7d95"
               data-old_color="#fc8c48"
               id="path8"
               inkscape:connector-curvature="0" />
          </g>
        </g>
        <g
           id="g18">
          <g
             id="g16">
            <path
               d="m 36.702,62.526 h 38.061 c 6.787,0 12.341,-5.553 12.341,-12.341 v -38.06 z"
               data-original="#FCA265"
               class=""
               data-old_color="#fca265"
               style="fill:#5f7d95"
               id="path14"
               inkscape:connector-curvature="0" />
          </g>
        </g>
        <g
           id="g24">
          <g
             id="g22">
            <path
               d="m 158.944,180.08 -21.388,-16.07 c -2.125,-1.597 -5.154,-1.182 -6.763,0.96 -1.6,2.129 -1.169,5.163 0.96,6.763 l 16.249,12.208 -16.249,12.208 c -2.129,1.601 -2.56,4.635 -0.96,6.763 1.608,2.139 4.644,2.553 6.763,0.96 l 21.389,-16.071 c 2.569,-1.929 2.573,-5.786 -0.001,-7.721 z"
               data-original="#818182"
               class=""
               data-old_color="#818182"
               style="fill:#5f7d95"
               id="path20"
               inkscape:connector-curvature="0" />
          </g>
        </g>
        <g
           id="g30">
          <g
             id="g28">
            <path
               d="m 104.245,196.15 -16.248,-12.208 16.248,-12.208 c 2.134,-1.604 2.565,-4.629 0.96,-6.763 -1.599,-2.129 -4.634,-2.56 -6.763,-0.961 l -21.388,16.071 c -1.225,0.921 -1.928,2.329 -1.928,3.862 0,1.533 0.703,2.94 1.928,3.861 l 21.388,16.07 c 2.133,1.603 5.16,1.174 6.763,-0.96 1.601,-2.131 1.179,-5.156 -0.96,-6.764 z"
               data-original="#818182"
               class=""
               data-old_color="#818182"
               style="fill:#5f7d95"
               id="path26"
               inkscape:connector-curvature="0" />
          </g>
        </g>
        <g
           id="g36">
          <g
             id="g34">
            <path
               d="m 127.07,157.787 c -2.487,-0.88 -5.265,0.396 -6.166,2.94 l -15.302,43.204 c -0.891,2.516 0.423,5.274 2.94,6.166 2.53,0.896 5.279,-0.436 6.165,-2.94 l 15.302,-43.204 c 0.895,-2.522 -0.427,-5.276 -2.939,-6.166 z"
               data-original="#818182"
               class=""
               data-old_color="#818182"
               style="fill:#5f7d95"
               id="path32"
               inkscape:connector-curvature="0" />
          </g>
        </g>
        <g
           id="g42">
          <g
             id="g40">
            <path
               d="m 53.194,19.551 c -4.149,0.773 -7.419,3.976 -8.208,8.041 -0.04,0.204 -0.325,0.204 -0.364,0 -0.789,-4.065 -4.059,-7.268 -8.208,-8.041 -0.208,-0.039 -0.208,-0.318 0,-0.357 4.149,-0.773 7.419,-3.976 8.208,-8.041 0.04,-0.204 0.325,-0.204 0.364,0 0.789,4.065 4.059,7.268 8.208,8.041 0.208,0.039 0.208,0.318 0,0.357 z"
               data-original="#FC657E"
               class="active-path"
               style="fill:#374957"
               data-old_color="#fc657e"
               id="path38"
               inkscape:connector-curvature="0" />
          </g>
        </g>
        <g
           id="g48">
          <g
             id="g46">
            <path
               d="m 221.688,158.998 c -2.91,0.542 -5.204,2.789 -5.757,5.64 -0.028,0.143 -0.228,0.143 -0.255,0 -0.553,-2.851 -2.847,-5.098 -5.757,-5.64 -0.146,-0.027 -0.146,-0.223 0,-0.25 2.91,-0.542 5.204,-2.789 5.757,-5.64 0.028,-0.143 0.228,-0.143 0.255,0 0.553,2.851 2.847,5.098 5.757,5.64 0.146,0.027 0.146,0.222 0,0.25 z"
               data-original="#F5C84C"
               class=""
               style="fill:#374957"
               data-old_color="#f5c84c"
               id="path44"
               inkscape:connector-curvature="0" />
          </g>
        </g>
        <g
           id="g54">
          <g
             id="g52">
            <circle
               cx="76.257004"
               cy="3.3770001"
               r="3.3770001"
               data-original="#70D6F9"
               class=""
               style="fill:#5f7d95"
               data-old_color="#70d6f9"
               id="circle50" />
          </g>
        </g>
        <g
           id="g60">
          <g
             id="g58">
            <circle
               cx="213.257"
               cy="183.377"
               r="3.3770001"
               data-original="#87D147"
               class=""
               style="fill:#5f7d95"
               data-old_color="#87d147"
               id="circle56" />
          </g>
        </g>
        <g
           id="g66">
          <g
             id="g64">
            <path
               d="m 122.73,246.758 h -1.824 v -1.824 c 0,-1.366 -1.107,-2.473 -2.473,-2.473 -1.366,0 -2.473,1.107 -2.473,2.473 v 1.824 h -1.824 c -1.366,0 -2.473,1.107 -2.473,2.473 0,1.366 1.107,2.473 2.473,2.473 h 1.824 v 1.824 c 0,1.366 1.107,2.473 2.473,2.473 1.366,0 2.473,-1.107 2.473,-2.473 v -1.824 h 1.824 c 1.366,0 2.473,-1.107 2.473,-2.473 0,-1.366 -1.108,-2.473 -2.473,-2.473 z"
               data-original="#70D6F9"
               class=""
               style="fill:#5f7d95"
               data-old_color="#70d6f9"
               id="path62"
               inkscape:connector-curvature="0" />
          </g>
        </g>
        <g
           id="g72">
          <g
             id="g70">
            <circle
               cx="149.64101"
               cy="247.627"
               r="3.3770001"
               data-original="#F5C84C"
               class=""
               style="fill:#374957"
               data-old_color="#f5c84c"
               id="circle68" />
          </g>
        </g>
        <g
           id="g78">
          <g
             id="g76">
            <path
               d="M 206.298,141.934 H 83.378 c -4.051,0 -7.347,-3.296 -7.347,-7.347 V 84.385 c 0,-4.052 3.296,-7.348 7.347,-7.348 h 122.92 c 4.052,0 7.348,3.296 7.348,7.348 v 50.201 c 0,4.052 -3.296,7.348 -7.348,7.348 z M 83.378,82.038 c -1.294,0 -2.347,1.053 -2.347,2.348 v 50.201 c 0,1.294 1.053,2.347 2.347,2.347 h 122.92 c 1.295,0 2.348,-1.053 2.348,-2.347 V 84.385 c 0,-1.294 -1.053,-2.348 -2.348,-2.348 H 83.378 Z"
               data-original="#000000"
               class=""
               id="path74"
               inkscape:connector-curvature="0" />
          </g>
        </g>
        <g
           id="g84">
          <g
             id="g82">
            <path
               d="m 114.935,93.008 h -4.168 c -0.28,0 -0.506,0.226 -0.506,0.506 v 13.313 H 95.052 V 93.514 c 0,-0.28 -0.226,-0.506 -0.506,-0.506 h -4.122 c -0.28,0 -0.506,0.226 -0.506,0.506 v 31.943 c 0,0.28 0.226,0.506 0.506,0.506 h 4.122 c 0.28,0 0.506,-0.226 0.506,-0.506 v -14.264 h 15.209 v 14.264 c 0,0.28 0.226,0.506 0.506,0.506 h 4.168 c 0.28,0 0.506,-0.226 0.506,-0.506 V 93.514 c 0,-0.279 -0.226,-0.506 -0.506,-0.506 z"
               data-original="#000000"
               class=""
               id="path80"
               inkscape:connector-curvature="0" />
          </g>
        </g>
        <g
           id="g90">
          <g
             id="g88">
            <path
               d="m 141.124,93.008 h -22.156 c -0.28,0 -0.506,0.226 -0.506,0.506 v 3.353 c 0,0.28 0.226,0.506 0.506,0.506 h 8.511 v 28.084 c 0,0.28 0.226,0.506 0.506,0.506 h 4.122 c 0.28,0 0.506,-0.226 0.506,-0.506 V 97.373 h 8.511 c 0.28,0 0.506,-0.226 0.506,-0.506 v -3.353 c 0,-0.279 -0.226,-0.506 -0.506,-0.506 z"
               data-original="#000000"
               class=""
               id="path86"
               inkscape:connector-curvature="0" />
          </g>
        </g>
        <g
           id="g96">
          <g
             id="g94">
            <path
               d="m 177.188,93.552 h -4.938 c -0.205,0 -0.389,0.123 -0.468,0.312 l -10.501,25.255 -10.676,-25.258 c -0.08,-0.187 -0.263,-0.309 -0.467,-0.309 H 145.2 c -0.28,0 -0.506,0.226 -0.506,0.506 v 31.399 c 0,0.28 0.226,0.506 0.506,0.506 h 4.122 c 0.28,0 0.506,-0.226 0.506,-0.506 v -22.355 l 9.083,22.544 c 0.077,0.191 0.263,0.317 0.47,0.317 h 3.67 c 0.207,0 0.393,-0.126 0.47,-0.318 l 9.038,-22.613 v 22.425 c 0,0.28 0.226,0.506 0.506,0.506 h 4.122 c 0.28,0 0.506,-0.226 0.506,-0.506 V 94.058 c 10e-4,-0.28 -0.225,-0.506 -0.505,-0.506 z"
               data-original="#000000"
               class=""
               id="path92"
               inkscape:connector-curvature="0" />
          </g>
        </g>
        <g
           id="g102">
          <g
             id="g100">
            <path
               d="m 199.253,121.734 h -10.821 v -28.22 c 0,-0.28 -0.226,-0.506 -0.506,-0.506 h -4.122 c -0.28,0 -0.506,0.226 -0.506,0.506 v 31.943 c 0,0.28 0.226,0.506 0.506,0.506 h 15.45 c 0.28,0 0.506,-0.226 0.506,-0.506 v -3.217 c -0.001,-0.28 -0.228,-0.506 -0.507,-0.506 z"
               data-original="#000000"
               class=""
               id="path98"
               inkscape:connector-curvature="0" />
          </g>
        </g>
        <g
           id="g108">
          <g
             id="g106">
            <path
               d="M 187.471,236.375 H 49.043 c -8.184,0 -14.841,-6.658 -14.841,-14.841 V 62.526 c 0,-0.663 0.264,-1.299 0.732,-1.768 L 85.335,10.357 C 85.804,9.888 86.439,9.625 87.103,9.625 H 187.47 c 8.184,0 14.841,6.658 14.841,14.841 v 54.117 c 0,1.381 -1.119,2.5 -2.5,2.5 -1.381,0 -2.5,-1.119 -2.5,-2.5 V 24.466 c 0,-5.426 -4.415,-9.841 -9.841,-9.841 H 88.139 L 39.202,63.562 v 157.972 c 0,5.426 4.415,9.841 9.841,9.841 h 138.428 c 5.426,0 9.841,-4.415 9.841,-9.841 v -81.315 c 0,-1.381 1.119,-2.5 2.5,-2.5 1.381,0 2.5,1.119 2.5,2.5 v 81.315 c 0,8.183 -6.658,14.841 -14.841,14.841 z"
               data-original="#000000"
               class=""
               id="path104"
               inkscape:connector-curvature="0" />
          </g>
        </g>
        <g
           id="g114">
          <g
             id="g112">
            <path
               d="M 74.763,65.026 H 37.292 c -1.381,0 -2.5,-1.119 -2.5,-2.5 0,-1.381 1.119,-2.5 2.5,-2.5 h 37.471 c 5.426,0 9.841,-4.415 9.841,-9.841 V 12.667 c 0,-1.381 1.119,-2.5 2.5,-2.5 1.381,0 2.5,1.119 2.5,2.5 v 37.519 c 0,8.183 -6.658,14.84 -14.841,14.84 z"
               data-original="#000000"
               class=""
               id="path110"
               inkscape:connector-curvature="0" />
          </g>
        </g>
        <g
           id="g120">
          <g
             id="g118">
            <path
               d="m 134.664,207.34 c -2.228,0 -4.43,-1.009 -5.869,-2.923 -2.428,-3.231 -1.774,-7.835 1.455,-10.264 l 13.59,-10.21 -13.589,-10.21 c -3.231,-2.429 -3.884,-7.033 -1.456,-10.264 2.429,-3.232 7.032,-3.883 10.264,-1.457 l 21.388,16.07 h 0.001 c 1.86,1.399 2.927,3.536 2.926,5.861 0,2.326 -1.067,4.461 -2.927,5.858 l -21.389,16.071 c -1.317,0.99 -2.861,1.468 -4.394,1.468 z m -0.006,-41.798 c -0.709,0 -1.409,0.321 -1.867,0.93 -0.771,1.026 -0.563,2.49 0.464,3.263 l 16.249,12.208 c 0.628,0.472 0.998,1.212 0.998,1.999 0,0.787 -0.37,1.526 -0.998,1.999 l -16.249,12.208 c -1.026,0.772 -1.235,2.236 -0.463,3.263 0.771,1.026 2.233,1.236 3.261,0.464 l 21.39,-16.071 c 0.592,-0.444 0.931,-1.123 0.931,-1.862 0,-0.739 -0.339,-1.418 -0.931,-1.864 l -21.388,-16.07 c -0.418,-0.315 -0.909,-0.467 -1.397,-0.467 z"
               data-original="#000000"
               class=""
               id="path116"
               inkscape:connector-curvature="0" />
          </g>
        </g>
        <g
           id="g126">
          <g
             id="g124">
            <path
               d="m 101.329,207.344 c -1.576,0 -3.104,-0.507 -4.389,-1.471 L 75.552,189.802 c -1.859,-1.398 -2.926,-3.534 -2.926,-5.859 0,-2.328 1.066,-4.464 2.926,-5.861 l 21.388,-16.07 c 1.563,-1.174 3.492,-1.671 5.434,-1.395 1.94,0.275 3.656,1.289 4.83,2.853 1.177,1.564 1.674,3.495 1.398,5.433 -0.275,1.938 -1.29,3.652 -2.855,4.829 l -13.588,10.21 13.588,10.21 c 1.567,1.178 2.582,2.896 2.856,4.834 0.273,1.937 -0.224,3.865 -1.4,5.43 -1.176,1.565 -2.891,2.579 -4.829,2.854 -0.349,0.05 -0.698,0.074 -1.045,0.074 z m 0.007,-41.801 c -0.501,0 -0.986,0.161 -1.392,0.465 l -21.388,16.07 c -0.6,0.451 -0.93,1.112 -0.93,1.864 0,0.75 0.33,1.412 0.931,1.863 l 21.387,16.07 c 0.498,0.374 1.11,0.533 1.728,0.444 0.615,-0.087 1.16,-0.41 1.534,-0.907 0.375,-0.499 0.533,-1.111 0.446,-1.727 -0.087,-0.616 -0.41,-1.162 -0.909,-1.537 L 86.495,185.94 c -0.628,-0.472 -0.998,-1.212 -0.998,-1.999 0,-0.787 0.37,-1.526 0.998,-1.999 l 16.248,-12.208 c 0.499,-0.375 0.821,-0.92 0.909,-1.536 0.087,-0.615 -0.07,-1.228 -0.445,-1.726 -0.373,-0.497 -0.918,-0.818 -1.536,-0.906 -0.112,-0.014 -0.224,-0.023 -0.335,-0.023 z"
               data-original="#000000"
               class=""
               id="path122"
               inkscape:connector-curvature="0" />
          </g>
        </g>
        <g
           id="g132">
          <g
             id="g130">
            <path
               d="m 110.149,212.875 c -0.811,0 -1.634,-0.135 -2.439,-0.42 -3.81,-1.35 -5.812,-5.547 -4.463,-9.357 l 15.302,-43.205 c 0.657,-1.857 1.999,-3.342 3.778,-4.181 1.761,-0.831 3.742,-0.932 5.577,-0.281 h 0.001 c 3.809,1.35 5.811,5.547 4.462,9.356 l -15.302,43.205 c -1.063,3.003 -3.897,4.883 -6.916,4.883 z m 15.308,-52.866 c -0.341,0 -0.681,0.075 -0.998,0.225 -0.563,0.265 -0.988,0.737 -1.197,1.327 l -15.302,43.205 c -0.429,1.211 0.207,2.546 1.417,2.975 1.214,0.429 2.547,-0.207 2.976,-1.417 l 15.302,-43.204 c 0.429,-1.211 -0.208,-2.546 -1.419,-2.975 -0.255,-0.091 -0.517,-0.136 -0.779,-0.136 z"
               data-original="#000000"
               class=""
               id="path128"
               inkscape:connector-curvature="0" />
          </g>
        </g>
      </g>
    </g>
  </g>
</svg>
