<?xml version="1.0" encoding="UTF-8" standalone="no"?>
<svg
   xmlns:dc="http://purl.org/dc/elements/1.1/"
   xmlns:cc="http://creativecommons.org/ns#"
   xmlns:rdf="http://www.w3.org/1999/02/22-rdf-syntax-ns#"
   xmlns:svg="http://www.w3.org/2000/svg"
   xmlns="http://www.w3.org/2000/svg"
   xmlns:sodipodi="http://sodipodi.sourceforge.net/DTD/sodipodi-0.dtd"
   xmlns:inkscape="http://www.inkscape.org/namespaces/inkscape"
   height="45"
   viewBox="0 0 43.59375 43.59375"
   width="45"
   class=""
   version="1.1"
   id="svg42"
   sodipodi:docname="usability.svg"
   inkscape:version="0.92.4 (5da689c313, 2019-01-14)">
  <metadata
     id="metadata48">
    <rdf:RDF>
      <cc:Work
         rdf:about="">
        <dc:format>image/svg+xml</dc:format>
        <dc:type
           rdf:resource="http://purl.org/dc/dcmitype/StillImage" />
        <dc:title></dc:title>
      </cc:Work>
    </rdf:RDF>
  </metadata>
  <defs
     id="defs46" />
  <sodipodi:namedview
     pagecolor="#ffffff"
     bordercolor="#666666"
     borderopacity="1"
     objecttolerance="10"
     gridtolerance="10"
     guidetolerance="10"
     inkscape:pageopacity="0"
     inkscape:pageshadow="2"
     inkscape:window-width="1920"
     inkscape:window-height="1017"
     id="namedview44"
     showgrid="false"
     inkscape:zoom="7.375"
     inkscape:cx="41.846181"
     inkscape:cy="12.988275"
     inkscape:window-x="-8"
     inkscape:window-y="-8"
     inkscape:window-maximized="1"
     inkscape:current-layer="svg42" />
  <g
     id="g40"
     transform="matrix(0.08050847,0,0,0.08050847,1.0508475,1.034428)">
    <path
       d="M 456,40 V 72 H 104 V 40 C 104,22.320312 118.32031,8 136,8 h 288 c 17.67969,0 32,14.320312 32,32 z m 0,0"
       data-original="#838F9B"
       class="active-path"
       style="fill:#838f9b"
       id="path2"
       inkscape:connector-curvature="0" />
    <path
       d="M 344,451.19922 V 488 H 136 c -17.67969,0 -32,-14.32031 -32,-32 v -32 h 227.19922 l 5.76172,7.19922 c 4.55859,5.67969 7.03906,12.72265 7.03906,20 z m 0,0"
       data-original="#838F9B"
       class="active-path"
       style="fill:#838f9b"
       id="path4"
       inkscape:connector-curvature="0" />
    <path
       d="M 316.71875,405.92187 331.19922,424 H 104 V 232 h 32 v 160 h 174.32031 l 0.0781,0.64062 c 1.04297,4.80079 3.20312,9.35938 6.32031,13.28125 z m 0,0"
       data-original="#69D6F4"
       class=""
       style="fill:#69d6f4"
       id="path6"
       inkscape:connector-curvature="0" />
    <path
       d="M 424,232 V 104 H 136 v 32 H 104 V 72 h 352 v 176 c 0,-4.39844 -1.76172,-8.39844 -4.71875,-11.28125 C 448.39844,233.76172 444.39844,232 440,232 c -8.80078,0 -16,7.19922 -16,16 z m 0,0"
       data-original="#69D6F4"
       class=""
       style="fill:#69d6f4"
       id="path8"
       inkscape:connector-curvature="0" />
    <path
       d="m 408,216 c -8.80078,0 -16,7.19922 -16,16 v -64 c 0,-8.80078 -7.19922,-16 -16,-16 -4.39844,0 -8.39844,1.76172 -11.28125,4.71875 C 361.76172,159.60156 360,163.60156 360,168 v 107.83984 c -4.16016,-4.71875 -9.76172,-8.23828 -16.23828,-9.91797 L 304,256 V 241.51953 C 318.32031,233.19922 328,217.76172 328,200 V 186 C 328,159.76172 307.76172,136.80078 281.44141,136 254.32031,135.19922 232,156.96094 232,184 v 16 c 0,17.76172 9.67969,33.19922 24,41.51953 V 256 l -39.76172,9.92187 C 202,269.51953 192,282.32031 192,296.96094 V 328 h 106.87891 l 11.4414,64 H 136 V 232 h 32 c 8.80078,0 16,-7.19922 16,-16 v -64 c 0,-8.80078 -7.19922,-16 -16,-16 h -32 v -32 h 288 v 128 c 0,-4.39844 -1.76172,-8.39844 -4.71875,-11.28125 C 416.39844,217.76172 412.39844,216 408,216 Z m 0,0"
       data-original="#E6E9ED"
       class=""
       id="path10"
       inkscape:connector-curvature="0"
       style="fill:#e6e9ed" />
    <path
       d="m 8,216 v -64 c 0,-8.80078 7.199219,-16 16,-16 h 144 c 8.80078,0 16,7.19922 16,16 v 64 c 0,8.80078 -7.19922,16 -16,16 h -64 v 32 L 64,232 H 24 C 15.199219,232 8,224.80078 8,216 Z m 0,0"
       data-original="#FFEAA7"
       class=""
       id="path12"
       inkscape:connector-curvature="0"
       style="fill:#ffeaa7" />
    <path
       d="m 296,310.39844 c 0,1.04297 0.0781,2.16015 0.32031,3.20312 L 298.87891,328 H 192 v -31.03906 c 0,-14.64063 10,-27.44141 24.23828,-31.03907 L 256,256 V 241.51953 C 241.67969,233.19922 232,217.76172 232,200 v -16 c 0,-27.03906 22.32031,-48.80078 49.44141,-48 C 307.76172,136.80078 328,159.76172 328,186 v 14 c 0,17.76172 -9.67969,33.19922 -24,41.51953 V 256 l 39.76172,9.92187 c 6.47656,1.67969 12.07812,5.19922 16.23828,9.91797 V 352 c -9.44141,0 -17.60156,-6.39844 -19.92188,-15.51953 l -8.63671,-34.87891 C 329.44141,293.60156 322.23828,288 314,288 c -4.96094,0 -9.44141,2 -12.71875,5.28125 C 298,296.55859 296,301.03906 296,306 Z m 0,0"
       data-original="#B4DD7F"
       class=""
       id="path14"
       inkscape:connector-curvature="0"
       style="fill:#b4dd7f" />
    <path
       d="m 424,232 v 16 c 0,-8.80078 7.19922,-16 16,-16 4.39844,0 8.39844,1.76172 11.28125,4.71875 C 454.23828,239.60156 456,243.60156 456,248 v 16 c 0,-4.39844 1.76172,-8.39844 4.71875,-11.28125 C 463.60156,249.76172 467.60156,248 472,248 c 8.80078,0 16,7.19922 16,16 v 118.32031 c 0,6.32031 -1.83984,12.48047 -5.35938,17.75781 l -21.28125,31.84375 C 457.83984,437.19922 456,443.35937 456,449.67969 V 488 H 344 v -36.80078 c 0,-7.27735 -2.48047,-14.32031 -7.03906,-20 L 331.19922,424 316.71875,405.92187 C 313.60156,402 311.44141,397.44141 310.39844,392.64062 L 310.32031,392 l -11.4414,-64 -2.5586,-14.39844 C 296.07812,312.55859 296,311.44141 296,310.39844 V 306 c 0,-4.96094 2,-9.44141 5.28125,-12.71875 C 304.55859,290 309.03906,288 314,288 c 8.23828,0 15.44141,5.60156 17.44141,13.60156 l 8.63671,34.87891 C 342.39844,345.60156 350.55859,352 360,352 V 168 c 0,-4.39844 1.76172,-8.39844 4.71875,-11.28125 C 367.60156,153.76172 371.60156,152 376,152 c 8.80078,0 16,7.19922 16,16 v 64 c 0,-8.80078 7.19922,-16 16,-16 4.39844,0 8.39844,1.76172 11.28125,4.71875 C 422.23828,223.60156 424,227.60156 424,232 Z m 0,0"
       data-original="#F0D0B4"
       class=""
       id="path16"
       inkscape:connector-curvature="0"
       style="fill:#f0d0b4" />
    <path
       d="M 299.90234,336 H 184 v -39.01563 c 0,-18.39062 12.45703,-34.34375 30.29688,-38.80859 L 248,249.75391 v -3.84375 C 233.08984,235.49609 224,218.3125 224,200.00781 v -16 c 0,-15.28125 6.03906,-29.55078 17.00781,-40.1914 10.96094,-10.63282 25.28906,-16.15235 40.71094,-15.78516 C 311.64844,128.92969 336,154.9375 336,186.01563 V 200 c 0,18.3125 -9.08984,35.50391 -24.00781,45.91016 v 3.83203 l 33.71093,8.43359 c 7.96094,1.99219 15,6.29688 20.39454,12.44922 l -12.04297,10.54297 c -3.23047,-3.69531 -7.46094,-6.27344 -12.23828,-7.48047 l -45.8086,-11.44922 -0.0234,-25.31641 4,-2.3125 C 312.32813,227.46484 320,214.19922 320,200 v -13.98438 c 0,-22.51171 -17.39062,-41.35156 -38.76172,-41.99218 -11.03906,-0.44922 -21.26172,3.67187 -29.08594,11.26562 C 244.32031,162.88672 240,173.08984 240,184 v 16 c 0,14.19141 7.66406,27.45703 20.00781,34.60156 L 264,236.91016 v 25.33593 l -45.82422,11.44922 C 207.48047,276.375 200,285.95312 200,296.98437 V 320 h 99.90234 z m 0,0"
       data-original="#000000"
       class=""
       style="fill:#000000"
       id="path18"
       inkscape:connector-curvature="0" />
    <path
       d="m 32,160 h 16 v 16 H 32 Z m 0,0"
       data-original="#000000"
       class=""
       style="fill:#000000"
       id="path20"
       inkscape:connector-curvature="0" />
    <path
       d="m 64,160 h 96 v 16 H 64 Z m 0,0"
       data-original="#000000"
       class=""
       style="fill:#000000"
       id="path22"
       inkscape:connector-curvature="0" />
    <path
       d="m 32,192 h 128 v 16 H 32 Z m 0,0"
       data-original="#000000"
       class=""
       style="fill:#000000"
       id="path24"
       inkscape:connector-curvature="0" />
    <path
       d="m 248,32 h 64 v 16 h -64 z m 0,0"
       data-original="#000000"
       class=""
       style="fill:#000000"
       id="path26"
       inkscape:connector-curvature="0" />
    <path
       d="m 328,32 h 16 v 16 h -16 z m 0,0"
       data-original="#000000"
       class=""
       style="fill:#000000"
       id="path28"
       inkscape:connector-curvature="0" />
    <path
       d="m 216,32 h 16 v 16 h -16 z m 0,0"
       data-original="#000000"
       class=""
       style="fill:#000000"
       id="path30"
       inkscape:connector-curvature="0" />
    <path
       d="m 256,448 h 48 v 16 h -48 z m 0,0"
       data-original="#000000"
       class=""
       style="fill:#000000"
       id="path32"
       inkscape:connector-curvature="0" />
    <path
       d="m 472,240 c -2.81641,0 -5.48828,0.57422 -8,1.47266 V 40 C 464,17.945312 446.05469,0 424,0 H 136 C 113.94531,0 96,17.945312 96,40 v 104 h 72 c 4.40625,0 8,3.58594 8,8 v 64 c 0,4.41406 -3.59375,8 -8,8 H 96 v 23.35156 L 66.808594,224 H 24 c -4.40625,0 -8,-3.58594 -8,-8 v -64 c 0,-4.41406 3.59375,-8 8,-8 H 80 V 128 H 24 C 10.769531,128 0,138.76953 0,152 v 64 c 0,13.23047 10.769531,24 24,24 H 61.191406 L 112,280.64844 V 240 h 16 v 160 h 176.33594 c 1.48047,3.91016 3.51953,7.625 6.13672,10.89453 L 314.55078,416 H 112 V 297.16797 H 96 V 456 c 0,22.05469 17.94531,40 40,40 h 328 v -46.3125 c 0,-4.75 1.39062,-9.35156 4.03125,-13.3125 l 21.25,-31.87109 C 493.67187,397.91016 496,390.23828 496,382.32031 V 264 c 0,-13.23047 -10.76953,-24 -24,-24 z M 136,16 h 288 c 13.23047,0 24,10.769531 24,24 V 64 H 112 V 40 c 0,-13.230469 10.76953,-24 24,-24 z M 112,80 H 448 V 225.47266 C 445.48828,224.57422 442.81641,224 440,224 c -2.81641,0 -5.48828,0.57422 -8,1.47266 V 96 H 128 v 32 h -16 z m 32,160 h 24 c 13.23047,0 24,-10.76953 24,-24 v -64 c 0,-13.23047 -10.76953,-24 -24,-24 h -24 v -16 h 272 v 97.47266 C 413.48828,208.57422 410.81641,208 408,208 c -2.81641,0 -5.48828,0.57422 -8,1.47266 V 168 c 0,-13.23047 -10.76953,-24 -24,-24 -13.23047,0 -24,10.76953 -24,24 v 173.11328 c -1.98438,-1.64844 -3.45703,-3.92187 -4.12109,-6.57031 l -8.71875,-34.86328 C 336.27344,288.08984 325.90234,280 313.96875,280 299.64844,280 288,291.64844 288,305.96875 v 4.4375 c 0,1.53906 0.13672,3.06641 0.40625,4.57031 L 300.75391,384 H 144 Z m -8,240 c -13.23047,0 -24,-10.76953 -24,-24 v -24 h 215.35156 l 3.38281,4.23047 C 334.13672,440.47266 336,445.80078 336,451.22266 V 480 Z m 344,-97.6875 c 0,4.75 -1.39063,9.35156 -4.03125,13.3125 l -21.25,31.87109 C 450.32812,434.09766 448,441.76953 448,449.6875 V 480 h -96 v -28.77734 c 0,-9.05469 -3.11328,-17.92579 -8.76953,-24.99219 L 322.96875,400.90234 C 320.64844,398 319.01562,394.55078 318.29687,391.20703 L 304.16016,312.16016 C 304.04688,311.57422 304,310.99219 304,310.40625 v -4.4375 C 304,300.47266 308.47266,296 313.96875,296 c 4.58203,0 8.55859,3.10547 9.67188,7.54297 l 8.71875,34.86328 C 335.52734,351.12891 346.89453,360 360,360 h 8 V 168 c 0,-4.41406 3.59375,-8 8,-8 4.40625,0 8,3.58594 8,8 v 160 h 16 v -96 c 0,-4.41406 3.59375,-8 8,-8 4.40625,0 8,3.58594 8,8 v 96 h 16 v -80 c 0,-4.41406 3.59375,-8 8,-8 4.40625,0 8,3.58594 8,8 v 80 h 16 v -64 c 0,-4.41406 3.59375,-8 8,-8 4.40625,0 8,3.58594 8,8 z m 0,0"
       data-original="#000000"
       class=""
       style="fill:#000000"
       id="path34"
       inkscape:connector-curvature="0" />
    <path
       d="m 160,352 h 16 v 16 h -16 z m 0,0"
       data-original="#000000"
       class=""
       style="fill:#000000"
       id="path36"
       inkscape:connector-curvature="0" />
    <path
       d="m 192,352 h 88 v 16 h -88 z m 0,0"
       data-original="#000000"
       class=""
       style="fill:#000000"
       id="path38"
       inkscape:connector-curvature="0" />
  </g>
</svg>
