<?xml version="1.0" encoding="UTF-8" standalone="no"?>
<svg
   xmlns:dc="http://purl.org/dc/elements/1.1/"
   xmlns:cc="http://creativecommons.org/ns#"
   xmlns:rdf="http://www.w3.org/1999/02/22-rdf-syntax-ns#"
   xmlns:svg="http://www.w3.org/2000/svg"
   xmlns="http://www.w3.org/2000/svg"
   xmlns:sodipodi="http://sodipodi.sourceforge.net/DTD/sodipodi-0.dtd"
   xmlns:inkscape="http://www.inkscape.org/namespaces/inkscape"
   id="Layer_1"
   enable-background="new 0 0 512 512"
   height="40"
   viewBox="0 0 40 40"
   width="40"
   version="1.1"
   sodipodi:docname="website.svg"
   inkscape:version="0.92.4 (5da689c313, 2019-01-14)">
  <metadata
     id="metadata37">
    <rdf:RDF>
      <cc:Work
         rdf:about="">
        <dc:format>image/svg+xml</dc:format>
        <dc:type
           rdf:resource="http://purl.org/dc/dcmitype/StillImage" />
        <dc:title></dc:title>
      </cc:Work>
    </rdf:RDF>
  </metadata>
  <defs
     id="defs35" />
  <sodipodi:namedview
     pagecolor="#ffffff"
     bordercolor="#666666"
     borderopacity="1"
     objecttolerance="10"
     gridtolerance="10"
     guidetolerance="10"
     inkscape:pageopacity="0"
     inkscape:pageshadow="2"
     inkscape:window-width="1920"
     inkscape:window-height="1017"
     id="namedview33"
     showgrid="false"
     inkscape:zoom="5.2149125"
     inkscape:cx="92.572779"
     inkscape:cy="14.464901"
     inkscape:window-x="-8"
     inkscape:window-y="-8"
     inkscape:window-maximized="1"
     inkscape:current-layer="Layer_1" />
  <g
     id="g30"
     transform="matrix(0.07546079,0,0,0.07546079,0.57527336,-0.24136387)">
    <path
       d="M 481.081,438.5 H 30.919 C 13.843,438.5 0,424.657 0,407.581 V 137.102 h 512 v 270.479 c 0,17.076 -13.843,30.919 -30.919,30.919 z"
       id="path2"
       inkscape:connector-curvature="0"
       style="fill:#a9dbf5" />
    <path
       d="M 481.095,137.102 V 438.5 C 498.164,438.5 512,424.651 512,407.568 V 137.102 Z"
       id="path4"
       inkscape:connector-curvature="0"
       style="fill:#88c3e0" />
    <g
       id="g12"
       style="fill:#43809f">
      <path
         d="m 103.87,233.967 c -2.929,-2.928 -7.678,-2.928 -10.606,0 l -46.431,46.431 c -2.929,2.93 -2.929,7.678 0,10.607 l 45.816,45.816 c 1.464,1.464 3.384,2.196 5.303,2.196 1.919,0 3.839,-0.732 5.303,-2.196 2.929,-2.93 2.929,-7.678 0,-10.607 l -40.513,-40.513 41.127,-41.127 c 2.93,-2.929 2.93,-7.678 0.001,-10.607 z"
         id="path6"
         inkscape:connector-curvature="0" />
      <path
         d="m 264.52,280.397 -46.431,-46.431 c -2.929,-2.928 -7.678,-2.928 -10.606,0 -2.929,2.93 -2.929,7.678 0,10.607 l 41.127,41.127 -40.513,40.513 c -2.929,2.93 -2.929,7.678 0,10.607 1.464,1.464 3.384,2.196 5.303,2.196 1.919,0 3.839,-0.732 5.303,-2.196 l 45.817,-45.816 c 2.928,-2.929 2.928,-7.677 0,-10.607 z"
         id="path8"
         inkscape:connector-curvature="0" />
      <path
         d="m 185.813,206.063 c -3.874,-1.471 -8.203,0.477 -9.673,4.351 l -54.902,144.638 c -1.47,3.872 0.478,8.203 4.35,9.673 0.876,0.333 1.775,0.49 2.66,0.49 3.025,0 5.876,-1.844 7.013,-4.841 l 54.902,-144.638 c 1.47,-3.872 -0.477,-8.203 -4.35,-9.673 z"
         id="path10"
         inkscape:connector-curvature="0" />
    </g>
    <path
       d="m 386.318,234.23 h -48.419 c -8.534,0 -15.453,-6.918 -15.453,-15.453 0,-8.534 6.918,-15.453 15.453,-15.453 h 48.419 c 8.534,0 15.453,6.918 15.453,15.453 0,8.534 -6.919,15.453 -15.453,15.453 z"
       id="path14"
       inkscape:connector-curvature="0"
       style="fill:#29cef6" />
    <path
       d="M 465.642,296.041 H 337.899 c -8.534,0 -15.453,-6.918 -15.453,-15.453 0,-8.534 6.918,-15.453 15.453,-15.453 h 127.742 c 8.534,0 15.453,6.918 15.453,15.453 0.001,8.534 -6.918,15.453 -15.452,15.453 z"
       id="path16"
       inkscape:connector-curvature="0"
       style="fill:#ffc328" />
    <path
       d="m 427.695,357.852 h -89.796 c -8.534,0 -15.453,-6.918 -15.453,-15.453 0,-8.534 6.918,-15.453 15.453,-15.453 h 89.796 c 8.534,0 15.453,6.918 15.453,15.453 0,8.534 -6.919,15.453 -15.453,15.453 z"
       id="path18"
       inkscape:connector-curvature="0"
       style="fill:#f78e36" />
    <path
       d="M 512,147.737 H 0 V 104.419 C 0,87.343 13.843,73.5 30.919,73.5 H 481.081 C 498.157,73.5 512,87.343 512,104.419 Z"
       id="path20"
       inkscape:connector-curvature="0"
       style="fill:#43809f" />
    <path
       d="m 481.095,73.5 v 74.237 H 512 V 104.432 C 512,87.349 498.163,73.5 481.095,73.5 Z"
       id="path22"
       inkscape:connector-curvature="0"
       style="fill:#3a7190" />
    <circle
       cx="49.455002"
       cy="111.126"
       r="15.453"
       id="circle24"
       style="fill:#29cef6" />
    <circle
       cx="109.37"
       cy="111.126"
       r="15.453"
       id="circle26"
       style="fill:#f3f3f3" />
    <circle
       cx="169.285"
       cy="111.126"
       r="15.453"
       id="circle28"
       style="fill:#f78e36" />
  </g>
</svg>
